<svg xmlns="http://www.w3.org/2000/svg" viewBox="0 0 380.2 559.3"><g id="XMLID_7_"><path id="XMLID_388_" fill="#201C1E" d="M4.1,487.2c-3.8-15.9-1.5-30.3,10.1-42.7c7.1-7.7,13.9-15.7,19.7-24.5c3-4.5,4.3-9,1.4-14 c-0.2-0.4-0.4-0.9-0.5-1.4c-1.7-9.7-6.1-16.8-16-20.5c-4.7-1.7-6.8-6.7-7.1-12.2c-1.4-26.6-0.2-52.9,5.3-79c1-4.8,2.8-9.2,5.5-13.3 c2.3-3.5,5.3-4.6,9.4-3.2c4.7,1.6,9.5,2.9,14.3,4.5c2.9,1,3.9,0,3.6-3c-0.6-6.7-4.1-12.2-6.5-18.2c-6.8-17-10.1-34.6-12.4-52.7 c-4.8-36.6,9-67.7,29-96.5C71.6,94,85.9,79.3,103.1,68c2.7-1.8,4.3-4,4.2-7.4c-0.1-1.2,0-2.3,0-3.5c-0.1-3,0.5-6.4-0.7-8.9 c-1.7-3.6-5.3-0.3-8.1-0.8C87.9,45.4,74,37.9,75.9,23.8c0.8-6.3,3.4-11,9.3-13.6c7.1-3.1,14.3-3.3,21.4-0.5 c9.8,3.9,14.9,20.5,9,29.5c-1.9,2.8-1.4,4.1,0.8,6.2c6.9,6.3,15.4,6.7,23.5,5.4c15.6-2.5,31.2-2,46.8-1.5c9,0.3,17.5-1.3,26-3.9 c6.3-1.9,7.1-3.6,4.7-9.6c-5.6-14.4,2.5-26.6,14.1-32.8c1.3-0.7,1.7-1,4.5-1.6c2.6-0.2,3.1-0.6,5.4-0.3c0.9,0,1.5,0.2,2.2,0.1 c10.3-0.7,17.5,9.7,18.8,18.7c0.4,1-0.1,1.4-1,1.5c-2.3-1.4-2.7-4.1-4.1-6.1C251.4,1.9,241.1,2,232,6.3 c-9.7,4.6-11.6,16.2-4.3,24.1c0.7,0.7,1.4,1.4,2.1,2.1c5,4.6,10.7,7,17.6,6.2c4.7-0.5,8.4-2.7,11.1-6.6c0.8-1.2,1.4-2.7,2.9-3.2 c1.4,0.5,1.2,1.5,0.8,2.5c-4.6,14.6-17.9,17.8-29.3,16.3c-2.7-0.4-3.2-0.1-4.3,2.7c-4.2,11.3,0.7,19.8,8.1,27.4 c7.6,7.9,16,15,23.3,23.3c7.5,8.5,13.4,18.2,19.9,27.4c2.3,3.2,4.8,5.9,9.3,5.6c2.8-0.2,4.2-0.8,3.9-4.1c-0.4-4.8,0-9.6,2.7-13.9 c4.7-7.5,11.1-11.2,20.1-9.8c-0.6,3.2-3.6,1.6-5.3,2.7c-2.5,1-5.3,1.5-6.8,4.1c-3.4,11.9,1.5,21.1,9.5,29.1c4,4,9.7,3.3,14.1-1.3 c1.2-1.3,1.9-3.2,3.7-4c0.9,0.2,1.4,0.5,0.9,1.5c-6,14.1-20.1,16.6-31.8,5.8c-1.5-1.4-2.3-4.8-5.1-3.6c-3.2,1.4-6,3.6-7.1,7.2 c-1.1,3.4-0.8,6.9-0.8,10.4c-0.4,0.3-0.9,0.4-1.4,0.3c-2.9-4.4-1.9-11.2,2.2-16.4c1.1-1.4,2.6-2.6,5-5.1 c-11,1.9-15.2-5.1-19.5-11.8c-10.8-17-24.7-31.2-39.1-45.1c-3.8-3.6-6.6-7.9-8.8-12.6c-2.3-4.9-2.4-9.9-1-15.1c0.6-1.9,2-4.1-0.3-6 c-2.3-1.9-4.6-1.2-6.9,0.2c-1.1,0.7-2.3,1.3-3.5,1.9c-11.5,4-23.5,4.9-35.4,3.9c-12.5-1.1-24.8,0.6-37.2,1.5 c-7.4,0.5-15,1.4-22-2.4c-1.9-1-3.6-2.3-5.3-3.7c-0.9-0.7-1.8-1.7-3.1-1.1c-1.3,0.6-1.1,1.9-1,3.1c0.2,4,0.1,8,0.1,11.9 c0,1.8-0.4,3.6-1.3,5.2c-0.4,0.7-0.9,1.4-1.6,1.8c-15.1,9.2-26.4,22.5-38.1,35.5c-7.8,8.2-13.7,17.6-18.8,27.5 c-5.4,10.3-10,21-13.3,32.3c-4.3,14.9-4.2,29.8-2.4,45c1.1,9.1,2.8,18.1,4.9,27c2.4,10.1,5.5,19.9,10,29.2c1.9,3.9,3.5,8,4.2,12.3 c0.5,3.3,1.9,5,5.1,5.6c6.1,1.2,11.8,3.5,17.5,5.8c0.3,0.1,0.7,0.2,0.9,0.4c7.3,4.3,14.3,4.3,22.7,1.5c17.8-6.1,36.5-4.9,54.9-2.8 c19.7,2.3,37.8,8.9,54.6,19.5c4,2.5,4.2,2.4,5.4-2.9c0.9-2.9,1.9-5.8,2.9-8.7c1.5-4,3.8-7.4,7.3-9.8c1.1-0.7,2.4-1.7,3.6-0.7 c1.3,1.2,0.3,2.6-0.6,3.5c-9.9,9.5-8.9,21.9-9.1,34c0,2.1-0.3,4.4,2,5.8c1.1,0.6,1.1,1.7,0.7,2.6c-0.9,2-1.9,3.7,1.5,4.7 c1.7,0.5,0.9,2.4-0.4,3c-8.4,3.9-13.7,12-22.2,15.9c-10.3,4.8-16.9,25.2-15.4,34.9c0.4,2.6,1.8,4.6,4,6c2.4,0.7,3.5-1,4.3-2.5 c7.1-12.3,18.6-17.4,31.7-20.5c7.8-1.9,15.1-5.4,21.9-9.4c12-7.1,19.5-17.8,21.8-31.8c0.7-4.9,0.7-9.8-0.1-14.6 c-1.6-3.4-1.1-7.2-2-10.7c-2.5-9.5-7.9-17.2-14.9-23.8c-2.7-2.5-6.4-2.4-9.9-2.8c-1.3-0.2-3.4,0.7-3.6-1.5c-0.2-2,1.7-2.6,3.4-2.9 c1.3-0.2,2.6-0.1,4.1-0.1c-2.4-2.1-6.4-0.3-7.7-4c0.1-0.5,0.3-0.9,0.7-1.3c0.6-0.3,1.3-0.8,1.9-0.6c6.2,1.6,8.3-2.1,10.9-6.9 c3.8-7.2,10.1-12.6,15.1-19c8.9-11.5,16.3-23.8,20.6-37.7c0.5-1.7,0.7-3.7,2.7-4.5c1.4,0.5,1.3,1.4,0.8,2.4 c-0.4,5.8-3.1,10.8-5.4,15.9c-4.8,10.6-11,20.4-18.8,29.1c-3.5,4-7,8-10.3,12.2c-7.5,9.5-7.3,13.5,0.6,22.5 c3.2,3.6,6.8,6.9,8.7,11.4c1,2.4,2.2,2.3,4.1,0.9c3.8-2.6,8.1-4.4,12.7-5.3c1.3-0.4,1.4,0.3,1.3,1.3c-2.1,3-5.7,3.3-8.6,4.7 c-3.7,1.8-5.1,4-3.7,8.3c3.7,11.5,3.6,23.2,1.2,35c-0.5,2.5-0.4,5,0.4,7.4c3.2,9.6,4.8,19.5,5.4,29.4c0.9,13.8-0.4,27.6-5.6,40.7 c-4.1,10.4-7.6,21-14.1,30.2c-0.9,1.2-1.4,2.6-1.6,4.2c-0.8,9.8-3,19.4-4.9,29c-2.3,12-0.9,23.5,5.9,34c1.1,1.7,2.2,3.3,3.1,5.1 c2.5,5.9,2.9,6.1,9.3,4.7c12-2.7,23-7.6,33.4-14.2c6-3.8,11.1-8.6,14.7-14.7c8.3-13.8,14.8-28.2,16.9-44.4c0.3-2.4,0.2-5.1,2.3-6.9 c2.1,0.6,1.8,2.4,2.1,4c-0.1,11.8-3.4,22.9-8.5,33.5c-1.6,3.4-3.4,6.8-5,10.3c-5.2,10.6-12.8,18.8-23.5,24.2 c-8,4-15.9,8.4-24.4,11.3c-3.6,1.2-7.3,2.4-11.2,2.3c-4.1-0.1-7.8,0.7-11.4,2.9c-3.6,2.1-7.5,2.6-11.6,1.4 c-5.1-1.6-10.1-1.1-15.2,0.2c-8.9,2.2-17.8,4.4-26.8,6c-3.6,0.7-7.1,1.6-10.5,3c-6.7,2.7-13.9,3.8-21,4.2 c-17.2,0.9-34.4,3.3-51.7,2.2c-12.7-3-25.8-3-38.5-5.8c-21-4.7-36-16.6-43.6-37.1c-2.4-6.6-2.3-12.9,0.7-22.7 c-5.4,2.4-9,6.5-12.6,10.6c-1.3,1.5-2.4,3.2-4.5,3.8c-5.9,5-8.1,5.2-13.1,1c-0.4-1,0.3-1.2,1-1.4c3.4,0,5.6-1.9,7.1-4.7 c1.9-3.5,4.1-6.9,5.9-10.4c8.3-16.6,20.8-27.7,39.7-30.6c0.8-0.1,1.6-0.3,2.4-0.5c0.3-0.1,0.6-0.3,1-1.1 c-8.9-8.5-17.2-17.7-24-28.2c-1.4-2.7-2.8-4.4-4.9-0.3c-4.2,8.3-10.4,15.1-16.8,21.6C9.4,453.9,4.6,465.7,6.3,480.1 c0.1,1.1,0.1,2.3,0,3.5C6,485.1,6.5,487,4.1,487.2z"/><path id="XMLID_386_" fill="#241E1E" d="M341,429.1c-1.4,6.4,0.2,13.1-1.8,19.5c-0.3-1.5,0.4-3.2-1-4.5c-2.7-3.2-1.9-7.1-1.3-10.5 c1.5-8.6,0.1-16.9-1-25.3c-2-14.7-5.4-29.1-10.1-43.2c-2.2-6.6-3.6-13.5-5.5-20.2c-2.2-7.9-2.6-15.7-0.9-23.7 c0.7-3.3-0.1-4.9-3.4-5.8c-6.2-1.7-11.3-5.6-15.9-9.9c-3.6-4.1-8-7.4-9.9-12.8c-1.1-3.1-4.4,0.2-6.1-1.7c-0.4-0.3-0.8-0.7-1.2-1 c19.3-7.3,30.3-1,41.8,11.1c3.4,3.6,2.2,8.2,0.6,12.2c-4.6,11.3-4.8,22.7-1.1,34.1c5.9,18.3,12,36.7,14.7,55.8 C340.2,411.8,340.4,420.5,341,429.1z"/><path id="XMLID_385_" fill="#443230" d="M291.2,203.3c-0.3-0.7-0.7-1.5-1-2.2c-1.6-1.5-0.9-3.4-0.8-5.1c0.4-11.1,0.8-22.2-3.3-32.8 c-0.6-1.6-1.4-3.5,0.1-5.1c0.4,0,0.7,0,1.1,0C294,172.7,294.8,187.8,291.2,203.3z"/><path id="XMLID_384_" fill="#353231" d="M310.1,108.1c1.6-2,4.4,0.1,6-1.9c15.5,1.5,20.5,21.3,16.1,32.2c-0.3-0.4-0.7-0.8-1-1.2 c-2.3-3.4,0.7-7.3-1-10.7c-0.6-5.5-3-10.1-7.1-13.6c-2.4-2.1-5.2-3.5-8.5-3.4C313,109.4,311.3,109.5,310.1,108.1z"/><path id="XMLID_383_" fill="#4B4645" d="M262.3,31.4c-0.4-0.7-0.7-1.5-1.1-2.2c-2.1-2.7-2.1-5.4,0-8c0.4-0.4,0.8-0.8,1.2-1.3 C263.6,23.7,263.7,27.6,262.3,31.4z"/><path id="XMLID_382_" fill="#593930" d="M4.1,487.2c1.4-1.1,0.6-2.8,1.1-4.2c1.5,0.2,1.8,1.3,1.9,2.4c0.5,4.1,1.6,8,2.1,12.1 c-0.1,0.2-0.3,0.4-0.5,0.7c-0.3,0.3-0.6,0.7-0.8,1C4.7,495.8,4.8,491.4,4.1,487.2z"/><path id="XMLID_381_" fill="#EE643B" d="M119.2,50c9.2,4.1,18.7,2.8,28.3,1.8c9.7-1,19.5-1.7,29.3-1c13,1,25.8,0.2,38.3-3.8 c3.8-0.2,5.7,1.8,4.4,5.2c-5.5,14,2,23.8,11.4,31.8c12.4,10.6,22,23.2,30,37c8.6,14.8,15.8,30.4,20.2,47c4.8,18.2,3.5,35.9-4.5,53 c-5.6,12-13.2,22.7-21.8,32.7c-2.7,3.2-5.4,6.3-7.6,9.9c-1.9,3-4.3,5.5-8,6.3l-0.1,0.1c-1,2.4-3.2,2.6-5.3,3.2 c-8,2.3-16.1,3.9-22.9,2.8c22.2,0.1,41.4,19,42.5,43.5c-2.3,13.4-9.8,23.9-19.6,32.7c-5.9,5.4-12.5,10-19.5,13.8 c-10.4,5.7-17.2,14.4-21.9,25.1c-0.9,2.1-1.4,4.5-3.3,6.1c-4.2-2.6-5.7-6.6-5.1-11.1c1.8-14.5,5.6-27.8,20.4-34.8 c2.1-1,3.9-2.5,5.6-4.1c4.3-3.8,7.8-8.6,14.7-9.9c-2.6-2-4.3,0.3-6.3-0.9c-0.1-2.7,2.2-4.5,3.5-7.1c-1.5-0.3-3.4,0.6-3.6-2.4 c-0.8-8.5-0.2-16.9,1.3-25.2c1.2-6.5,4.8-11.5,9.3-16c-5.1,1.8-7.7,5.7-9.8,10.2c-0.9,0.3-1.5-0.2-2.2-0.6 c-1.5-0.9-2.9-3.7-4.7-0.8c-1.3,2.2-1.2,4.7,1.1,6.6c1.1,0.9,3.5,0.6,3.1,3.1c-0.8,8.4-0.7,8.2-7.7,4.1 c-34.1-20.3-70.6-25.9-108.8-15.9c-9.1,2.4-16.2,1.9-23.7-2.5c-2.8-2.8,0.6-3.4,1.8-4.1c5.6-3.7,11.6-6.8,17-10.2 c-8.5,0.9-17.3,1.9-25.2-3.8c-0.7-3.6-3.8-4.1-6.5-5c-6.1-6.6-9.8-14.6-13.2-22.7c-8.9-21-11.3-43.1-10-65.5 c0.8-13.5,5.4-26.3,11.2-38.6c5.3-11.5,11.5-22.5,18.6-33c0.5-1.6,1.3-3.1,2.5-4.2c16-14.8,33-27.6,55.5-30.4 c9-1.1,18,0.3,26.7,2.1c23.5,4.9,44.1,15.9,62.4,31.1c21.9,18.2,39.4,40,52.6,65.2c0.7,1.3,1.6,2.6,2.6,3.6 c3,6.6,4.6,13.7,6.3,19.8c-2.6-11.7-7.4-23.5-12-35.4c-8.5-20.1-21.7-36.7-37.8-51.4c-15.9-14.6-34.1-25.4-53.4-34.5 c-1.4-0.6-2.8-1.2-3.8-2.4c-8.2-4-16.9-5.7-25.8-7.1c-8.2-1.3-16.2-0.7-24.2,1.2c-1.6,0.4-3.3,0.7-4.6-0.9c-0.7-3.6,0-7.2,0.2-10.7 C116.9,51.8,117,50,119.2,50z"/><path id="XMLID_380_" fill="#97A7A3" d="M178.1,340.1c-2.3,13.1-5.9,25.9-9.7,38.7c-4,13.4-8.3,26.7-12.1,40.1 c-1,3.6-2.4,4-5.9,3.6c-31.2-3.4-60-16-90-23.8c-12.3-3.2-24.2-7.3-35.4-13.4c-3.2-1.7-6.8-2.8-8.8-6.2c-1.6-27.2,0-54.2,7.5-80.6 c2.3-8.2,4.7-9.7,13-8c7.7,1.5,14.9,4.7,22.3,7.3c23.3,8.1,46.4,16.5,69.6,24.7c14.4,5.1,28.9,10,43.5,14.6 C174.1,337.8,176.5,338.2,178.1,340.1z"/><path id="XMLID_379_" fill="#55AFC6" d="M300.2,304c6,5,11.8,10.4,20.2,10.9c1.6,0.1,2,0.9,1.5,2.3c-5.3,14.7-0.4,28.6,3.9,42.3 c6,19.4,11,38.9,12.8,59.2c0.8,8.5-0.8,16.9-0.3,25.4c-1.4,16.9-7.1,32.4-15.2,47.1c-5,9.2-11.8,16.5-20.9,21.6 c-10.1,5.6-20.4,10.5-31.8,12.8c-7.3,1.5-7.3,1.5-9.2-5.4c-3.8-9.5-3-19.3-1.1-29c1.6-7.8,3.7-15.5,3.8-23.6c0-2.8,1.5-5,2.9-7.3 c12.5-20.9,20.5-43.1,18.9-67.7c-0.7-11.3-1.1-22.6-0.7-33.9c0.4-13.3,1.7-26.6,5.2-39.5c0.9-3.5,1.9-7.1,3.9-10.2 C295.3,306.5,296.7,303.8,300.2,304z"/><path id="XMLID_378_" fill="#ECEFE8" d="M326,491c1.9,2,4.4,1,6.6,1.1c10.6,0.6,21.1,1.8,31.1,5.8c13.6,5.4,17.3,14,13.9,28 c-3,12.6-11.8,19.7-23.7,23.2c-12.7,3.7-25.7,5.6-39.1,6.2c-13.7,0.6-27.5,1-41.2,2.1c-12.4,1-24.9,1.2-37.2,1.4 c-21.8,0.2-43.7-1-65.4-3.5c-9-1-18.6-0.4-26.9-3.5c-8.4-3.2-17-1-25.1-3.6c21.3,0.6,42.8-0.2,63.6-4.4c16.5-3.3,33-7.5,49.3-12 c3.5-1,6.8-1.1,10.3,0c5.9,1.9,11.5,1.6,16.6-2.3c0.8-0.6,1.6-1.1,2.7-1c10.2,0.8,19.2-3.3,28.2-7.1c7.1-3,13.5-7.2,20.1-11 C317.6,505.8,321.4,498.1,326,491z"/><path id="XMLID_377_" fill="#55AFC6" d="M213.1,534.1c-28.3,8.6-57.4,12.2-86.7,11.7c-16.3-0.3-32.8-2.7-48.9-6.7 c-10.2-2.5-18.4-8.3-25.6-15.7c-1.1-5,2.3-8.1,5-11.3c7.9-9.4,17.8-16.1,29.3-20.1c14.6-5.2,29.5-6.8,45.1-3.1 c15.2,3.6,30.7,5.9,46.5,4.9c7.4-0.4,12.7,2.7,17.2,8.2c6.6,8,12.1,16.7,17.2,25.7C213.3,529.6,214.9,531.6,213.1,534.1z"/><path id="XMLID_376_" fill="#D05145" d="M240.1,463c3.3-2.8,6.5-5.5,9.8-8.3c0.8-0.7,1.6-2.2,2.9-1.2c0.6,0.5,0.7,1.9,0.5,2.8 c-1.7,6.6-1.6,13.6-4.2,20c-0.8,2-0.3,3.9-1,5.8c-0.7,5-0.7,10,0,14.9c1,8.4,4.8,15.7,9.4,22.6c2.8,4.2,2.3,5.2-2.8,5.9 c-2.3,0.3-4.6,0.8-6.8-0.3c0.7-1,1.6-1,1.5-1c-3.9-5.3-8.1-11.2-9.6-18.8c-1.9-9.9-5.5-18.9-13.4-26c-3.5-3.1-8.1-3.6-11.5-6.6 c-0.2-3.1-2.2-1.2-3.2-0.9c-17.9,4.7-36.2,5.6-54.4,4.8c-18.4-0.8-36.5-4-54.2-9.8c-26.5-8.7-45.6-25.7-59.9-49 c3.4-6.1,7.6-6.8,13.2-1.8c10.9,9.7,22.5,18.5,35.8,24.9c3.6,1.7,6.5,5.1,10.9,5c18.5,9,37.8,15.7,58.3,18.4 c20,2.7,40.1,3.4,58.4-6.9c22.9-12.8,35.7-32.7,39.4-58.6c1.6-11.3,0-22.2-3.3-33c-0.4-1.4-1.5-2.9,0.1-4.1 c5.4-4.3,9.3-9.8,12.8-16.6c3.4,7.4,4.1,14.5,5.2,21.4c4.2,26-2.2,49.9-14.7,72.4c-5.3,9.6-13.5,16.8-22.8,22.6 c-1.7,1.1-4.3,1.4-4.4,4.2c2.3,1.3,2.1,3.6,2.4,5.6c0.5,3,1.2,5.9,3.9,7.8c1.6,1.1,3.3,1.6,5.2,0.8c2-0.9,2.2-2.7,2.2-4.6 c-0.1-3.2-1-6.2-3.8-8.3C240.6,466.4,238.7,465.4,240.1,463z"/><path id="XMLID_375_" fill="#FBCD47" d="M78.4,407c13.3,2.9,26.3,7.3,39.2,11.5c13.9,4.5,28.5,4.7,42.6,8.2 c1.2,0.3,2.7,0.1,3.9-0.3c14.9-4.7,30.1-8.6,44.2-15.5c3.3-1.6,3.7-4.1,0.8-7.1c-2.5-2.5-5.8-3.9-8.8-5.6c-2.7-1.5-3.2-2.6-1.2-5.6 c5.7-8.6,13.9-12.8,23.3-14.9c10.9-2.4,20.4-7.9,30.4-12.6c1.6,2.3,2.2,5.1,2.4,7.9c0.2,19.2-8,35.1-20.5,48.8 c-14.2,15.6-32.1,22.6-53.3,22.8c-34,0.3-64.9-9.1-93.8-26.4c-4-2.4-7.8-5.2-11.1-8.4c-0.7-0.6-1.8-1.5-1.1-2.5 C76,406.1,77.3,406.7,78.4,407z"/><path id="XMLID_374_" fill="#EEB336" d="M78.4,407c-0.8,0.1-1.6,0.3-2.9,0.5c13,11.6,28,18.8,43.7,24.8 c22.2,8.5,45.1,12.4,68.8,10.8c22.1-1.5,39.3-12.1,52.1-30c7.6-10.6,12.4-22.3,14-35.3c0.2-1.6,0.7-3.2,1.1-4.8 c5.6,20.7,1.6,40-9.7,57.7c-12.5,19.6-30.2,31.8-53.7,32.7c-46.6,1.8-88-11.6-121.9-44.8c-5-4.9-8.8-10.7-12.3-17.9 C65.1,403,71.8,405,78.4,407z"/><path id="XMLID_373_" fill="#358B9C" d="M213.1,534.1c-0.6-5.8-4.7-9.8-7.3-14.5c-4-7.3-9.1-13.8-14.8-20c-2.7-2.9-6-4.6-10.1-4.5 c-19.2,0.7-37.8-2.7-56.6-6.4c-13.6-2.7-27.5,0.1-40.4,5.6c-11.5,4.9-21.4,12-28.7,22.4c-1.4,2-2.6,4.2-3.2,6.7 c-7.6-7.5-11.7-16.7-12.8-27.4c-0.6-5.6,2.3-9.9,4.6-14.5c0.9-1.8,2.9-2.1,4.7-2.4c7.1-1.2,14.2-2,21.4-2 c12.4-0.1,24.5-2.2,36.6-4.3c2.9-0.5,5.6-0.5,8.4,0.2c18.1,4.5,36.5,7.3,55.3,6.4c10.8-0.5,18.6,4.9,25.2,12.8 c8.4,9.9,15.7,20.7,26.4,28.5c3.7,2.7,7.4,5.4,12.7,8.5C226.2,531,219.7,532.5,213.1,534.1z"/><path id="XMLID_372_" fill="#358B9C" d="M300.2,304c-5.9,3.5-7.5,9.6-9,15.5c-5.4,21.4-6.9,43.4-4.8,65.2 c2.7,28.5-4.9,53.7-19.4,77.5c-0.8,1.2-2,2.3-2,3.9c0.4,9.1-2,17.7-4,26.4c-2.1,9.2-1,18.5-0.1,27.7c-11.2-13.6-12.7-29.1-8.7-45.6 c1.9-7.6,3.5-15.2,3.5-23.1c0-1.6,0.5-2.9,1.3-4.2c13-20.3,20.8-42.3,20.6-66.7c-0.1-9.7-1.9-19.2-4.2-28.5 c-1.5-5.9-2.2-11.1-1-17.4c2-10.4,1.6-21.3-2.5-31.5c-1.5-3.7-0.6-5.6,2.7-7.1c3.8-1.7,7.6-3.4,11.4-5.1c0.6-0.1,1.3-0.2,1.9-0.5 c2.8-1.1,5-2.3,5.8,2.7C292.5,297.9,297.5,300.3,300.2,304z"/><path id="XMLID_371_" fill="#D05145" d="M239.1,270c7-4.4,10.1-12.1,15.4-18c7.8-8.6,14.3-18.2,19.6-28.7 c10.2-20.2,10.9-41,3.7-61.9c-7.1-20.5-16.7-39.9-29.8-57.4c-4.9-6.5-10.4-12.4-16.8-17.6c-6-4.8-10.8-10.7-13.6-18.1 c-1.9-4.9-2.2-9.7,0.1-14.5c1.6-3.4,1.1-5.7-2.7-6.8c2.5-1.1,4-4.6,7.1-3.4c3.5,1.3,6.9,2.7,4.4,8.1c-3.7,8-0.5,15.2,4.1,21.9 c2.5,3.6,5.5,6.7,8.8,9.5c15.1,13.3,27.3,28.9,38.4,45.6c3.4,5.2,7.5,8.4,14.1,6.9c1.3-0.3,2.4-0.1,2.8,1.3c0.4,1.5-1,1.8-1.9,2.5 c-6.7,5.1-8.7,10.8-6.6,18.7c4.2,11.5,5.6,23.4,4.7,35.7c-0.2,2.5-0.5,4.9-0.7,7.4c-5,19.9-16.2,36.3-29.3,51.6 c-4.4,5.1-9.7,9.7-10.9,17c-0.3,2-1.8,1.5-3.1,1.1C244.4,270.1,241.8,269.7,239.1,270z"/><path id="XMLID_370_" fill="#F8DC80" d="M134.2,312.2c-13.4-4.8-26.8-9.7-41.1-14.8c2.6-2.1,5-2.7,7.2-3.3 c40.3-9.3,77.8-3.3,112.4,19.9c1.1,0.7,2.5,1.3,2.5,2.9c0.1,5.1,1.8,10.2,0.6,15.4c-0.1,4.1-2.3,3.2-4.5,1.8 c-7.5-4.7-15.3-8.6-23.6-11.8c-12.4-4.7-25.4-6.7-38.4-7.7C144.1,314.3,139.2,313.2,134.2,312.2z"/><path id="XMLID_369_" fill="#D05145" d="M71.1,107c-0.5,3.5-3.4,5.6-5.1,8.4c-11.8,18.9-21.5,38.7-24.5,61 c-1.5,11.1-0.4,22.6,0.8,33.8c1.5,14,6.1,27.1,11.7,39.9c2.7,6.1,6.7,11.4,10.2,17c0.4,3.8,3.7,3.2,6,4c7.1,4.5,15,4.5,23,3.5 c1.8-0.2,3.5-0.8,5.9,0.2c-7.3,4.3-14.2,8.4-21.1,12.4c-1,0.6-2.8,0.8-1.7,2.7c-6.8-2.3-13.5-4.7-20.4-6.3c-1.9-0.4-3.2-0.9-3-3.9 c0.3-5-2.1-9.6-4.2-14.2c-10.2-22-14.5-45.4-16.1-69.5c-1.6-24.2,6.8-45.7,17.8-66.5c5.1-9.7,10.6-19.2,19-26.6 c1.1,1.7,0.1,3-0.6,4.4c-0.6,0.3,0.5,0.9,0,0.4c-0.1-0.1,0-0.2,0.3-0.4C69.6,107,70.2,106.7,71.1,107z"/><path id="XMLID_368_" fill="#F48E54" d="M71.1,107c-1.4,1.2-2.9,2.4-5.1,4.3c1.3-3.4,2.3-5.7,3.2-8.1c11.1-14.1,23.5-26.7,38.9-36 c2.6-2.3,5.4-3.7,9-3c4.4-0.4,8.6-1.8,13.1-2.3c14.7-1.5,28.3,2.3,41.8,7.3c0.6,0.2,0.4,0.8,0,1.1c-4.7,1.4-8.5-2-12.2-2.3 c-1.2-0.3-0.9,0.7-0.8,0c0-0.1,0.2-0.2,0.5-0.1c32,8.8,57.9,27.2,80.6,50.8c11.6,12.1,20.4,26,27.1,41.4c1.2,3.5,2.8,6.9,3.8,10.4 c0.4,1.4,1.6,3,0.2,4.6c-4-3.4-5.1-8.4-7.7-12.7c-11.6-19.2-25.5-36.6-42.2-51.5c-19.5-17.4-41.8-29.8-67.6-35.5 c-25.4-5.7-47.5,0.9-67.3,16.9c-3.9,3.1-7.7,6.3-11.4,9.6C73.3,103.4,71.3,104.6,71.1,107z"/><path id="XMLID_367_" fill="#D05145" d="M189.1,397.4c3.5-13,10.5-23.6,22-30.6c13.5-8.3,26.5-16.9,35-30.9 c2.9-4.9,4.7-10.2,6.1-15.7c2.6-0.4,2.7,1.8,3.5,3.2c1.3,2.4,2.8,4.5,5.4,5.4c2.8,0.9,5.2,0.8,6.1-2.7c1.1-2.6-0.3-5.9,2.2-8.2 c0.7,0,1.1,0.3,1.2,0.9c-0.2,4.5,0.5,9-0.4,13.5c-2,15-10.8,25.4-23.3,32.8c-9.6,5.6-20.2,9.2-31,12c-7.4,2-13.2,6-17.4,12.4 c-1.4,2.2-3.2,4.3-4.9,6.3C192.4,397.1,191.3,399.1,189.1,397.4z"/><path id="XMLID_366_" fill="#B7C2BE" d="M178.1,340.1c-13-3.3-25.7-7.9-38.4-12.3c-17.7-6.1-35.4-12.4-53.1-18.7 c-14.7-5.2-29.3-11-44.2-15.6c-14.7-4.5-15.1-4.5-18.7,9.3c-6,23.2-7.6,46.8-6.8,70.6c0.1,1.9,0.8,4-1,5.7c-2-1.9-2.1-4.5-2.3-6.9 c-1.8-26.7,0.1-53.2,5.6-79.4c2.5-11.8,3.3-12.1,14.5-8.2c46.4,16.4,92.7,32.9,139.1,49.5C175.4,335.2,179.9,335.1,178.1,340.1z"/><path id="XMLID_365_" fill="#FBCD47" d="M134.2,312.2c27.7,1.1,54.7,4.9,78.2,21.1c2,1.4,2.6,0.7,3.3-1c0.1,8.1-4.8,13.3-11.2,16.3 c-14.9,6.9-20.5,19.6-22.9,34.6c-0.4,2.3-0.3,4.6-0.5,6.9c-7.3-1.7-8-2.9-6.1-9.4c3.8-13.6,8.4-27,10.7-41 c1.2-7.5,0.9-8.1-6.1-10.7C164.5,323.2,149,318.8,134.2,312.2z"/><path id="XMLID_364_" fill="#CF5045" d="M42.2,422c7.6,10.5,16,20.3,25.7,29.3c-2.8,1.9-5.7,2-8.3,2.4c-15.6,2.6-26.3,12-34.1,25 c-3,5-5.3,10.4-8.3,15.3c-1.7,2.8-3.7,6.2-8.2,4.1c0.2,0,0.4,0,0.5-0.1c-1.5-6.2,0.5-11.8,2.4-17.5c1.1-3.5,2.4-6.9,4-10.2 c1.4-2.9,1.4-5.1-1.5-7.3c-2.9-2.1-2.8-5.6-2.6-8.7c0.2-2.6,2.1-3.2,4.4-2.1c2.1,1.1,3.7,2.7,5.6,4.9c5.6-10,14.7-17.7,17.3-29.4 C39.3,425.6,39.6,423.1,42.2,422z"/><path id="XMLID_363_" fill="#CF5045" d="M270,318.1c-0.3,0-0.6,0-0.9,0c-2.8-2.5-5-5.7-8.6-7.3c-2.9-1.3-3.9-0.5-4.2,2.5 c-0.7,7.9,2.5,11.7,11.8,13.8c-2.2,4.2-6.2,4.5-10.3,1.3c-2.9-2.2-2.8-6.3-5.7-8.3c-0.8-12.8-7-23.2-15.1-32.7 c-8.9-10.4-21.3-9.7-33.3-11.5c12.1-0.5,24.1-1.1,35.3-5.9c0.4,2.8,2.9,1.6,4.4,2.2c2.3,0.9,5.4,0.6,6.4,4.1 c-3.5,0.9-7.4-2.3-10.6,1c0.4,0.5,0.6,1,0.7,1c7-0.7,12.7,1,17.4,7c6.4,8,11.5,16.2,11.9,26.7c0,1.3,0.7,2.5,1,3.7 C270.6,316.7,270.7,317.4,270,318.1z"/><path id="XMLID_362_" fill="#FFF" d="M228.8,33.2c-7.5-6.5-9.1-16.9-3.6-23.3c6.4-7.6,20.3-9.7,27.1-4.2 c2.9,2.4,4.3,5.8,5.8,9.1c3.6,15.3-6.5,25.9-20.7,21.8c-1.6-2,0.6-2.5,1.5-3.2c1.3-1,1.2-1.8,0-2.6c-1.7-1.4-2.1-3-0.6-4.8 c1.4-2.9-1.1-2.3-2.4-2.4c-2.2-0.2-4.2,0.2-4.7,3c-0.3,2.1,0.7,4.2,0,6.3C230.7,33.8,229.8,33.8,228.8,33.2z"/><path id="XMLID_361_" fill="#ED643B" d="M42.2,422c-2.8,6.7-3.8,14.3-8.3,20.1c-4.4,5.6-8.7,11.2-12.5,18.2c-1-3.7-3.5-5.3-5.7-7.1 c-1.6-1.3-3.4-0.9-3.1,1c0.6,3.3-0.6,7.7,4.2,9.3c3.4,1.1,1.7,3.5,1,5.3c-2.7,6.6-5.2,13.2-7.1,20.1c-0.9,3.1,0.5,6.3-1.2,9.2 c-3.8-4.4-2.2-10.2-4.2-15.1c-2.6-16.1,2.5-29.5,14-41.1c7.5-7.6,14.6-15.7,18.8-26.3C40.1,417.9,41.3,419.8,42.2,422z"/><path id="XMLID_360_" fill="#ED643B" d="M214.9,473c12.5,2.1,18.9,10.8,23.2,21.7c1.5,3.9,2.4,7.9,3.2,12c1.1,6,4.9,10.8,8.1,15.8 c1.6,2.4,0.5,2.7-1.5,2.8c-6.9-1.8-12.1-6.1-16.4-11.5c-5.5-7.1-10.6-14.4-14.4-22.6c-2.5-5.4-5.3-10.7-9.2-15.8 C210.5,474.5,212.7,473.7,214.9,473z"/><path id="XMLID_359_" fill="#F5EB4D" d="M29,478c6.3-10.6,15.2-17.7,27.1-21.1c3.8-1.1,7.7-1.8,11.6-2.8c1.7-0.5,3.2-0.4,4.7,0.5 c7.9,4.5,15.8,9,23.7,13.5c0,1.9-1.5,2.1-2.7,2.3c-9.2,1.1-18.3,3-27.7,1.9c-2.2,0.4-2.4-4.1-5.2-2.1c-3,3.7-11.4,5-16.5,2.5 c-2.8-2.3-3.6-0.1-4.4,2c-2.2,2.4-5.2,3.1-8,4.3C30.8,479.4,29.1,480.4,29,478z"/><path id="XMLID_358_" fill="#ED643B" d="M103.1,446.3c-1.4,1.6-2.7,0.4-4-0.2c-15.4-7.2-29.6-16.3-42.2-27.7 c-6.3-5.7-7.1-5.7-13.7-0.3c-4.7-7.6-7.2-15.9-10-25.4c7.4,2.4,13.9,4.5,20.4,6.8c0.9,0.3,1.6,1.6,2.1,2.6 c9.4,17.8,24,30.4,41.1,40.4C98.9,443.8,101,445,103.1,446.3z"/><path id="XMLID_357_" fill="#FDFEFE" d="M310.1,108.1c12.2-0.3,20.1,6.4,21.1,17.9c0.7,6.9-4.6,13.2-11.3,13.3c-5,0-7.5-2.9-6-7.4 c1-3.1-0.4-4.5-2.9-5.2c-8.5-2.3-8.5-2.2-8.4-11.1c0-1.1-0.3-2.3,0.4-3.4C304,108.4,307.5,109.1,310.1,108.1z"/><path id="XMLID_356_" fill="#9AA9A5" d="M183.7,333.6c-1.3,1.4-2.5,2.7-4.6,1.3c-6.4-4.2-13.9-5.4-20.9-8 c-41-15.4-82.3-29.7-123.6-44.3c-2.8-1-5.5-1.9-9.3-3.2c4.8-2.1,8.3-0.5,11.8,0.6c24,7.4,47.5,16.2,71,25.4 c23.4,9.1,47.1,17.5,70.9,25.6C180.7,331.5,182.5,331.8,183.7,333.6z"/><path id="XMLID_355_" fill="#FEFEFE" d="M83.7,33.3c-10.6-7.2-5-18.8,3.1-21.8c5.7-2.1,11.5-3,17.3-0.5c4.3,4.4,4.6,8.7,1,12.8 c-1,0.3-1.9,0-2.9-0.1c-6.9-0.8-8.4,0.6-8.4,7.5C91.2,35.6,87.5,34.4,83.7,33.3z"/><path id="XMLID_354_" fill="#757B7A" d="M204.7,404.5c-5.3,3.8-11.7,4.5-17.7,6c-6.3,1.5-12.6,3.1-18.7,5.1 c-2.8,0.9-3.7,0.4-2.8-2.7c2-6.8,3.9-13.7,5.7-20.6c0.7-2.5,1.6-3.3,4.1-1.6c3.4,2.3,7.4,3.6,9.9,7.3c1.6,2.3,4,2.7,6.7,2.3 C197.5,399.2,199.7,400,204.7,404.5z"/><path id="XMLID_353_" fill="#757C7B" d="M206.7,407.6c-9.2,5.9-19.3,9.6-29.6,12.4c-4.2,1.1-8.4,1.9-12.4,3.8 c-1.9,0.9-4.5,1.4-6.2-0.1c-1.5-1.3-0.2-3.4,0.2-5.1c5.5-20.2,12.8-39.9,17.8-60.3c1.3-5.5,2.4-11,3.5-16.6 c0.3-1.3,0.4-2.7,1.5-3.6c0.4-0.4,1.2-0.8,1.7-0.6c0.4,0.1,0.7,1.1,0.7,1.6c-0.2,1.8-0.7,3.6-1.1,5.4 c-5.3,22.9-13.4,44.9-19.1,67.7c-0.2,0.8-0.5,1.6-0.6,2.4c-0.2,1.7-2,3.7-0.2,5.1c1.4,1.1,3.1-0.5,4.6-1.1 c6.2-2.5,12.8-3.7,19.2-5.2C193.5,411.7,200,409.5,206.7,407.6z"/><path id="XMLID_352_" fill="#F4EB4D" d="M192,478.2c1.5-0.3,2.9-0.6,4.4-0.8c9.6-1.6,9.8-1.6,14.5,7.2c5.4,10,10,20.5,17.6,29.2 c2.2,2.5,4.4,4.9,6.5,7.4c-0.7,2.8-2.3,1.1-3.3,0.5c-6.1-3.6-10.9-8.7-16.2-13.2c-1.5-1.3-2.2-2.9-0.8-4.8c0.8-4.6-2.6-1.6-3.9-2.1 c-2.7-1.5-4.4-4-6.2-6.3c-3.7-4.6-7.4-9.3-11.8-13.3C191.7,481.1,189.6,480,192,478.2z"/><path id="XMLID_351_" fill="#EEC43A" d="M29,478c4.1,0.3,6.9-2.5,10.3-4.1c2-0.3,3.5-1.6,5-2.8c1.1,1.6,2.5,2.6,4.5,1.6 c1.6-0.7,3.2-0.8,4.8-0.6c3.4,0.5,5.5-0.7,6.3-4c1.4,1,2.2,2.7,4.1,3c10.2,0.7,20.2-1.4,30.3-2.1c0.6,0,1.1-0.6,1.7-0.9 c2.7,0.5,5.7,0,7.9,2.9c-12.3,2.7-24.5,3.2-36.7,4c-5.6,0.4-11.3,0.7-16.8,1.4c-11.3,1.5-20.8,6.5-27.7,16c-0.3-0.3-0.7-0.5-1-0.8 C24.1,487.1,26.5,482.5,29,478z"/><path id="XMLID_350_" fill="#EEC43A" d="M216,504.1c-0.7,1-2.1,1.7-0.3,3.2c6,5,11.5,10.4,18.2,14.6c0.2,0.1,0.8-0.4,1.2-0.6 c5.9,4.1,11.8,8.2,19.7,7c-3.7,2.9-7.5,2.2-11.3,1.2c-12.9-3.3-22.6-11.6-31.4-21c-4.4-4.7-8.3-9.9-12.4-14.9 c-4.3-5.3-8.9-10.3-16.4-14.4c3.9-0.4,6.3-0.7,8.8-0.9c0,0.6-0.3,1.5,0,1.8c7.7,5.9,12.5,14.3,19.1,21.2 C212.6,502.5,214.6,502.7,216,504.1z"/><path id="XMLID_349_" fill="#BFDEDF" d="M303.1,112.2c0.2,2.6-0.4,5.3,0.5,7.9c1.1,3.2,1.7,6,6.6,5.1c4.8-0.8,7.3,3.8,4.5,7.7 c-1.5,2.2-0.5,2.9,0.9,3.9c5.1,3.4,14.4-1.4,15.4-7.9c0.1-1,0.2-2,0.3-3c1.2,3.7,0.2,7.5,0,11.2c-5.4,11-14.2,12.1-21.7,2.6 c-5.4-6.8-9-14.4-7.7-23.5C302,114.8,301.7,113.2,303.1,112.2z"/><path id="XMLID_348_" fill="#B13E50" d="M112.9,18.6c5.4,10.4,3.3,19.7-4.5,24.4c-8.2,4.9-21.8,1.1-27.9-8.4 c6.6,5.5,13.4,4.9,20.8,1.8C108.9,33.1,113.6,28.6,112.9,18.6z"/><path id="XMLID_347_" fill="#AE3E50" d="M252.2,41.8c-10,6.1-19.7,6.1-28.9-0.8c-5.5-4.2-7.2-13.9-3.9-22.8 c0.3,9.5,4.3,15.5,10.9,19.9C237.1,42.5,244.4,43.5,252.2,41.8z"/><path id="XMLID_346_" fill="#C44A49" d="M240.1,463c0.1,1.5,0.7,2.6,2.1,3.1c3.9,1.5,4.5,5.1,4.9,8.5c0.3,2.9,0.8,6.4-3.2,7.3 c-3.7,0.9-6.9-0.4-8.8-4c-1.1-2.2-2.1-4.5-2-7.1c0.1-1.7-0.2-3.3-1-4.8C234.8,465.1,237.4,464.1,240.1,463z"/><path id="XMLID_345_" fill="#CF5045" d="M117.1,64.1c-3,1-6,2-9,3c1.9-6,1.5-12.2,0.6-18.3c-0.3-2,0-3,1.7-4 c1.8-1.1,2.7,0.1,3.8,1.1c1.6,1.4,3.3,2.7,5,4.1C116.7,54.5,119.4,59.7,117.1,64.1z"/><path id="XMLID_344_" fill="#BFDEDE" d="M237.1,35.2c10.7,3.6,21-3.3,21-14.4c0-2,0-4,0.1-6c1.9,1.7,2.2,4.1,3,6.3c0,2.7,0,5.4,0,8 c-3.8,9.9-13.6,13.6-24.7,9.2c-2.9-1.2-5.7-2.6-7.7-5.2c0.8-0.1,1.8-0.1,2.2-1C233.8,31.8,235.3,33.8,237.1,35.2z"/><path id="XMLID_343_" fill="#AF3E50" d="M299.2,115.4c-0.7,14.9,6.1,24.9,16.9,33.5c-9.7-1.7-16.4-6-19.5-14.9 C294.4,127.9,294.2,121.9,299.2,115.4z"/><path id="XMLID_342_" fill="#D05145" d="M216.3,304.4c-3.6-1.5-7.4-2.9-6.2-8.2c0.4-1.8,0.7-3.8,2.4-4.5c1.8-0.8,2.8,1.2,4.1,2 c0.9,0.6,1.6,1.6,2.3,2.4C218.1,298.9,217.2,301.6,216.3,304.4z"/><path id="XMLID_341_" fill="#57ADC2" d="M93.1,30.2c-1.3-2.7-0.6-4.9,1.6-6.6c3-2.3,6.1-1.9,9.3-0.3c4.4,3,1.9,5.9,0,8.9 c-1,1.1-2.4,1.3-3.7,1.7C97,34.3,94.2,34,93.1,30.2z"/><path id="XMLID_340_" fill="#BEDDDE" d="M103.9,32.2c0.7-3,2.4-5.9,0-8.9c4.6-4,1.7-8.1,0.2-12.3c4.8,0.8,5.6,4.6,6.2,8.4 C111.3,25.2,109.3,29.6,103.9,32.2z"/><path id="XMLID_339_" fill="#BDDADA" d="M93.1,30.2c1.7,2.6,4.8,2.6,7.2,3.7c-5.6,3.2-11.2,3.9-16.5-0.6 C86.9,32.5,91.1,34.8,93.1,30.2z"/><path id="XMLID_338_" fill="#C1484B" d="M270,318.1c0.1-0.7,0.1-1.5,0.2-2.2c1.3,5.5,1.2,11,0,16.4 C270.1,327.6,270.1,322.9,270,318.1z"/><path id="XMLID_337_" fill="#C44A49" d="M248,497.1c-1.5-5-1.5-10,0-14.9C248,487.1,248,492.1,248,497.1z"/><path id="XMLID_336_" fill="#358A9B" d="M298.7,289c10.4,0.7,18.2,6.5,24.7,14.1c2,2.3,1.8,5.5,0.4,8c-1.3,2.3-3.9,1.1-5.9,0.8 c-5-0.7-8.8-3.6-12.4-6.9c-3.5-3.3-7.2-6.3-10.1-10.3c-0.9-1.3-2.2-2.7-1.3-4.5C295.1,288.4,297,289.1,298.7,289z"/><path id="XMLID_335_" fill="#1B1B1F" d="M242.7,166.1c0.8-2.2,0.3-4.4,2.2-5c2.1-0.7,3.4,1.1,4.6,2.4c3.5,3.8,5.6,8.3,6.5,13.3 c0.4,2.4,1,5.4-2.7,6.5c-2.7,0.8-0.8,2.7-0.5,4.1c5.7,24.9-0.1,46.7-18.7,64.3c-13.1,12.4-29.8,17.3-47.3,19.1 c-17.5,1.9-35.3,1.8-51.9-4.1c-33.7-11.9-61.1-32.3-72.5-67.6c-8.6-26.6-5.3-52.7,12.9-75.5c2.3-2.9,5.1-5.3,8-7.5 c2.3-1.8,5.1-2.8,5.3-6.9c0.2-3.6,9.3-8.1,13-7.4c0.2,0,0.4,0,0.5,0.1c7.6,6.8,17.1,3,25.6,4.1c35.3,4.6,67.7,15.7,95.3,38.9 C230.2,151.1,236.7,158,242.7,166.1z"/><path id="XMLID_334_" fill="#211E20" d="M266.2,160.1c-22.7-47.6-61.2-76.5-110-93.8c2.5,0.7,5.1,1.3,7.6,2 c2.7,0.7,5.5,1.4,8.2,2.1c28.7,12.3,53.9,29.5,74.1,53.5c8.7,10.4,16.1,21.6,21,34.3C267.7,159.2,268,160.2,266.2,160.1z"/><path id="XMLID_333_" fill="#F38D54" d="M174.1,62.8c-2.9-1.4-6.1-2.2-9-4.8c5-2.4,9.7-1.5,14,0.2c10.2,4.2,18.5,11.3,26.9,18.3 c0.5,0.5,0.8,1.1,0.1,1.6c-4.1,0-6.9-3-10.2-4.8C188.8,69.5,181.2,66.6,174.1,62.8z"/><path id="XMLID_332_" fill="#F38D54" d="M77.1,248.3c0.4-1.3-0.1-3.6,2.5-3.7c2,0,7.3,7.6,7.1,10.1c-0.2,2.4-1.9,3.3-4.1,3.3 C79,258.2,77.1,254.9,77.1,248.3z"/><path id="XMLID_331_" fill="#382824" d="M174.1,62.8c11.7,3.1,21.6,9.7,32,15.4c2,2.1,5.1,2.8,6.3,5.9c-5.4-3.1-10.7-6.3-16.1-9.3 c-7.1-3.9-14.4-7.4-21.9-10.4C173.4,64,171.4,63.8,174.1,62.8z"/><path id="XMLID_330_" fill="#D15145" d="M260.1,184.9c0.1-1.3-0.3-4.7,2.7-4.9c3.4-0.2,5.1,2.9,5.1,6.1c0,2.5-0.9,5-4.2,5.1 C260,191.2,260,188.6,260.1,184.9z"/><path id="XMLID_329_" fill="#D15145" d="M240.1,325.8c0.1,2.9,0.1,5.4-3.6,5.3c-3.8-0.1-4.2-3.4-4-5.6c0.2-2-0.5-6.1,2.9-5.8 C238,319.9,241,322.1,240.1,325.8z"/><path id="XMLID_328_" fill="#D05145" d="M265.1,208.2c0.2-2.2-0.6-5.7,2.8-5.7c3.3,0,4.7,2.9,4.3,6.4c-0.2,2.5,0.1,5.2-3.6,5.1 C264.4,214,265.2,210.9,265.1,208.2z"/><path id="XMLID_327_" fill="#D15145" d="M250.1,241.6c0.3-2.1-0.8-5.3,2.8-5.2c3.4,0.1,4.5,2.7,4.3,6c-0.2,2.9-0.7,5.8-4.1,5.5 C249.5,247.6,250.2,244.2,250.1,241.6z"/><path id="XMLID_326_" fill="#4D2F28" d="M266.2,160.1c0.8-0.4,0.8-1.2,0.9-2c5.6,11.9,8.9,24.4,11.7,37.2 c-3.2-6.5-4.3-13.7-7.6-20.2C269.5,170.1,267.8,165.1,266.2,160.1z"/><path id="XMLID_325_" fill="#F38B52" d="M53.5,220c-1.9-0.6-4.3-1.1-4.7-3.5c-0.2-1.2,1.4-2.2,2.8-2.3c2.3-0.2,3.8,1,4.3,3.2 C56.2,218.9,55.1,219.8,53.5,220z"/><path id="XMLID_324_" fill="#F38C53" d="M70.1,271.1c-2.8,1.9-5,0.4-6.9-1.5c-1.3-1.3-0.1-1.9,0.9-2.5 C67.9,265.7,69.9,267.1,70.1,271.1z"/><path id="XMLID_323_" fill="#F38C53" d="M46.9,188.3c1.7,0.5,3.7,0.9,4,3.1c0.2,1.6-0.8,2.7-2.3,2.6c-2-0.1-4.2-1-4.7-3 C43.4,189,45.8,189.2,46.9,188.3z"/><path id="XMLID_322_" fill="#F38C53" d="M65.3,229c-1.3-0.6-3.6-0.7-3.8-2.9c-0.1-1.5,1.3-2.8,2.9-2.6c1.7,0.3,3.5,1.1,3.6,3.4 C68.1,228.6,67.1,229.2,65.3,229z"/><path id="XMLID_321_" fill="#F38C53" d="M68.1,246.6c-0.1,1.8-0.5,3.3-2.1,3.1c-2-0.2-4-1.3-4.4-3.4c-0.4-1.6,1.2-2.2,2.6-2.2 C66,244.3,67.5,245,68.1,246.6z"/><path id="XMLID_320_" fill="#F38C53" d="M47.4,160.4c0.1-2,1.7-2.4,3.1-2.8c1.8-0.5,2.4,0.8,2.6,2.2c0.2,1.7-0.5,3.1-2.3,3.2 C49,163.1,48.1,161.8,47.4,160.4z"/><path id="XMLID_319_" fill="#262222" d="M92.4,364.5c-2-0.3-3.1-1.6-4.1-2.9c-2.1-2.6-4.3-3.2-7.4-1.8c-1.9,0.8-4.2,2.2-6,0 c-1.6-2-0.6-4.3,0.7-6c2-2.7,1.2-4-1.4-5.3c-1.4-0.7-2.6-1.7-2.1-3.5c0.5-1.7,2.2-2.2,3.6-2.1c4.7,0.4,8.6-0.6,11.7-4.8 c2-2.7,4.9-1.6,5.5,1.5c0.9,4.6,2.3,7.8,7.4,9.1c3.2,0.8,1.4,3.5-0.7,4c-4.4,1-5.3,3.7-4.9,7.6C95,362.2,94.7,364.1,92.4,364.5z"/><path id="XMLID_318_" fill="#282E31" d="M298.1,410.2c0.7-15.7-0.9-31.2-2.8-46.8c-1.2-9.4-0.2-19,1.7-28.3 c0.4-2.2,0.9-4.5,2.6-6.7c0.2,0.6,0.6,1,0.5,1.3c-4.8,17.1-3,34.3-0.7,51.5c1.8,13.1,1.2,26.2-0.2,39.4 C296.9,417.3,299.9,413.4,298.1,410.2z"/><path id="XMLID_317_" fill="#242425" d="M298.1,410.2c2.1,3.3,0.2,7,1.2,10.3c-0.2,19.6-6.1,37.1-17.3,49.1 C294.8,451.8,297.1,431.1,298.1,410.2z"/><path id="XMLID_316_" fill="#C1484B" d="M268.1,327.1c-6.9,1.8-11.6-1.7-12.9-9.5c-0.2-1.1-0.2-2.3-0.1-3.5 c0.1-1.9-0.8-4.2,1.3-5.5c2.3-1.3,3.8,0.9,5.7,1.8c3.5,1.6,6.1,3.7,7,7.7C268.9,321.1,269.8,324.3,268.1,327.1z"/><path id="XMLID_315_" fill="#57ADC2" d="M237.1,35.2c-2.6,0.2-4.2-1.7-6-3c-1.1-3.3-2.6-7,1.3-9.4c2.6-1.6,5.8-1.4,8.3,0.8 c2,1.8,1.6,2.8-1.2,2.6c-1.9,0.2-3.9-1.7-5.5,0.5c-0.8,1-0.5,2.2,0.2,3.3c1.7,2.6,3.9,0.6,5.9,0.5c2.3-0.5,2.6,0.6,1.6,2.2 C240.6,34.2,238.8,34.8,237.1,35.2z"/><path id="XMLID_314_" fill="#272627" d="M240,30.4c-1.6,2.9-4,3-6.2,1.2c-1.8-1.5-2.7-4.3-0.9-6.2c2.1-2.3,4.7-2.1,6.6,0.8 C238.1,27.8,238.2,29.2,240,30.4z"/><path id="XMLID_313_" fill="#D15245" d="M225.4,498.6c-0.2-3.1,0.6-4.7,2.3-4.3c3.7,0.9,5.8,3.4,6.3,7.3c0.2,1.9-0.5,3.2-2.6,3.4 C228.6,505.4,225.5,501.5,225.4,498.6z"/><path id="XMLID_312_" fill="#3A3329" d="M74,460.6c1.7,0.2,3.2,0.7,3.2,2.8c0,1.9-1.2,3-3.1,3.1c-2,0.1-3.7-0.9-3.7-3 C70.4,461.4,72.1,460.8,74,460.6z"/><path id="XMLID_311_" fill="#2E2824" d="M55,465c-1.7-0.3-2.7-1.3-2.8-2.9c-0.1-2.1,1.5-2.3,3-2.3c1.3,0,2.8,0.3,2.9,2 C58.1,463.7,56.6,464.5,55,465z"/><path id="XMLID_310_" fill="#3D352A" d="M44.3,471.1c-0.2,3.7-2,4.4-5,2.8C38.6,468.7,40.9,469,44.3,471.1z"/><path id="XMLID_309_" fill="#382F27" d="M64.1,471.1c-4,2.6-4.1-0.2-4.1-3C63.5,466.1,63.8,468.7,64.1,471.1z"/><path id="XMLID_308_" fill="#2C292A" d="M182.7,399.2c2.1,0.6,4.3,1.2,4.2,4c-0.1,1.9-1.4,3.1-3.3,2.8c-2.1-0.4-4.3-1.2-4.2-4 C179.3,399.9,180.7,399.2,182.7,399.2z"/><path id="XMLID_307_" fill="#2E2A2B" d="M171.9,410.1c-1.3-0.1-2.8-1.3-2.8-3.9c0-1.7,0.8-3.3,2.5-3.1c2.5,0.3,4,2.2,4.4,4.6 C176.3,409.7,174.9,410.2,171.9,410.1z"/><path id="XMLID_306_" fill="#3C342B" d="M205.9,483.6c-0.2,1.7-1.1,2.7-2.8,2.8c-1.6,0-3-0.6-3-2.4c0-1.7,1.1-2.7,2.8-2.8 C204.6,481,205.7,481.8,205.9,483.6z"/><path id="XMLID_305_" fill="#443B29" d="M216,504.1c-2.6,0.6-4.5,0.1-4.9-3c1.2-1.2,2.4-2.5,4.2-1.3 C217.1,501,217.1,502.5,216,504.1z"/><path id="XMLID_304_" fill="#27282A" d="M310.6,133.2c-2.5-0.4-3.9-1.5-4-3.6c-0.1-2.3,1.4-3.2,3.5-3.2c1.7,0,3.9,0.6,3.7,2.4 C313.6,130.5,311.6,131.9,310.6,133.2z"/><path id="XMLID_303_" fill="#252526" d="M102.3,26.7c0.7,2.8-1.1,3.5-3.2,3.7c-1.7,0.1-3.6-0.3-3.7-2.3c-0.1-2.2,1.2-3.6,3.6-3.8 C100.3,24.7,101.2,25.8,102.3,26.7z"/><path id="XMLID_302_" fill="#BEDDDE" d="M102.3,26.7c-2.3,0.7-3-0.6-3.3-2.5c0.7-1.1,1.7-1.6,2.9-0.9 C103.3,24.2,103,25.5,102.3,26.7z"/><path id="XMLID_301_" fill="#FBCD47" d="M63.1,192.1c-1.9-6.2-2.3-12.6-1.8-19c1.2-7.7,1.7-15.5,6.1-22.4c1-1.5,1.4-3.5,3.5-3.9 c1.8,1.2,1.8,3.1,1.8,4.9c-0.2,18.7,19.8,23.2,32.3,15.1c6.8-4.3,11.2-10.7,14.1-18.1c5.9-10.8,5.1-15.8-3.9-24 c-1.2-1.1-2.7-2-2.5-4c0.9-1.9,2.7-1.6,4.3-1.5c25.4,2,50,7.2,73,18.3c14,6.7,26.8,15.3,38.4,25.7c1.4,1.3,3.2,2.6,2.8,4.9 c-2.4,1.4-4.1-0.5-5.9-1.5c-4.3-2.5-8.7-5-13.5-6.4c-8.7-2.5-15.1,0.7-18.2,9.3c-1.4,3.8-2.3,7.7-2.2,11.7c0.3,7.9-1.4,16,1.6,23.7 c1,2.6,2.1,5.2,3.6,7.7c8.1,13.4,24.7,15,35.5,3.3c0.7-0.7,1.3-1.5,1.9-2.3c5.7-4.4,8.8-10.2,8.8-17.6c0.1-2.8-0.9-5.3-1.5-7.9 c-0.3-1-0.4-2-0.4-3.1c0-1.1,0.2-2.1,0.9-2.9c2.4-0.8,3.2,1.3,4.2,2.7c2.6,3.9,4.6,8.1,5.6,12.7c-0.3,13.6-5.8,25.1-14.7,35.2 c-12.4,14.1-28.8,20.5-46.9,23.3c-21.4,3.4-43,2.5-63-5.4c-25.5-10-46.4-26.6-60.5-50.8C65.1,197.4,64.1,194.8,63.1,192.1z"/><path id="XMLID_300_" fill="#EEB336" d="M63.1,192.1c7.1,11.4,14.1,23,24.4,31.9c13,11.2,26.6,22.1,43.3,26.7 c28.6,8,57.5,8.9,85.1-3.9c16.9-7.8,28.4-21.2,33.1-39.6c0.9-3.3,2.7-6.5,2-10.2c-0.5-1.3-0.9-2.7,0.2-3.9 c5.9,23.6-8.3,53-31.6,65.6c-12.3,6.7-25.5,9.4-39.3,10.1c-11.3,0.6-22.7,0.4-33.8-2.1c-37.4-8.4-64.9-29.4-80.8-64.7 C64.3,199,63.1,195.7,63.1,192.1z"/><path id="XMLID_299_" fill="#F8DC80" d="M251.3,193.2c-0.1,1.3-0.2,2.6-0.2,3.9c-2.9-5-4.4-10.9-8.9-15.1c-3.8-4.5-9-8-11.1-13.9 c-8.1-9.2-18.1-15.9-28.4-22.3c-21.3-13-44.7-20-69.1-23.6c-6-0.9-12.2-1-18.2-2.1c-0.9-0.2-1.6,0.2-2.2,0.9 c-0.6,0.6-1.3,0.7-2.1,0.7c-3.5-0.4-6.8-1.4-10.1-2.6c-5.2-1.8-9.7-0.4-13.8,3.1c-6.4,5.6-10.8,12.4-13,20.7 c-0.6,1.7-1.1,3.4-3.1,4.1c-5.3,7-7.3,15.3-9,23.7c-0.2,0.8-0.5,1.5-0.8,2.3c0.2-23.3,6.7-43.7,27.2-57.3 c10.7-7.1,22.5-8.8,35.3-7.4c20.4,2.2,40.1,6.6,58.8,14.8c21.2,9.2,40,22,54.6,40.1C244.2,172.1,249.5,181.9,251.3,193.2z"/><path id="XMLID_298_" fill="#F6C946" d="M91.3,341.1c1,4.3,1.2,9.2,7.9,8.9c-2.1,2.5-5.7,1.5-6.4,4.7c-0.5,2.2,0.8,4.6-0.4,6.7 c-1.1,0.5-1.7-0.3-2.1-0.9c-2.5-3.8-5.7-4.7-9.8-2.7c-1.1,0.5-2.6,1.6-3.6,0.3c-0.8-1.1,0-2.6,0.8-3.6c2.3-2.8,1.9-5.1-1-7.1 C82.6,347.7,86.4,343.3,91.3,341.1z"/><path id="XMLID_297_" fill="#F1D879" d="M91.3,341.1c-0.4,0.2-1.1,0.4-1.3,0.7c-2.9,5.6-7.6,6.9-13.3,5.5c-0.8-0.2-1.8-0.4-1.9-1.3 c-0.2-1.2,1.1-1.2,1.7-1.1c5,0.7,9-0.6,12-5C89.7,338.1,91,339,91.3,341.1z"/><path id="XMLID_296_" fill="#231F20" d="M159.6,254.1c-4.7,1-10.5-1.4-16.3-3c-29.6-8.1-52.2-24.5-63.2-54.3 c-1-2.6-1.7-5.4-2.5-8.1c-0.3-1-0.7-2.1,0.4-2.7c1.1-0.6,1.9,0.3,2.6,1c9.9,9.5,22.3,15.1,34.3,21.2c25.1,12.6,50.8,24.1,77,34.3 c1.6,0.6,4.3,0.5,4.4,2.5c0,2.1-2.6,2.8-4.3,3.7C182.2,253.2,171.7,253.6,159.6,254.1z"/><path id="XMLID_295_" fill="#EFB437" d="M231,168.2c3.7,4.6,8.7,8.2,11.1,13.9c-0.1,1.1-0.2,2.3-0.3,3.4c-2.6-0.6-3.5-3-4.9-4.7 c-4.1-4.9-8.6-9.1-14.5-12c-6.2-3-11.8-2.2-17.5,1.3c-10.7,6.6-14.6,21.5-8.4,32.4c0.8,1.5,1.7,3,3.2,3.8 c8.7,5.1,17.4,9.7,28.1,8.6c2.4-0.2,4.6-2.5,7.1-0.8c-6.6,9.6-16.1,12.4-27,10.7c-8.3-1.3-11.5-8.6-14.5-15.1 c-6-12.9-4.9-26.5-1.4-39.7c2.8-10.7,10.6-14,21.2-10.7C219.8,161.3,225,165.6,231,168.2z"/><path id="XMLID_294_" fill="#EEB337" d="M71.1,147.1c0.7-1.3,1.3-2.7,2-4c0.6-0.8,1.2-1.8,2.4-0.8c0.3,0.4,0.5,0.9,0.6,1.3 c1.9,11.3,11.5,19,22.8,18.1c6.8-0.6,11.8-4.8,16.4-9.4c1.1-1.2,1.8-2.8,3.4-3.5c0.5-0.2,1-0.1,1.4,0.2 c-4.4,11-10.9,19.5-23.3,22.3c-13.8,3.1-25.1-5.3-25.5-19.4C71.2,150.4,71.2,148.8,71.1,147.1z"/><path id="XMLID_293_" fill="#201C1D" d="M235.1,214.1c-13.6,5.8-25.2,0.2-35.9-7.1c-5.9-4-7.4-11-6.8-17.9 c0.9-9.6,5.9-16.8,14.3-21.5c4.5-2.5,9-2.8,13.9-1c9.6,3.5,16,10.4,21.3,18.8c0.1,0.9,0.2,1.7,0.3,2.6c0.5,1.1,0.6,2-0.8,2.4 c-3.9-4.2-6-9.9-10.8-13.5c-1.3-1-2.4-2.3-3.8-3.3c-6.5-4.2-13.3-6.6-20.4-1.5c-7.4,5.4-12,12.3-10.5,22.1 c1,6.3,4.8,10.3,10.3,13.1c2.8,1.4,5.7,2.7,8.6,3.8c12.7,4.7,21.5,0.7,26.4-11.8c0.7-1.2,0.7-3.1,2.7-3 C244.2,203.8,241.2,209.7,235.1,214.1z"/><path id="XMLID_292_" fill="#EDB337" d="M120.1,149.1l-0.4,0l-0.4,0c-0.7-0.6-1-1.4-0.8-2.2c2.8-10.7-5-15.6-14.8-19.6 c-2.9-1.2-6.4,0.1-8.9-2.5c4.6-4.6,10.3-4.7,16.2-3.8c0.7,0,1.3,0,2,0c0.5,1.4,1.9,1.8,2.9,2.6 C125.3,130.9,126.7,139.3,120.1,149.1z"/><path id="XMLID_291_" fill="#FAE49C" d="M147.1,180c-1.9-0.1-3.6-1-3.7-3.1c-0.2-2.3,1.7-3.9,3.5-4.3c2-0.4,3.1,1.6,3.2,3.6 C150.2,178.3,149.6,179.9,147.1,180z"/><path id="XMLID_290_" fill="#FBE6A3" d="M167,157.4c2.1,0.7,2.1,2.4,2.2,4c0.1,2.2-1,3-3.1,2.8c-1.7-0.2-3.1-0.8-2.9-2.7 C163.5,159.4,165.2,158.2,167,157.4z"/><path id="XMLID_289_" fill="#FAE59F" d="M184.8,147.5c1.6,0.2,2.2,1.3,2.3,2.7c0.1,1.8-0.3,3.4-2.3,3.7c-1.8,0.2-2.6-1.1-2.6-2.8 C182.1,149.2,183.2,148.1,184.8,147.5z"/><path id="XMLID_288_" fill="#FAE49B" d="M148.3,155c-1.4,0.1-2.1-0.4-2-1.4c0.2-1.6,1.1-2.7,2.6-3.1c1.1-0.3,1.9,0.6,1.8,1.7 C150.5,153.8,149.2,154.5,148.3,155z"/><path id="XMLID_287_" fill="#FAE399" d="M170,184c-1.2,0-1.9-0.5-1.8-1.4c0.1-1.6,1.2-2.7,2.6-3.1c1.1-0.3,1.9,0.6,1.8,1.7 C172.5,182.8,171.3,183.7,170,184z"/><path id="XMLID_286_" fill="#FAE49D" d="M124.6,185.8c-1.3,0.1-2.1-0.5-1.9-1.4c0.2-1.5,0.9-2.9,2.6-3.2c1-0.2,1.6,0.4,1.6,1.4 C126.9,184.4,125.6,185.1,124.6,185.8z"/><path id="XMLID_285_" fill="#FAE398" d="M157.3,196.4c1.1,0.4,1.8,1.1,1.4,2.2c-0.5,1.2-1.3,2.4-2.8,2.3c-1.1-0.1-1.8-1-1.4-2.1 C155,197.5,155.9,196.5,157.3,196.4z"/><path id="XMLID_284_" fill="#FAE49D" d="M140,140.7c-1.4-0.3-2.3-1.3-2.7-2.5c-0.4-1.1,0.1-2,1.4-1.9c1.5,0.1,2.3,1.1,2.4,2.6 C141.1,139.7,141.1,140.5,140,140.7z"/><path id="XMLID_283_" fill="#FAE59E" d="M121.1,167.4c-0.1,1.2-0.7,2.3-2.2,2.6c-1,0.2-1.7-0.3-1.7-1.3c0-1.7,1.1-2.8,2.6-3.2 C120.8,165.3,121.1,166.3,121.1,167.4z"/><path id="XMLID_282_" fill="#544328" d="M241.4,190.2c0.3-0.7,0.5-1.4,0.8-2.2c1.3,2.6,1.9,5.3,1.8,8.2c-0.6,1-1.2,2-1.7,3 c-2.3-2.2-1.1-5.1-1.6-7.7C240.6,190.9,240.9,190.5,241.4,190.2z"/><path id="XMLID_281_" fill="#FAE49C" d="M168.7,143.9c-1.4-0.6-2.6-1.6-3-3c-0.3-0.9,0.6-1.6,1.5-1.4c1.6,0.3,2.6,1.5,2.7,3.1 C170,143.2,169.6,143.8,168.7,143.9z"/><path id="XMLID_280_" fill="#FAE7A6" d="M135,201.1c0.1,1.1-0.2,1.9-1.2,1.7c-1.1-0.2-2-1.1-2.4-2.2c-0.4-1.1,0.4-1.5,1.3-1.5 C134,199.2,134.7,200,135,201.1z"/><path id="XMLID_279_" fill="#EEBB52" d="M111.1,121.1c-5.6,0-10.8,1.9-16,3.8c-0.4,1-1.3,1.4-2.3,1.7c-7.3,2.5-13.4,6.2-16,14 c-0.3,0.8-1,1.3-1.8,1.5c-0.6,0.3-1.3,0.7-1.9,1c1.9-9.9,7.7-17.5,15.5-23.5c3.4-2.6,7.8-3.4,12.3-1.8 C104.2,119.1,107.7,120,111.1,121.1z"/><path id="XMLID_278_" fill="#C3E1E1" d="M103.1,210.1c-0.7-0.6-1.3-1.3-2-1.9c-4.9-1.9-9.4-4.6-14.1-6.8c-2.7-2.2-3.5-5.4-5.1-9.3 c31.9,20.3,65.9,34.3,99.9,49.1c-6,4.5-8.5,4.3-12.1-0.8c-1.2-1.8-2.4-2.6-4.5-2.2c-4.3,0.2-7.6-2.3-11-4.2 c-6.8-3.7-14.2-6.4-21.2-9.5C122.9,220,112.9,215.1,103.1,210.1z"/><path id="XMLID_277_" fill="#FAFBF9" d="M103.1,210.1c4.2-1.2,7,2.1,10.1,3.8c10,5.3,20.5,9.2,30.6,14.1 c7.1,3.5,14.3,6.8,21.4,10.2c-7.3,2.9-12.5,1.4-17.2-5.1c-0.8-1.1-1-3.1-3.2-2.3c-7.4,2.6-12.9-1.2-17.6-5.9 c-3.1-3-5.6-4.8-10.3-5.2C111.1,219.3,106.6,214.9,103.1,210.1z"/><path id="XMLID_276_" fill="#EBEBE5" d="M87,201.3c5.6,0.5,10,3.3,14.1,6.8C95.3,208,90.5,206.1,87,201.3z"/><path id="XMLID_275_" fill="#251F1E" d="M75,142.1c3.1-9.9,10.1-15.3,20.1-17.2c5.2,0.1,10.1,1,14.7,3.7c9.9,5.7,11.6,9.4,9.5,20.6 c-5.9,8.7-13.5,15.1-24.7,13.7C85.8,161.8,72.8,154.7,75,142.1z"/><path id="XMLID_274_" fill="#FFF" d="M241.4,190.2c-0.1,0.3-0.2,0.5-0.2,0.8c1.2,6.5-2.2,10.9-7.2,13.9 c-5.6,3.4-11.7,5.6-18,1.1c-0.5-1-0.3-1.9,0.1-2.9c1.3-2.8,0.9-5.4-1.7-7c-2.7-1.6-5.4-1.1-7.3,1.7c-2.5,4.6-3.8,4.8-7.8,1.6 c-1.8-1.5-2.9-3.5-4.3-5.3c-1.9-10.1,3-17.3,10.5-23c6.7-5.1,13.6-3.9,20.4,0.3C233,176,238.5,182,241.4,190.2z"/><path id="XMLID_273_" fill="#C0DFDF" d="M194.9,194.1c1.6,1.4,3.2,2.7,4.7,4.1c4,3.6,4.3,3.6,6.4-1.1c0.1,0.1,0.3,0.2,0.3,0.3 c0.9,5.5,4.2,7.9,9.7,7.7c10.8,5.4,23.9-2.1,25-14.2c1.5,2.6,0.5,5.5,1.1,8.2c-3.1,12-11.5,17.2-23.6,14.3 c-5.9-1.4-11.4-3.8-16.4-7C197.8,203.8,195.3,199.5,194.9,194.1z"/><path id="XMLID_272_" fill="#FEFEFE" d="M78.1,141.1c2.7-8.2,10.9-14.3,19.6-13.8c8,0.5,14.9,3.8,19.6,10.6c1,3-0.1,5.4-2.2,7.6 c-3.6,3.7-7.7,6.7-12.6,8.6c-2.7,1-4.9,0.7-5.8-2.4c-1.3-1.3-2.7,0.8-4-0.1c-1.2-0.7-1.5-1.7-1.2-3c0.1-0.3,0.3-0.7,0.6-0.7 c0.7,0.1,0.9-0.2,0.3-0.2c-2.3,0.3-4.3,1.5-6.3,2.4C79.5,150.1,77.2,147.4,78.1,141.1z"/><path id="XMLID_271_" fill="#C0DFDF" d="M78.1,141.1c0.3,5.5,3.1,8.3,8.1,8c0.8,0.7,1.1,1.6,1.3,2.6c0.4,2.2,2.1,2.8,4,3 c1.9,0.2,3.6-0.3,4.3-2.3c0.3-0.9,0.6-1.9,1.6-2.4c0.7,3.5,2.7,4.4,5.7,2.6c6-3.6,13-6.4,14.2-14.7c1.8,6,1,11.4-4,15.7 c-10.9,9.5-20.2,9.7-31.7,0.8C77.4,151.2,76.3,147.1,78.1,141.1z"/><path id="XMLID_270_" fill="#58AFC5" d="M216.1,205.2c-7.1,2.2-9.8,0-10-8c2.4-4,5.9-4.5,9.2-1.9 C218.9,197.9,219.1,201.6,216.1,205.2z"/><path id="XMLID_269_" fill="#57AABF" d="M97.3,150c0.1,3.9-1.3,6.5-5.8,6.1c-4.3-0.3-6.1-2.7-5.4-7c1.6-1.6,3.4-2.6,5.8-2.1 c1,0.2,0.6,0.9,0,1.4c-1.2,1.2-3.3,2.2-1.4,4.2c1.3,1.4,2.2,0.1,2.9-1.1c0.7-0.4,1.6-0.4,1.8-1.4C95.8,146.7,96.6,149.4,97.3,150z"/><path id="XMLID_268_" fill="#27282A" d="M93.4,151.6c1.1,0.6,2.1,1.3,0.6,2.4c-1.6,1.2-3.4,1.2-4.9-0.3c-1.2-1.2-1.6-2.5-0.7-4 c0.8-1.2,2.1-1.4,3.5-1.2C92,149.7,91.9,151,93.4,151.6z"/><path id="XMLID_267_" fill="#252223" d="M214.5,202.3c-2.1,1.8-4,1.5-5.3-0.8c-0.8-1.3-0.9-3.1,0.4-4.1c1.8-1.6,3.6-1.5,4.9,0.7 C214.8,199.5,214.8,200.9,214.5,202.3z"/><path id="XMLID_266_" fill="#E0E6E6" d="M214.5,202.3c-1.5-1.4-1.8-2.8-0.1-4.2c1.5,0.3,2.8,0.9,2.6,2.7 C216.9,202.3,215.5,202.2,214.5,202.3z"/></g></svg>