<?xml version="1.0" encoding="utf-8"?>
<!-- Generator: Adobe Illustrator 19.0.0, SVG Export Plug-In . SVG Version: 6.00 Build 0)  -->
<svg version="1.1" id="Layer_1" xmlns="http://www.w3.org/2000/svg" xmlns:xlink="http://www.w3.org/1999/xlink" x="0px" y="0px"
	 viewBox="-211.6 405.8 30.1 30" style="enable-background:new -211.6 405.8 30.1 30;" xml:space="preserve">
<style type="text/css">
	.st0{fill:#375DAB;}
</style>
<g>
	<g>
		<path class="st0" d="M-193.8,427.9c-0.7,0.3-1.4,0.4-2.2,0.5c-3.7,0.3-7.1-2.2-7.9-5.9c0-0.2-0.1-0.4-0.2-0.5
			c-1.3-2.2-2.6-4.5-3.9-6.7c-0.4-0.7-0.9-1.5-1.3-2.2h-0.1c-0.1,0.1-0.1,0.2-0.2,0.3c-1.8,3.2-2.4,6.6-1.7,10.2
			c1.2,6.3,6.2,11.1,12.6,12.1c0.2,0,0.4,0,0.5-0.2c1.4-2.4,2.8-4.8,4.2-7.3C-193.9,428.2-193.8,428.1-193.8,427.9z M-182.6,415.2
			c0-0.2-0.2-0.3-0.4-0.3c-1.4,0-2.9,0-4.3,0c-1.4,0-2.9,0-4.4,0c0.1,0.1,0.2,0.2,0.3,0.3c3.4,2.9,3.4,8.2,0.1,11.2
			c-0.2,0.1-0.3,0.3-0.4,0.5c-1.5,2.6-3,5.2-4.5,7.8c-0.2,0.3-0.4,0.7-0.6,1c0.1,0.1,0.2,0.1,0.2,0.1c1.4,0,2.7-0.2,4-0.5
			c6.1-1.6,10.5-6.9,11.1-13C-181.3,419.9-181.7,417.5-182.6,415.2z M-206.5,415c0.9,1.5,1.7,2.9,2.6,4.4c0-0.1,0.1-0.2,0.1-0.3
			c1-4.1,5-6.6,9.2-5.6c0.4,0.1,0.8,0.2,1.2,0.2c3.4,0,6.7,0,10.1,0c0.1,0,0.2,0,0.3-0.1c-0.1-0.1-0.1-0.3-0.2-0.4
			c-3.3-5.5-9.6-8.3-15.9-7.1c-3.7,0.7-6.6,2.6-9,5.4c-0.2,0.2-0.2,0.3,0,0.6C-207.6,413.1-207.1,414.1-206.5,415z M-202.6,420.7
			c0,3.4,2.7,6.1,6.1,6.1c3.4,0,6.2-2.7,6.2-6.1c0-3.3-2.8-6.1-6.1-6.1C-199.8,414.6-202.6,417.4-202.6,420.7z"/>
	</g>
</g>
</svg>
