<?xml version="1.0" encoding="utf-8"?>
<svg version="1.1" id="Layer_1" xmlns="http://www.w3.org/2000/svg" xmlns:xlink="http://www.w3.org/1999/xlink" x="0px" y="0px"
	 viewBox="-417.7 803 47 39" style="enable-background:new -417.7 803 47 39;" xml:space="preserve">
<g>
	<path fill="currentColor" class="st0" d="M-389.8,830.1c0.1-3.2,0-6.3,0-9.5c0-3.6-2.8-6.4-6.3-6.5c-3.3,0-6.6,0-9.9,0c-0.4,0-0.6-0.1-0.6-0.6
			c0-3.5,0-6.9-0.1-10.5c-3.5,0-7,0-10.5,0c-0.4,0-0.5,0-0.5,0.5c0.1,11,0,22,0,33c0.3,0,0.6,0,0.9,0c6.8,0,13.6,0,20.4,0
			C-392.7,836.5-389.8,833.7-389.8,830.1z M-371,836.5c-6.1,0-12.2,0-18.3-0.1c-0.4,0-0.5,0.1-0.5,0.5c0.1,1.7,0,3.4-0.1,5.1
			c6.3,0,12.7,0,18.9,0c0.3,0,0.3-0.1,0.3-0.4c-0.1-1.7,0-3.5,0-5.2C-370.7,836.5-370.9,836.5-371,836.5z"/>
</g>
</svg>
