<svg xmlns="http://www.w3.org/2000/svg" xmlns:xlink="http://www.w3.org/1999/xlink" preserveAspectRatio="xMidYMid" width="31" height="32" viewBox="0 0 31 32">
	<path d="M30.902,17.974 C30.695,20.506 29.842,22.848 28.429,24.956 C25.954,28.648 22.542,30.926 18.188,31.758 C17.599,31.870 17.000,31.889 16.412,32.000 C15.791,32.000 15.171,32.000 14.551,32.000 C14.345,31.905 14.123,31.949 13.909,31.925 C11.129,31.614 8.581,30.674 6.342,28.980 C2.408,26.005 0.268,22.023 -0.007,17.071 C-0.169,14.169 0.499,11.434 1.866,8.870 C2.090,8.451 2.261,7.995 2.185,7.497 C2.006,6.338 2.066,5.193 2.388,4.065 C2.497,3.680 2.622,3.300 2.851,2.930 C2.919,3.092 2.967,3.218 3.024,3.340 C3.385,4.125 3.856,4.823 4.542,5.363 C4.800,5.565 5.084,5.645 5.385,5.555 C6.388,5.258 7.392,5.361 8.396,5.519 C8.730,5.571 8.985,5.479 9.194,5.226 C9.326,5.066 9.454,4.903 9.583,4.740 C9.985,4.233 10.418,3.760 10.978,3.423 C11.196,3.292 11.419,3.170 11.719,3.122 C11.253,4.157 10.976,5.183 11.412,6.256 C11.865,7.368 12.808,7.838 13.908,8.074 C13.827,8.298 13.706,8.468 13.580,8.632 C12.698,9.785 11.628,10.721 10.361,11.423 C9.330,11.994 8.756,13.175 8.906,14.434 C9.029,15.462 9.820,16.278 10.986,16.565 C11.918,16.794 12.857,16.695 13.793,16.594 C14.768,16.490 15.739,16.313 16.726,16.434 C16.935,16.460 17.150,16.478 17.343,16.644 C16.617,17.055 15.997,17.578 15.326,18.026 C14.876,18.327 14.398,18.565 13.869,18.697 C12.997,18.915 12.147,18.784 11.299,18.559 C10.908,18.455 10.584,18.578 10.414,18.882 C10.238,19.198 10.312,19.561 10.612,19.838 C10.873,20.078 11.162,20.279 11.472,20.447 C13.608,21.607 15.898,22.157 18.317,22.151 C20.578,22.146 22.525,21.393 24.019,19.616 C24.597,18.929 25.085,18.183 25.473,17.374 C26.937,14.318 27.156,11.125 26.494,7.838 C26.247,6.611 25.850,5.431 25.350,4.284 C25.322,4.219 25.222,4.136 25.321,4.068 C25.404,4.009 25.469,4.101 25.532,4.151 C25.557,4.171 25.579,4.192 25.602,4.213 C29.614,7.923 31.345,12.538 30.902,17.974 ZM23.852,17.308 C23.664,17.642 23.444,17.960 23.219,18.270 C22.059,19.877 20.466,20.633 18.516,20.687 C17.129,20.725 15.780,20.512 14.357,20.091 C15.661,19.729 16.591,18.902 17.601,18.207 C17.943,17.971 18.311,17.787 18.707,17.656 C19.199,17.493 19.378,17.064 19.164,16.587 C18.703,15.555 17.867,15.061 16.786,14.936 C15.851,14.828 14.930,14.986 14.007,15.090 C13.206,15.180 12.407,15.311 11.598,15.193 C11.526,15.183 11.454,15.173 11.384,15.156 C10.755,15.002 10.403,14.676 10.338,14.191 C10.260,13.612 10.583,12.974 11.088,12.691 C12.505,11.895 13.723,10.862 14.707,9.558 C15.097,9.041 15.399,8.474 15.516,7.823 C15.651,7.067 15.390,6.730 14.631,6.677 C14.238,6.649 13.850,6.585 13.488,6.418 C12.779,6.090 12.510,5.472 12.712,4.620 C12.861,3.992 13.177,3.445 13.549,2.927 C14.015,2.278 13.790,1.738 13.007,1.609 C11.629,1.383 10.464,1.832 9.443,2.739 C9.069,3.071 8.738,3.443 8.432,3.837 C8.352,3.940 8.281,4.024 8.130,4.002 C7.465,3.908 6.797,3.885 6.025,3.944 C6.317,3.673 6.533,3.458 6.763,3.259 C8.924,1.397 11.413,0.313 14.251,0.054 C14.331,0.047 14.409,0.018 14.489,-0.000 C15.109,-0.000 15.729,-0.000 16.350,-0.000 C16.976,0.120 17.614,0.164 18.239,0.306 C19.703,0.639 21.072,1.199 22.350,1.992 C22.479,2.073 22.566,2.179 22.644,2.304 C23.970,4.400 24.907,6.650 25.248,9.124 C25.645,11.997 25.289,14.750 23.852,17.308 Z" fill="currentColor" fill-rule="evenodd"/>
</svg>