<?xml version="1.0" encoding="utf-8"?>
<!-- Generator: Adobe Illustrator 19.0.0, SVG Export Plug-In . SVG Version: 6.00 Build 0)  -->
<svg version="1.1" id="Слой_1" xmlns="http://www.w3.org/2000/svg" xmlns:xlink="http://www.w3.org/1999/xlink" x="0px" y="0px"
	 viewBox="-274.4 405.6 44.1 30.6" style="enable-background:new -274.4 405.6 44.1 30.6;" xml:space="preserve">
<style type="text/css">
	.st0{fill:#444444;}
</style>
<path class="st0" d="M-231.6,416.8c-2,0-3.8,0-5.8,0.1c-0.5,0-0.5-0.1-0.5-0.5l0-8.8c0-1.2-0.7-1.9-1.9-1.9
	c-5.1,0-10.3,0.1-15.4,0.1c-5.2,0.1-10.4,0.1-15.5,0.1c-0.5,0-1,0.1-1.3,0.5c-0.4,0.4-0.5,0.9-0.5,1.5c0,5.6,0,11.3,0.1,17
	c0,0.9,0,0.9-0.9,0.9c-0.7,0-1,0.2-1,1c0,2.9,0,5.6,0,8.5c0,0.7,0.3,0.9,1,1c1.5,0,2.9,0,4.4,0c0.7,0,1-0.2,1-1c0-1.2,0-2.5,0-3.7
	c0-0.3,0.1-0.5,0.5-0.4c6.6,0,13.2-0.1,19.9-0.1c0.4,0,0.5,0.1,0.4,0.5c0,1.2,0,2.4,0,3.6c0,0.8,0.2,1.1,1.1,1.1
	c4.9,0,9.8-0.1,14.7-0.1c0.8,0,1.1-0.2,1.1-1.1c0-5.6,0-11.3-0.1-16.9C-230.5,417-230.8,416.7-231.6,416.8L-231.6,416.8
	L-231.6,416.8L-231.6,416.8z M-272.6,426.7c0.8,0,1.7,0,2.6,0l0,0.1c-0.8,0-1.7,0-2.6,0C-272.6,426.8-272.6,426.7-272.6,426.7z
	 M-271.2,435.6c-0.3,0-0.4-0.2-0.4-0.4c0-0.2,0.2-0.4,0.4-0.4c0.2,0,0.4,0.1,0.4,0.3C-270.8,435.4-270.9,435.5-271.2,435.6
	L-271.2,435.6L-271.2,435.6L-271.2,435.6z M-268.6,427.9c0,1,0,2,0,3c0,1,0,2,0,2.9c0,0.3,0,0.5-0.4,0.4c-1.5,0-3,0-4.6,0
	c-0.3,0-0.4-0.1-0.4-0.4c0-2,0-4,0-5.9c0-0.3,0.1-0.4,0.4-0.4c1.5,0,3,0,4.6,0C-268.6,427.6-268.6,427.7-268.6,427.9L-268.6,427.9
	L-268.6,427.9L-268.6,427.9z M-247.9,428.7c-6.5,0-13.1,0.1-19.6,0.2c-0.5,0-0.5-0.1-0.5-0.5c0.1-0.6,0-1.1,0-1.7s-0.3-0.9-0.9-0.8
	c-0.5,0-1,0.2-1.3-0.1c-0.2-0.3-0.1-0.8,0-1.3c0-5.2,0-10.5-0.1-15.6c0-0.5,0.1-0.6,0.7-0.6c4.8,0,9.7-0.1,14.5-0.1
	c4.8-0.1,9.7-0.1,14.5-0.1c0.5,0,0.6,0.1,0.6,0.6c0,2.6,0,5.3,0,7.9c0,0.5-0.1,0.5-0.5,0.5c-1.9,0-3.7,0-5.6,0
	c-0.8,0-1.1,0.2-1.1,1.1c0,3.4,0,6.8,0.1,10.2C-247.3,428.6-247.5,428.7-247.9,428.7L-247.9,428.7L-247.9,428.7L-247.9,428.7z
	 M-232.7,419.5c0,4.5,0,9,0.1,13.6c0,0.5-0.1,0.6-0.6,0.6c-3.8,0-7.5,0-11.3,0.1c-0.5,0-0.5-0.1-0.5-0.6c0-2.3,0-4.5,0-6.8
	c0-2.3,0-4.5,0-6.8c0-0.5,0.1-0.6,0.6-0.6c3.8,0,7.5,0,11.3-0.1C-232.8,418.9-232.7,419.1-232.7,419.5L-232.7,419.5
	C-232.7,419.5-232.7,419.5-232.7,419.5z M-251.5,432c-0.1-0.4-0.2-0.5-0.6-0.4c-2,0-4.1,0-6.2,0.1c-0.3,0-0.5,0.1-0.6,0.4
	c-0.4,1.1-0.6,2.1-1,3.2c-0.2,0.6,0,0.8,0.6,0.8c1.3,0,2.6,0,3.8,0c0,0,0,0,0,0.1c1.2,0,2.4,0,3.6,0c0.3,0,0.6,0.1,0.9-0.1
	c0.4-0.1,0.6-0.4,0.5-0.8c-0.1-0.4-0.3-0.7-0.5-1.1C-251.1,433.4-251.4,432.7-251.5,432L-251.5,432L-251.5,432L-251.5,432z"/>
</svg>
