<?xml version="1.0" encoding="utf-8"?>
<svg version="1.1" id="Layer_1" xmlns="http://www.w3.org/2000/svg" xmlns:xlink="http://www.w3.org/1999/xlink" x="0px" y="0px"
	 viewBox="-816.3 1214.6 31.9 31.9" style="enable-background:new -816.3 1214.6 31.9 31.9;" xml:space="preserve">
<path fill="currentColor" d="M-797.5,1223.7c0.2,0,0.4,0.1,0.7,0.1c0.5,0.1,1,0.3,1.4,0.7s0.5,0.9,0.5,1.5c0,0.4,0,0.8,0,1.3c0,0.1,0,0.1,0.1,0.2
	c0.1,0.2,0.2,0.4,0.2,0.6c0,0.3,0,0.5,0,0.8c0,0.4-0.2,0.7-0.5,0.9c-0.1,0-0.1,0.1-0.1,0.2c-0.2,0.5-0.5,1-0.8,1.4
	c0,0.1-0.1,0.1-0.1,0.2c0,0.2,0,0.4,0,0.7c0,0.3,0.1,0.5,0.4,0.6c0.7,0.4,1.5,0.7,2.2,1.1c0.7,0.3,1.2,0.9,1.3,1.7l0,0
	c0,0.4,0,0.8,0,1.1c0,0.1,0,0.1-0.1,0.1c0,0,0,0-0.1,0c-4.9,0-9.7,0-14.6,0c-0.1,0-0.1,0-0.1-0.1c0-0.3,0-0.7,0-1
	c0-0.1,0.1-0.2,0.1-0.3c0.1-0.5,0.4-0.8,0.9-1.1c0.6-0.4,1.2-0.7,1.7-1c0.2-0.1,0.3-0.3,0.3-0.5c0-0.4,0-0.7-0.3-1
	c-0.3-0.3-0.4-0.6-0.6-1c0-0.1-0.1-0.1-0.1-0.2c-0.2-0.2-0.3-0.4-0.3-0.6s0-0.5,0-0.7c0-0.2,0.1-0.4,0.2-0.5c0-0.1,0.1-0.1,0.1-0.2
	c0-0.4,0-0.7,0-1.1c0.1-1.1,0.9-1.8,2-2c0.7-0.1,1.4-0.1,2.1,0.2c0,0,0,0,0.1,0c0-0.1,0.1-0.3,0.1-0.4c0.2-0.7,0.8-1.2,1.5-1.4
	c0.3-0.1,0.6-0.1,0.9-0.2h0.1C-798,1223.7-797.8,1223.7-797.5,1223.7z M-797.9,1236.3c0.7,0,1.5,0,2.2,0c1,0,1.9,0,2.9,0
	c0.1,0,0.2,0,0.1-0.1c0-0.1,0-0.2,0-0.3c0-0.7-0.3-1.2-1-1.5c-0.8-0.4-1.5-0.7-2.3-1.1c-0.4-0.2-0.7-0.6-0.7-1c0-0.3,0-0.6,0-0.9
	c0-0.1,0-0.1,0-0.2c0.4-0.5,0.7-1,0.9-1.7c0-0.1,0.1-0.1,0.1-0.1c0.3-0.1,0.4-0.2,0.4-0.5c0-0.3,0-0.6,0-0.9c0-0.2,0-0.3-0.2-0.4
	c-0.1,0-0.1-0.1-0.1-0.2c0-0.5,0-1,0-1.4c0-0.8-0.4-1.4-1.2-1.7c-0.8-0.2-1.7-0.2-2.5,0c-0.8,0.2-1.3,0.9-1.2,1.6c0,0.5,0,1,0,1.5
	c0,0.1,0,0.1-0.1,0.2c-0.1,0.1-0.2,0.2-0.2,0.4c0,0.3,0,0.6,0,0.9c0,0.2,0.1,0.3,0.2,0.4c0.1,0,0.1,0.1,0.1,0.2
	c0.1,0.6,0.4,1.2,0.8,1.7c0,0.1,0.1,0.1,0.1,0.2c0,0.3,0,0.5,0,0.8c0,0.5-0.2,0.9-0.7,1.1c-0.7,0.4-1.4,0.8-2.2,1.1
	c-0.4,0.2-0.7,0.5-0.8,1c-0.1,0.3-0.1,0.6-0.1,0.9c0,0.1,0,0.2,0.2,0.2C-801.3,1236.3-799.6,1236.3-797.9,1236.3z M-805.1,1236.3
	c0.4,0,0.9,0,1.3,0c0.2,0,0.2,0,0.2-0.2c0-0.2,0-0.5,0-0.7c0.2-0.7,0.6-1.2,1.2-1.5c0.7-0.4,1.4-0.7,2.1-1.1
	c0.2-0.1,0.4-0.3,0.4-0.6c0-0.2,0-0.4,0-0.7c0-0.1,0-0.2-0.1-0.2c-0.3-0.5-0.6-1-0.7-1.5c0-0.1-0.1-0.1-0.1-0.2
	c-0.2-0.2-0.3-0.4-0.3-0.7c0-0.3,0-0.6,0-1c0-0.1,0-0.3,0.1-0.4c0.1-0.2,0.1-0.4,0.1-0.6c0-0.1,0-0.3,0-0.4c0.1-0.3-0.1-0.4-0.4-0.5
	c-0.6-0.2-1.3-0.3-1.9-0.1c-0.9,0.2-1.5,0.9-1.5,1.8c0,0.3,0,0.6,0,1c0,0.1,0,0.1-0.1,0.2c-0.1,0.1-0.2,0.2-0.2,0.4
	c0,0.2,0,0.5,0,0.7c0,0.1,0,0.3,0.2,0.3c0.1,0,0.1,0.1,0.1,0.2c0.1,0.4,0.3,0.7,0.5,1.1c0.1,0.2,0.4,0.3,0.4,0.5c0,0.2,0,0.4,0,0.6
	v0.1c0,0.4-0.2,0.7-0.5,0.9c-0.6,0.4-1.2,0.7-1.7,1c-0.3,0.2-0.6,0.5-0.6,0.9c-0.1,0.2,0,0.4,0,0.6c0,0.1,0,0.1,0.1,0.1
	C-806,1236.3-805.5,1236.3-805.1,1236.3z"/>
<path style="fill:none;stroke:currentColor;stroke-width:1.3154;stroke-miterlimit:10;" d="M-800.2,1215.3c8.4,0,15.2,6.8,15.2,15.3c0,8.4-6.8,15.3-15.3,15.3c-8.4,0-15.3-6.8-15.3-15.3
	C-815.5,1222.1-808.7,1215.3-800.2,1215.3z"/>
</svg>
