<?xml version="1.0" encoding="utf-8"?>
<!-- Generator: Adobe Illustrator 19.0.0, SVG Export Plug-In . SVG Version: 6.00 Build 0)  -->
<svg version="1.1" id="Layer_1" xmlns="http://www.w3.org/2000/svg" xmlns:xlink="http://www.w3.org/1999/xlink" x="0px" y="0px"
	 viewBox="-244.1 408.1 85.9 20.9" style="enable-background:new -244.1 408.1 85.9 20.9;" xml:space="preserve">
<style type="text/css">
	.st0{fill:#0F8642;}
</style>
<g>
	<g>
		<path class="st0" d="M-204,420.6c0.3-0.7,0.2-1-0.7-0.9c-0.6,0.1-0.7-0.2-0.5-0.7c0.5-1.5,1.2-2.9,1.5-4.5c0.7-3.1-1-5.8-4.2-6.3
			c-0.1-0.1-0.2,0-0.3-0.1c-0.9,0-1.8-0.1-2.8,0c-0.2,0.3-0.5,0.2-0.8,0.3c-1.6,0.4-2.8,1.3-3.8,2.5c-1.5,2-2.2,4.4-2.2,6.9
			c0,2.8,1.4,4.4,4.2,4.8c2.3,0.3,4.6,0.1,6.9,0.2C-204.5,422.7-204.6,422.6-204,420.6z M-209.4,419.6c-0.4-0.1-0.9,0-1.2,0l0,0
			c-0.4-0.1-0.9,0-1.4,0c-1.3-0.1-2-0.8-2.1-2c-0.1-1.7,0.3-3.3,1.1-4.8c0.8-1.5,2.8-2.1,4.4-1.5c1,0.3,1.5,1.1,1.5,2.2
			c0.1,1-0.3,1.9-0.6,2.9c-0.2,0.8-0.6,1.7-0.7,2.6C-208.5,419.4-208.8,419.6-209.4,419.6z M-161.4,409.9c-0.5,0-0.8,0.2-1.2,0.6
			c-1.3,2-2.7,3.9-4.1,5.9c-0.2,0.2-0.2,0.4-0.5,0.5c-0.3-0.5,0-1.5-0.6-1.7c-0.5-0.2-1.3-0.1-2-0.1c-0.3,0-0.6,0-0.9,0
			c-0.4,0-0.5,0.2-0.4,0.5c0.2,0.6,0.4,1.3,0.6,1.8c0.5,1.6,1,3.3,0.2,5c-0.2,0.4,0,0.5,0.4,0.5c0.6,0,1.3,0,1.9,0
			c0.8,0,1.1-0.1,1.2-0.9c0.2-1.3,0.9-2.3,1.6-3.4c2.1-2.7,4.2-5.4,6.3-8.1c0.2-0.2,0.3-0.4,0.5-0.5c0-0.1,0-0.1,0-0.2
			C-159.3,409.9-160.3,409.9-161.4,409.9z M-239,420.7c-3-2-4.2-4.8-3.3-8.6c-1,0.7-1.3,1.7-1.7,2.6c0,0.9,0,1.7,0,2.6
			c0.3,0.1,0.3,0.4,0.3,0.6c0.5,1.5,1.4,2.9,2.6,3.9c3.3,2.9,8.2,2.9,10.9-0.1c0.2-0.3,0.6-0.5,0.6-1.1
			C-232.9,422.8-236,422.7-239,420.7z M-186.7,428.1c-0.2,0.2-0.2,0.3-0.1,0.5c0,0.1,0.1,0.3,0,0.4c0.2,0,0.4,0.1,0.6,0
			c-0.2-0.2,0-0.3,0-0.4c0-0.2,0.1-0.4-0.2-0.5C-186.3,427.9-186.5,428-186.7,428.1z M-182,420.1c-1.3,0-2.6,0-3.7,0
			c-0.5,0-1.1,0-1.6-0.2c-0.6-0.2-0.8-0.7-0.7-1.3c0.1-0.6,0.6-0.3,0.9-0.3c0.9,0,1.9,0,2.9,0c1.1,0,2,0,3.1,0
			c0.4,0.1,0.6-0.1,0.7-0.6c0.3-1.1,0.5-2.1,0.4-3.2c0-1.6-1-2.6-2.5-3c-0.9-0.2-1.8-0.2-2.7-0.2c-2.6,0.2-4.5,1.4-5.4,3.9
			c-0.4,1.2-0.7,2.4-0.8,3.7c-0.2,2.5,1,3.8,3.6,4c1.3,0.1,2.7,0.1,4,0c1.9,0,1.9,0,2.4-1.8C-180.9,420-180.9,420-182,420.1z
			 M-187,414.9c0.6-1,2.3-1.4,3.3-0.8c0.5,0.3,0.7,0.8,0.6,1.3c-0.1,0.6-0.7,0.2-0.9,0.3c-0.4,0-0.9,0-1.3,0c-0.4-0.1-0.9,0-1.4,0
			c-0.2,0-0.6,0.1-0.7-0.2C-187.4,415.3-187.2,415.1-187,414.9z M-193.3,422c0.7-3.2,1.5-6.5,2.2-9.7c0.2-0.7,0.2-1-0.8-0.9
			c-0.5,0.1-0.9,0-1.5,0c-0.5,0-0.7,0.1-0.8,0.6c-0.5,2.1-1,4.3-1.4,6.4c-0.4,1.6-0.4,1.6-2.1,1.6c-1.5-0.1-1.8-0.4-1.7-1.9
			c0.1-0.1,0.1-0.4,0.1-0.5c0.4-1.8,0.8-3.7,1.1-5.6c0.1-0.5,0.1-0.7-0.6-0.6s-1.2,0-1.8,0c-0.4-0.1-0.7,0.1-0.7,0.6
			c-0.2,1.2-0.6,2.5-0.8,3.7c-0.3,1.5-0.8,3.1-0.5,4.7c0.2,1.4,1.1,2.2,2.5,2.5c1,0.2,2.2,0.1,3,0.1c1,0.1,1.8,0,2.7,0.1
			C-193.6,422.7-193.4,422.4-193.3,422z M-179.3,422.8c0.6,0,1.2,0,1.8,0c0.7,0.1,0.9-0.2,1-0.8c0.5-2.3,1.1-4.6,1.5-7
			c0.1-0.6,0.4-0.8,0.9-0.8c1.9,0,3.8,0,5.8,0c0.2,0,0.6,0.1,0.6-0.3c0-1.4-0.9-2.4-2.3-2.5c-1.1,0-2.2-0.1-3.3-0.1l0,0
			c-1.1,0-2.1,0-3.2,0c-0.5,0-0.7,0.1-0.8,0.6c-0.8,3.4-1.5,6.8-2.3,10.2C-179.8,422.7-179.7,422.8-179.3,422.8z M-219.3,414.5
			c-0.7,0.1-1.4,0-2.1,0c-0.4-0.1-0.7,0.1-0.7,0.6c-0.4,1.6-0.7,3.2-1.1,4.9c-0.3,1.1-0.3,2.1-0.9,3.1c-0.2,0.5-0.5,1.2-1.2,1
			c-1-0.2-1.2,0.4-1.4,1.2c-0.4,1.6-0.5,1.7,1.5,1.7c0.4,0,1.1,0,1.7-0.1c1.6-0.4,2.3-1.6,2.6-3c0.7-2.9,1.4-6,2.1-8.9
			C-218.7,414.7-218.9,414.6-219.3,414.5z M-233,419.2c1.9-0.1,3.4-1.1,3.8-2.2c-4.5,3.1-10.4-1.4-9.2-6.1c-1.3,1.2-1.4,3.1-0.7,4.9
			C-238,418.1-235.6,419.4-233,419.2z M-220.1,413.8c0.2,0,0.5-0.1,0.8,0c0.8,0.1,1-0.2,1.1-0.9c0.4-1.8,0.4-1.8-1.5-1.9
			c-1.5,0-1.2-0.2-1.6,1.2C-221.8,413.7-221.8,413.7-220.1,413.8z M-229.6,413.9c-1.5,0.6-2.7,0.4-3.9-0.4c-1.3-0.8-1.7-2-1.7-3.5
			c-1,1.3-0.5,3.4,1.1,4.4C-232.5,415.5-230.4,415.3-229.6,413.9z M-203.8,426.2c-0.2,0-0.3,0-0.4,0.3s-0.2,0.7-0.5,0.9
			c-0.3-0.4,0.3-1.1-0.3-1.2c-1-0.3-0.8,0.8-1.2,1.2c0-0.2,0.1-0.4,0-0.6c0-0.2,0.1-0.5-0.3-0.5c-0.3,0-0.3,0.2-0.4,0.5
			c-0.1,0.4,0,0.9,0,1.3c0,0.2-0.1,0.5,0.3,0.4c0.3,0,0.6,0.1,0.8-0.3c0.1-0.3,0.2-0.6,0.3-0.9c0,0,0.1,0,0.1,0.1
			c0,0.2-0.1,0.4,0,0.5c0.1,0.2-0.2,0.5,0.2,0.6c0.3,0,0.7,0.1,0.8-0.3c0.1-0.5,0.5-1,0.6-1.5C-203.6,426.6-203.4,426.3-203.8,426.2
			z M-175.4,426.4c-0.5,0.1-1-0.1-1.6,0c-0.8-0.4-0.8,0.3-0.8,0.7c-0.1,0.4-0.2,0.7-0.2,1c0,0.2-0.1,0.4,0.2,0.5
			c0.2,0,0.4-0.1,0.4-0.4c0.1-0.4,0.2-0.7,0.3-1.1c0-0.2,0.1-0.3,0.3-0.2c0.1,0.1,0.2,0.2,0.2,0.3c0,0.3-0.1,0.6-0.1,0.9
			c0,0.2-0.2,0.4,0.2,0.5c0.3,0,0.4-0.1,0.4-0.4c0-0.3,0.1-0.6,0.2-0.9c0-0.2,0.1-0.4,0.4-0.4c0.2,0,0.2,0.2,0.2,0.5
			c0,0.3-0.1,0.6-0.1,0.9c-0.1,0.1,0,0.3,0.1,0.3c0.1,0.1,0.3,0,0.3-0.2c0.1-0.5,0.3-1.1,0.3-1.5
			C-174.8,426.6-175,426.4-175.4,426.4z M-168.4,427.9c0.4,0.1,0.9,0,0.7-0.6c0-0.5-0.3-0.8-0.8-0.8c-0.8-0.1-1.1,0.5-1.6,1l0,0l0,0
			l0,0l0,0l0,0c0.1,1.2,0.5,1.5,1.5,1.3c0.2-0.1,0.5-0.1,0.5-0.4s-0.3-0.2-0.5-0.1c-0.2,0-0.5,0.1-0.7-0.3
			C-168.9,427.8-168.7,427.9-168.4,427.9z M-182,425.5c-0.2,0-0.4,0-0.4,0.3c0,0.5-0.3,0.5-0.8,0.6c-0.7-0.1-1.3,0.8-1.2,1.6
			c0.1,0.7,0.6,0.7,1.3,0.6c0.8,0.4,0.8-0.3,0.9-0.8s0.3-1.2,0.4-1.8C-181.8,425.8-181.6,425.6-182,425.5z M-182.8,427.4
			c-0.1,0.3,0,0.8-0.6,0.7c-0.4-0.1-0.4-0.3-0.4-0.5c0.1-0.4,0.3-0.6,0.7-0.6C-182.6,426.9-182.8,427.2-182.8,427.4z M-192.1,427.7
			c0.3,0,0.6,0,0.6-0.4c0-0.3,0-0.8-0.4-0.8c-0.4-0.3-1-0.3-1.3,0.2c-0.4,0.5-0.6,1-0.4,1.6c0.3,0.5,0.9,0.4,1.4,0.3
			c0.2,0,0.4,0,0.4-0.3c0-0.3-0.3-0.2-0.4-0.2c-0.2,0-0.5,0.1-0.7-0.3C-192.6,427.6-192.3,427.7-192.1,427.7z M-198,426.6
			c-0.4,0.4-0.6,1.4-0.2,1.7c0.5,0.5,1.1,0.3,1.6,0.2c0.1,0,0.2-0.2,0.2-0.3c-0.1-0.2-0.3-0.1-0.4-0.2c-0.3,0-0.6,0.1-1-0.4
			c0.4,0.1,0.7-0.1,1.1,0c0.3,0,0.6,0,0.7-0.5c0.1-0.4,0.1-0.7-0.3-0.8C-197.1,426.1-197.6,426.2-198,426.6z M-173.1,426.4
			c-0.9,0-1.5,0.6-1.5,1.5c0,0.6,0.4,0.8,0.9,0.8c0.9,0,1.4-0.6,1.4-1.5C-172.2,426.7-172.5,426.4-173.1,426.4z M-172.8,427.5
			c-0.1,0.4-0.2,0.7-0.7,0.8c-0.3,0-0.5-0.1-0.4-0.5c0.1-0.4,0.2-0.7,0.7-0.8C-172.9,427-172.8,427.1-172.8,427.5z M-180.4,426.4
			c-0.9,0-1.4,0.6-1.4,1.5c0,0.6,0.4,0.8,0.9,0.8c0.9,0,1.4-0.6,1.4-1.5C-179.5,426.6-179.8,426.4-180.4,426.4z M-180.1,427.4
			c-0.1,0.4-0.2,0.7-0.7,0.8c-0.3,0-0.4-0.2-0.4-0.5c0.1-0.4,0.2-0.7,0.7-0.8C-180.2,427-180,427.1-180.1,427.4z M-189.9,427.2
			c-0.1-0.1-0.4,0-0.4-0.3c0.2-0.2,0.2-0.2,0.5-0.2c0.3-0.1,0.8,0.2,0.8-0.3c-0.1-0.5-0.6-0.2-1-0.3c-0.1-0.1-0.3,0-0.4,0
			c-0.5,0.2-0.6,0.6-0.6,1c0.1,0.5,0.5,0.2,0.7,0.3c0.1,0.1,0.3,0,0.4,0.2c-0.3,0.3-0.7,0.1-1,0.2c-0.1,0-0.3,0-0.2,0.2
			c-0.1,0.1,0.1,0.3,0.2,0.2c0.4,0.1,0.9,0.1,1.3-0.2c0.3-0.2,0.5-0.5,0.4-0.9C-189.3,427.1-189.7,427.4-189.9,427.2z M-187,427.5
			c0-0.4-0.4-0.2-0.6-0.2c-0.1-0.1-0.4,0-0.5-0.1c0-0.2,0.2-0.2,0.3-0.2c0.3-0.1,0.8,0.2,0.8-0.3c0-0.4-0.6-0.2-1-0.3
			c-0.1,0-0.2,0-0.3,0c-0.4,0.1-0.7,0.5-0.6,0.9c0,0.5,0.5,0.2,0.8,0.4c0.1,0.1,0.2,0,0.5,0.1c-0.4,0.4-0.8,0.3-1.1,0.3
			c-0.1,0-0.3,0.1-0.2,0.2s0.1,0.2,0.2,0.2c0.6,0.1,1.1,0.1,1.5-0.2C-187,428.1-186.9,427.8-187,427.5z M-198.8,426.7
			c0.2-0.1,0.3-0.1,0.3-0.3s-0.2-0.2-0.3-0.2c-0.3,0-0.2-0.2-0.3-0.4c0-0.3-0.4-0.2-0.4-0.2c-0.1,0.4-0.7,0.4-0.7,0.9
			c-0.1,0-0.1,0-0.1,0c-0.2-0.5-0.6-0.4-0.9-0.3c-0.6,0.2,0,0.4,0,0.6c0,0.1,0,0.2-0.1,0.4c-0.1,0.4-0.4,1,0.1,1.1
			c0.6,0.1,0.3-0.6,0.5-0.9c0.1-0.3-0.1-0.8,0.5-0.8c0.3,0.2,0.2,0.5,0.1,0.7s-0.1,0.5-0.1,0.7c0,0.3,0.2,0.5,0.5,0.5
			c0.2,0,0.6,0.1,0.8-0.3c0.1-0.1,0-0.2-0.1-0.3C-199.5,427.4-199.4,427.1-198.8,426.7z M-193.7,425.4c-0.3-0.1-0.5-0.1-0.7,0.1
			c-0.2,0.2-0.1,0.4,0.1,0.6c0.2,0.2,0,0.3,0,0.5c-0.1,0.5-0.2,1-0.3,1.4c0,0.2-0.1,0.5,0.2,0.6c0.4,0.1,0.4-0.1,0.4-0.4
			c0.2-0.7,0.3-1.4,0.5-2.1C-193.7,425.8-193.4,425.5-193.7,425.4z M-201.6,426.6c0-0.2-0.1-0.4-0.5-0.4c-1-0.2-1.2,0-1.4,0.9
			c-0.1,0.4-0.1,0.6-0.2,0.9c0,0.1-0.2,0.3,0.1,0.4c0.2,0,0.3,0,0.4-0.3c0.1-0.4,0.3-0.7,0.3-1.1c0.1-0.4,0.2-0.5,0.5-0.2
			c0.2,0.2,0.3,0.3,0.5,0.2C-201.5,427.1-201.5,426.8-201.6,426.6z M-170.3,426.4c-0.7-0.3-1.3,0-1.4,0.7c0,0.2-0.1,0.5-0.1,0.8
			c0,0.2-0.3,0.5,0.1,0.7c0.4,0.2,0.3-0.2,0.5-0.5c0.1-0.1,0-0.2,0.1-0.4c0.2-0.4,0.1-1.2,0.8-0.4c0,0.1,0.3,0,0.4,0.1
			C-170,427.1-169.7,426.7-170.3,426.4z M-200.6,425.9c0.2,0,0.4-0.1,0.5-0.4c0-0.1-0.1-0.3-0.3-0.3c-0.3,0-0.5,0.1-0.5,0.4
			C-200.9,425.9-200.7,425.9-200.6,425.9z M-167.2,428.2c-0.2,0-0.4,0.1-0.4,0.5c0,0.2,0.2,0.2,0.5,0.2c0.1,0,0.2-0.2,0.2-0.4
			C-166.9,428.2-167,428.1-167.2,428.2z"/>
	</g>
</g>
</svg>
