<?xml version="1.0" encoding="utf-8"?>
<svg version="1.1" id="Слой_1" xmlns="http://www.w3.org/2000/svg" xmlns:xlink="http://www.w3.org/1999/xlink" x="0px" y="0px"
	 viewBox="-113.3 220.8 417.2 400.1" style="enable-background:new -113.3 220.8 417.2 400.1;" xml:space="preserve">
<path style="fill:currentColor;stroke:currentColor;stroke-width:24;stroke-miterlimit:10;" d="M-101.2,412.2c5.7,0,10.8,0,15,0c2.5-7.1,3.8-14.1,7.2-20c12.3-21.2,38.1-26.8,59-13.5c1.8,1.2,4.2,2,6.3,2
	c10.3,0.2,20.5,0.1,31.8,0.1c-1.6-1.9-2.5-3-3.5-4c-5.6-5.7-11.4-11.2-16.9-17c-2.9-3-6-4.7-10.1-5.6c-17.6-3.9-33.3-20.5-31.3-43.7
	c1.4-17.4,14.7-33.3,34-36.4c22.1-3.5,42,10,46.9,32c0.4,1.9,1.2,3.9,2.4,5.2c7.4,7.7,14.9,15.2,23.1,23.4c0.3-2,0.5-3.2,0.5-4.4
	c0.1-4.8-0.1-9.7,0.1-14.5c0.4-9.2-0.8-17.6-5.4-26.2c-8.1-15.2-2.8-35.5,10.7-47.1c13.4-11.5,33.4-12.9,48.7-3.3
	c19.4,12.1,24.8,37.4,12.4,57.3c-1.4,2.2-2.2,5.2-2.3,7.8c-0.3,9.8-0.1,19.5-0.1,29.3c0.4,0.2,0.9,0.5,1.3,0.7
	c5.9-6,11.6-12.1,17.6-17.9c4-3.9,6.7-7.9,8.1-13.6c4.2-17.2,20.7-29.1,38.9-29.1c18.8,0,34.8,11.7,39.6,28.9
	c6.8,23.9-7.3,46.8-31.7,52c-2.3,0.5-4.6,1.8-6.3,3.4c-6.5,6.2-12.8,12.6-19.1,19c-0.9,0.9-1.6,1.9-3.2,3.7
	c12.2,0,23.5,0.1,34.7-0.1c1.7,0,3.4-1.8,5.1-2.8c26.8-16.5,60.5,0.8,62.8,32.2c0,0.5,0.2,0.9,0.4,1.9c5.2,0,10.5,0,16.4,0
	c0,2.4,0,4.3,0,6.3c0,45,0,90,0,135c0,26.6-20.5,50.7-46.7,54.9c-3.7,0.6-7.6,0.8-11.4,0.8c-93.1,0-186.3,0-279.4,0
	c-30.1,0-55.7-25.5-55.7-55.5c0-45,0-90,0-135C-101.2,416.6-101.2,414.7-101.2,412.2z M-73.3,411.6c112.5,0,225,0,338,0
	c-0.1-1.9,0-3.6-0.4-5.2c-4.7-22-30.1-31.6-48.4-18.5c-2.6,1.9-6.3,3.1-9.4,3.2c-17.2,0.3-34.3,0.2-51.5,0.1c-1.9,0-3.8-0.2-7-0.4
	c2-2.3,3.1-3.6,4.4-4.8c11.7-11.7,23.4-23.3,35-35c3.4-3.5,6.6-6.9,12.2-6.6c2.2,0.1,4.5-1.2,6.6-2.1c13.3-5.7,20.6-20.9,17.1-35.2
	c-3.6-14.6-16.8-24.1-32-23.1c-14.6,1-26.5,12.4-28.2,26.6c-0.3,2.4-1.5,5.2-3.2,6.9c-12.7,13-25.6,25.7-38.5,38.5
	c-1.1,1.1-2.4,2-4.1,3.4c-0.3-1.7-0.5-2.5-0.5-3.2c0-19.2-0.1-38.3,0.1-57.5c0-1.9,1.2-4.1,2.4-5.7c5.9-7.6,7.9-16.2,6.1-25.4
	c-2.3-12.3-12.8-22-25.2-24.1c-12-2-24.7,3.9-31.1,14.6c-6.5,10.8-5.6,24.3,2.1,34.7c1.5,2.1,2.6,5.1,2.7,7.6
	c0.2,17.8,0.1,35.7,0.1,53.5c0,1.6-0.2,3.1-0.5,5.9c-2.1-1.8-3.3-2.8-4.4-3.9c-11.7-11.6-23.2-23.4-35.1-34.8
	c-4-3.9-6.3-7.9-7.3-13.5c-2.7-15.1-17.3-25-33.5-23.3c-15.1,1.6-26.9,15.1-26.7,30.5c0.2,15.3,12,28.4,26.8,30.2
	c2.5,0.3,5.4,1.7,7.2,3.5c12.8,12.4,25.3,25.1,37.9,37.7c1.2,1.2,2.3,2.6,4,4.5c-2,0.3-2.9,0.6-3.8,0.6c-19,0-38,0.1-57-0.1
	c-2.1,0-4.4-1.3-6.1-2.6c-10.4-7.5-21.5-8.5-33-3.1C-67.9,390.2-74.9,402.2-73.3,411.6z M197.9,525.4c6.1,0,11.6-0.2,17,0.1
	c1.3,0.1,3.6,1.6,3.7,2.5c0.2,7.3,0.5,14.7-0.4,21.9c-1.3,10.7-10.8,17.8-21.6,17.4c-10.7-0.4-19.2-8.5-19.8-19.4
	c-0.4-6.1-0.2-12.3-0.2-18.5c0-18.8-0.2-37.7,0.2-56.5c0.3-10.6,8.8-18.6,19.3-19.4c10.4-0.8,19.6,6.1,22,16.4
	c0.3,1.4,0.7,2.9,1,4.2c9.9,0,19.4,0,29.6,0c-0.4-3.7-0.6-7-1.3-10.2c-5.5-25.8-29-42.6-55.9-40c-24.9,2.4-44.7,24.2-44.9,49.9
	c-0.2,24.3-0.1,48.6,0,73c0,2.8,0.2,5.7,0.7,8.4c5.2,26.9,28.6,44.3,56.1,41.6c25.5-2.5,45.1-24.7,45.1-51.4c0-14.8,0-29.7,0-44.5
	c0-1.8-0.2-3.5-0.3-5.2c-17.1,0-33.7,0-50.4,0C197.9,505.8,197.9,515.3,197.9,525.4z M44.2,474.3c0.2-1,0.4-1.4,0.4-1.9
	c-0.6-29.1-26.8-51.3-57-48.3c-28.3,2.8-49.6,31-44.2,59c4.4,22.9,18.7,36,41.2,40.7c5.4,1.1,10.9,1.9,16.1,3.5
	c9.8,2.9,15.5,12.6,13.7,22.6c-1.8,10.2-10.3,17.5-20.6,17.6c-10.4,0.1-18.7-6.9-21-17.2c-0.3-1.4-1.7-3.6-2.7-3.6
	c-8.9-0.3-17.9-0.2-27.1-0.2c0,2.5-0.2,4.5,0,6.4c2.8,24.7,24.3,44,49.4,44.4c25.7,0.4,47.9-17.9,51.5-42.5
	c3.8-26.3-10.9-49.5-36-56.4c-5.9-1.6-12.1-2.2-18.1-3.4c-11-2.2-17.7-10.7-17.1-21.8c0.5-10.2,8.5-18.4,18.8-19.5
	c10.6-1.1,20.1,5.7,22.6,16.2c0.3,1.4,0.7,2.8,1.1,4.4C25,474.3,34.5,474.3,44.2,474.3z M44.9,423.8c0.3,1.8,0.4,2.8,0.6,3.8
	c5.5,26.7,11.1,53.5,16.6,80.2c5.9,28.5,11.8,57,17.9,85.5c0.3,1.4,1.8,3.7,2.7,3.8c9.3,0.3,18.5,0.2,27.9,0.2
	c12-58,24-115.4,36-173.5c-9.1,0-17.2,0.2-25.4-0.1c-3.6-0.1-4.8,1.1-5.5,4.6c-6.1,30-12.4,60-18.6,90c-0.3,1.6-0.8,3.1-1.2,4.6
	c-2.5-8.5-4.3-17-6-25.5c-4.8-23-9.5-46-14.4-68.9c-0.4-1.7-2-4.4-3.2-4.5C63.4,423.6,54.5,423.8,44.9,423.8z"/>
<path fill="#FFFFFF" d="M-73.3,411.6c-1.7-9.4,5.4-21.4,15.6-26.2c11.5-5.4,22.6-4.4,33,3.1c1.8,1.3,4.1,2.6,6.1,2.6
	c19,0.2,38,0.1,57,0.1c0.9,0,1.9-0.3,3.8-0.6c-1.7-1.9-2.7-3.3-4-4.5c-12.6-12.6-25.1-25.3-37.9-37.7c-1.8-1.8-4.7-3.2-7.2-3.5
	c-14.6-1.7-26.5-14.8-26.7-30.1c-0.2-15.5,11.6-29,26.7-30.5c16.2-1.7,30.8,8.2,33.5,23.3c1,5.6,3.3,9.7,7.3,13.5
	C45.8,332.6,57.3,344.3,69,356c1.1,1.1,2.4,2.1,4.4,3.9c0.2-2.7,0.5-4.3,0.5-5.9c0-17.8,0.1-35.7-0.1-53.5c0-2.6-1.1-5.5-2.7-7.6
	c-7.7-10.4-8.7-23.9-2.1-34.7c6.5-10.7,19.1-16.6,31.1-14.6c12.4,2.1,22.8,11.8,25.2,24.1c1.8,9.2-0.3,17.8-6.1,25.4
	c-1.2,1.6-2.4,3.8-2.4,5.7c-0.2,19.2-0.1,38.3-0.1,57.5c0,0.8,0.2,1.5,0.5,3.2c1.7-1.4,3-2.4,4.1-3.4c12.9-12.8,25.8-25.6,38.5-38.5
	c1.7-1.7,2.9-4.5,3.2-6.9c1.7-14.2,13.6-25.5,28.2-26.6c15.2-1.1,28.4,8.5,32,23.1c3.5,14.3-3.9,29.5-17.1,35.2
	c-2.1,0.9-4.4,2.3-6.6,2.1c-5.6-0.3-8.8,3.1-12.2,6.6c-11.6,11.7-23.3,23.3-35,35c-1.2,1.2-2.3,2.6-4.4,4.8c3.2,0.2,5.1,0.4,7,0.4
	c17.2,0,34.3,0.2,51.5-0.1c3.2-0.1,6.8-1.3,9.4-3.2c18.3-13,43.7-3.4,48.4,18.5c0.3,1.6,0.2,3.2,0.4,5.2
	C151.8,411.6,39.2,411.6-73.3,411.6z"/>
<path fill="#FFFFFF" d="M197.9,525.4c0-10.2,0-19.6,0-29.4c16.7,0,33.3,0,50.4,0c0.1,1.7,0.3,3.5,0.3,5.2c0,14.8,0.1,29.7,0,44.5
	c-0.1,26.7-19.6,48.9-45.1,51.4c-27.4,2.7-50.9-14.7-56.1-41.6c-0.5-2.8-0.7-5.6-0.7-8.4c-0.1-24.3-0.2-48.6,0-73
	c0.2-25.7,19.9-47.5,44.9-49.9c26.9-2.6,50.4,14.2,55.9,40c0.7,3.2,0.8,6.5,1.3,10.2c-10.2,0-19.8,0-29.6,0c-0.3-1.4-0.7-2.8-1-4.2
	c-2.4-10.3-11.7-17.2-22-16.4c-10.5,0.8-19,8.8-19.3,19.4c-0.5,18.8-0.2,37.6-0.2,56.5c0,6.2-0.2,12.3,0.2,18.5
	c0.7,10.9,9.2,18.9,19.8,19.4c10.8,0.4,20.3-6.7,21.6-17.4c0.9-7.2,0.5-14.6,0.4-21.9c0-0.9-2.3-2.4-3.7-2.5
	C209.5,525.3,204,525.4,197.9,525.4z"/>
<path fill="#FFFFFF" d="M44.2,474.3c-9.8,0-19.2,0-28.9,0c-0.4-1.6-0.7-3-1.1-4.4c-2.6-10.5-12-17.3-22.6-16.2
	c-10.3,1.1-18.3,9.3-18.8,19.5c-0.6,11.1,6.1,19.6,17.1,21.8c6,1.2,12.2,1.8,18.1,3.4c25.1,6.9,39.8,30.1,36,56.4
	c-3.6,24.6-25.8,43-51.5,42.5c-25.1-0.4-46.6-19.7-49.4-44.4c-0.2-1.9,0-3.9,0-6.4c9.2,0,18.2-0.1,27.1,0.2c1,0,2.4,2.2,2.7,3.6
	c2.2,10.3,10.6,17.3,21,17.2c10.3-0.1,18.8-7.3,20.6-17.6c1.7-10-3.9-19.7-13.7-22.6c-5.2-1.6-10.7-2.4-16.1-3.5
	c-22.5-4.7-36.8-17.9-41.2-40.7c-5.4-27.9,15.9-56.2,44.2-59c30.2-3,56.4,19.2,57,48.3C44.7,472.9,44.5,473.3,44.2,474.3z"/>
<path fill="#FFFFFF" d="M44.9,423.8c9.5,0,18.5-0.2,27.4,0.2c1.1,0,2.8,2.8,3.2,4.5c4.9,22.9,9.6,45.9,14.4,68.9
	c1.8,8.5,3.5,16.9,6,25.5c0.4-1.5,0.9-3.1,1.2-4.6c6.3-30,12.6-59.9,18.6-90c0.7-3.5,1.9-4.7,5.5-4.6c8.1,0.3,16.3,0.1,25.4,0.1
	c-12,58-24,115.5-36,173.5c-9.4,0-18.7,0.1-27.9-0.2c-1,0-2.4-2.3-2.7-3.8c-6-28.5-12-57-17.9-85.5c-5.5-26.7-11.1-53.5-16.6-80.2
	C45.3,426.6,45.2,425.6,44.9,423.8z"/>
</svg>
