<?xml version="1.0" encoding="utf-8"?>
<!-- Generator: Adobe Illustrator 19.0.0, SVG Export Plug-In . SVG Version: 6.00 Build 0)  -->
<svg version="1.1" id="Layer_1" xmlns="http://www.w3.org/2000/svg" xmlns:xlink="http://www.w3.org/1999/xlink" x="0px" y="0px"
	 viewBox="-245.5 416.9 37 27" style="enable-background:new -245.5 416.9 37 27;" xml:space="preserve">
<path d="M-208.5,434.5c0,0.7,0,1.5,0,2.2c0,0.1-0.1,0.2-0.1,0.3c-0.1,1.9-0.5,3.7-1.2,5.5c-0.4,1-0.9,1.4-1.9,1.4
	c-4.8,0-9.6,0-14.3,0c-5.4,0-10.9,0-16.3,0c-0.8,0-1.4-0.4-1.8-1.1c-0.5-1.2-0.9-2.5-1.1-3.8c-0.1-0.7-0.2-1.4-0.3-2.2
	c0-0.8,0-1.5,0-2.3c0-0.1,0.1-0.2,0.1-0.3c0.1-0.8,0.2-1.7,0.4-2.5c2.2-10.9,13.7-17.5,24-13.7c6.7,2.5,10.8,7.4,12.2,14.5
	C-208.6,433.2-208.6,433.8-208.5,434.5z M-227.1,439c0.5,0,1.1-0.2,1.4-0.8c1.6-2.4,3.2-4.8,4.6-7.2c0.3-0.4,0.5-0.9,0.7-1.4
	c0-0.1,0.1-0.2,0-0.2c-0.1-0.1-0.2,0-0.3,0c-0.4,0.2-0.8,0.5-1.2,0.8c-2.3,1.7-4.4,3.6-6.6,5.4c-0.5,0.5-0.7,1.3-0.5,2.1
	C-228.7,438.5-228,439-227.1,439z M-225.8,421.3c0-0.3,0-0.6,0-0.9c0-0.7-0.5-1.2-1.1-1.2c-0.7,0-1.2,0.5-1.2,1.2c0,0.6,0,1.2,0,1.8
	c0,0.7,0.5,1.2,1.2,1.2c0.6,0,1.1-0.5,1.2-1.2C-225.8,421.9-225.8,421.6-225.8,421.3z M-241.2,436.9c0.3,0,0.6,0,0.9,0
	c0.6,0,1.1-0.5,1.1-1.2c0-0.6-0.5-1.1-1.1-1.2c-0.6,0-1.2,0-1.8,0c-0.6,0-1.1,0.5-1.1,1.2c0,0.6,0.5,1.1,1.1,1.2
	C-241.8,436.9-241.5,436.9-241.2,436.9z M-212.8,434.5L-212.8,434.5c-0.3,0-0.6,0-0.9,0c-0.7,0-1.2,0.5-1.2,1.1
	c0,0.7,0.5,1.2,1.2,1.2c0.6,0,1.2,0,1.8,0s1.1-0.5,1.1-1.2c0-0.6-0.5-1.1-1.1-1.2C-212.2,434.5-212.5,434.5-212.8,434.5z
	 M-240,426.9c-0.5,0-1,0.3-1.1,0.8c-0.2,0.5,0,1,0.5,1.3c0.5,0.3,1.1,0.7,1.6,0.9c0.5,0.3,1.2,0.1,1.5-0.5c0.3-0.5,0.2-1.2-0.4-1.6
	c-0.5-0.3-1.1-0.6-1.6-1C-239.7,426.9-239.8,426.9-240,426.9z M-212.8,428.2c0-1-0.9-1.6-1.7-1.2c-0.5,0.3-1,0.6-1.5,0.9
	c-0.6,0.4-0.8,1-0.5,1.6c0.3,0.6,1,0.8,1.6,0.4c0.5-0.3,1-0.6,1.5-0.9C-213,428.9-212.8,428.5-212.8,428.2z M-234.4,421.3
	c-1,0-1.6,0.9-1.2,1.7c0.3,0.5,0.6,1,0.9,1.6c0.3,0.6,1,0.7,1.6,0.4c0.5-0.3,0.7-1,0.4-1.6c-0.3-0.5-0.6-1.1-0.9-1.6
	C-233.8,421.5-234.1,421.3-234.4,421.3z M-219.5,421.3c-0.4,0-0.7,0.1-0.9,0.5c-0.4,0.6-0.7,1.2-1,1.8c-0.3,0.5,0,1.2,0.5,1.5
	c0.5,0.3,1.2,0.2,1.5-0.3c0.4-0.6,0.7-1.1,1-1.7C-218.1,422.2-218.6,421.3-219.5,421.3z"/>
</svg>
