<?xml version="1.0" encoding="utf-8"?>
<svg version="1.1" id="Layer_1" xmlns="http://www.w3.org/2000/svg" xmlns:xlink="http://www.w3.org/1999/xlink" x="0px" y="0px"
	 viewBox="-242 410.3 29.5 29.5" style="enable-background:new -242 410.3 29.5 29.5;" xml:space="preserve">
<path fill="currentColor" d="M-227.6,427.4c0-0.7,0-1.3,0-2c0-0.2-0.1-0.3-0.2-0.3c-0.8-0.2-1.5-0.5-2.1-1.1c-0.8-0.7-1-1.6-0.8-2.6
	c0.2-1.5,1.2-2.5,2.9-2.7c0.2,0,0.3-0.1,0.3-0.3c0-0.1-0.1-0.3,0.1-0.4c0.2-0.1,0.4,0,0.7,0c0.1,0,0.1,0.1,0.1,0.2
	c0,0.4,0,0.5,0.4,0.5c1.4,0.2,2.2,1,2.6,2.4c0.1,0.4,0.1,0.4-0.3,0.4c-0.3,0-0.6,0.1-0.9,0.1c-0.2,0-0.2,0-0.2-0.2
	c-0.2-0.8-0.6-1.3-1.4-1.6c-0.2-0.1-0.3,0-0.3,0.2c0,1.2,0,2.4,0,3.6c0,0.2,0.1,0.2,0.2,0.3c0.4,0.1,0.8,0.2,1.2,0.4
	c1.2,0.5,1.9,1.4,2,2.7c0.1,1.6-0.7,2.9-2.2,3.5c-0.3,0.1-0.6,0.2-0.9,0.2c-0.2,0-0.3,0.1-0.3,0.4c0,0.3,0,0.6,0,0.9
	c0,0.2,0,0.2-0.2,0.2c-0.6,0-0.6,0-0.6-0.5c0-0.2,0-0.3,0-0.5c0-0.5,0.1-0.4-0.4-0.5c-1.2-0.2-2.1-0.7-2.6-1.8
	c-0.2-0.4-0.3-0.9-0.4-1.3c0-0.2,0-0.3,0.2-0.3c0.3,0,0.6-0.1,0.9-0.2c0.2,0,0.3,0,0.3,0.2c0.1,0.7,0.3,1.3,0.9,1.7
	c0.3,0.2,0.5,0.4,0.9,0.5c0.2,0.1,0.3,0,0.3-0.2C-227.7,428.7-227.6,428-227.6,427.4z M-226.9,427.5L-226.9,427.5c0,0.6,0,1.3,0,1.9
	c0,0.1,0,0.2,0.2,0.2c0.8-0.1,1.6-0.9,1.7-1.8c0.2-1.1-0.2-1.8-1.1-2.2c-0.2-0.1-0.4-0.1-0.6-0.2c-0.2-0.1-0.3,0-0.3,0.2
	C-226.9,426.2-226.9,426.9-226.9,427.5z M-227.6,421.8c0-0.6,0-1.1,0-1.7c0-0.2-0.1-0.3-0.3-0.2c-1.1,0.2-1.8,1.3-1.5,2.4
	c0.2,0.9,0.9,1.2,1.6,1.4c0.2,0.1,0.2-0.1,0.2-0.2C-227.6,422.9-227.6,422.4-227.6,421.8z"/>
<path style="fill:none;stroke:currentColor;stroke-width:1.3154;stroke-miterlimit:10;" d="M-227.3,410.9c7.8,0,14.2,6.4,14.2,14.2c0,7.8-6.4,14.2-14.2,14.2c-7.8,0-14.2-6.4-14.2-14.2
	C-241.5,417.3-235.1,410.9-227.3,410.9z"/>
</svg>
