<?xml version="1.0" encoding="utf-8"?>
<svg version="1.1" id="Layer_1" xmlns="http://www.w3.org/2000/svg" xmlns:xlink="http://www.w3.org/1999/xlink" x="0px" y="0px"
	 viewBox="-531.5 835.6 26.9 21" style="enable-background:new -531.5 835.6 26.9 21;" xml:space="preserve">
<g>
	<path fill="currentColor" d="M-531.5,840.7c0.1,0.1,0.2,0.1,0.3,0.1c2.4,1.1,4.7,2.1,7.1,3.2c0.2,0.1,0.3,0.1,0.5,0c4.8-1.9,9.5-3.9,14.3-5.8
		c1.1-0.5,2.2-0.9,3.3-1.3l0,0c-4.7,3-9.4,6-14.1,9c0.1,0.1,0.2,0.1,0.3,0.1c3.5,1.7,7,3.3,10.5,5c0.2,0.1,0.3,0.1,0.3-0.2
		c1.3-4.6,2.7-9.2,4-13.8c0.1-0.5,0.3-0.9,0.4-1.4C-513.5,837.4-522.5,839-531.5,840.7z M-523.4,847.5c-0.3-0.1-0.3-0.1-0.3,0.2
		c-0.1,2.9-0.1,5.9-0.2,8.8c0,0,0,0.1,0.1,0.1c2.4-2.1,4.8-4.1,7.2-6.2c-0.1,0-0.2-0.1-0.3-0.1
		C-519.1,849.4-521.3,848.5-523.4,847.5z"/>
</g>
</svg>
