<?xml version="1.0" encoding="utf-8"?>
<svg version="1.1" id="Layer_1" xmlns="http://www.w3.org/2000/svg" xmlns:xlink="http://www.w3.org/1999/xlink" x="0px" y="0px"
	 viewBox="-488.2 805.1 27.5 39.3" style="enable-background:new -488.2 805.1 27.5 39.3;" xml:space="preserve">
<g>
	<path fill="currentColor" d="M-463.1,841c0-0.3,0.1-0.6,0.1-1.1c0.2-2.1,0.4-4.2,0.6-6.3c0.2-2.4,0.5-4.8,0.6-7.3c0.2-2.1,0.4-4.3,0.5-6.5
		c0.2-2.2,0.3-4.4,0.6-6.6c0-0.3-0.1-0.4-0.4-0.4c-8.9,0-17.8,0-26.8,0c-0.3,0-0.4,0.1-0.3,0.4c0.2,1.3,0.2,2.6,0.4,4
		c0.2,2.7,0.5,5.4,0.7,8.1c0.2,2.4,0.4,4.8,0.6,7.3c0.3,2.8,0.6,5.5,0.7,8.3c0,0.2,0.1,0.4,0.3,0.5c2.7,0.8,5.5,1.5,8.2,2.3
		c0.9,0.3,1.7,0.4,2.5,0.7c0.1,0,0.2,0,0.4-0.1c0.7-0.2,1.4-0.4,2-0.6c2.9-0.9,5.8-1.6,8.7-2.5C-463.1,841.4-463.1,841.3-463.1,841
		z M-467.5,836.6c-2.3,0.6-4.4,1.3-6.7,1.9c-0.1,0-0.3,0-0.4,0c-2.1-0.6-4.3-1.2-6.5-1.9c-0.3-0.1-0.3-0.3-0.3-0.5
		c-0.1-1.6-0.3-3.2-0.4-4.8c0-0.2,0-0.3,0.3-0.3c1,0,1.9,0,2.9,0c0.2,0,0.3,0,0.3,0.3c0,0.7,0.1,1.5,0.2,2.2c0,0.2,0.1,0.4,0.3,0.3
		c1.1,0.3,2.3,0.6,3.3,0.9c0.1,0,0.3,0,0.4,0c1.2-0.4,2.3-0.6,3.4-1c0.2,0,0.3-0.2,0.3-0.4c0.1-1.3,0.2-2.6,0.3-3.7
		c0-0.3,0-0.4-0.4-0.5c-3.6,0-7.4,0-11,0c-0.4,0.1-0.4-0.1-0.5-0.4c-0.3-3.3-0.5-6.5-0.9-9.8c-0.1-0.4,0.1-0.3,0.3-0.3
		c2.7,0,5.5,0,8.3,0.1l0,0c2.7,0,5.5,0,8.3-0.1c0.2,0,0.3,0,0.3,0.3c-0.1,0.9-0.2,1.9-0.3,2.8c0,0.3-0.2,0.4-0.4,0.4
		c-4.2,0-8.2,0-12.3,0c-0.4,0-0.4,0-0.4,0.5c0.1,0.9,0.2,1.8,0.3,2.8c0,0.3,0.1,0.4,0.4,0.3c3.9,0,7.8-0.1,11.8,0
		c0.3,0,0.4,0.1,0.4,0.4c-0.3,2.7-0.5,5.6-0.7,8.3c-0.1,0.6-0.1,1.2-0.2,1.8C-467.2,836.5-467.4,836.5-467.5,836.6z M-474.1,810.3
		c0,0.2,0.1,0.4,0.3,0.3c0.4-0.1,0.8,0,1.1,0c0.2,0,0.4-0.1,0.3-0.3c-0.1-0.6,0-1.2-0.1-1.8c0-0.1-0.1-0.3,0.1-0.4
		c0.4,0.6,0.8,1.1,1.2,1.7c0.4-0.6,0.8-1.2,1.1-1.8c0.1,0.8,0.1,1.5,0.1,2.2c0,0.2,0.1,0.4,0.3,0.3c0.4,0,0.8,0,1.2,0
		c0.2,0,0.2,0,0.2-0.2c0-1.7,0-3.4,0-5.1c-0.7,0-1.2,0-1.9,0c-0.4,0.6-0.8,1.2-1.1,1.8c-0.4-0.6-0.8-1.2-1.1-1.8
		c-0.5,0-1.1-0.1-1.7,0c0,0.1,0,0.2,0.1,0.4C-474.1,807.2-474.1,808.7-474.1,810.3z M-485.2,810.6c0.4-0.1,0.7,0,1,0
		c0.4,0.1,0.5-0.1,0.4-0.5c0-0.4-0.2-1,0-1.3c0.2-0.2,0.8-0.1,1.2-0.1l0,0c0.2,0,0.2,0,0.2,0.2c0,0.4,0,0.9,0,1.3
		c0,0.2,0.1,0.3,0.3,0.3c0.4-0.1,0.8,0,1.1,0c0.3,0,0.4-0.1,0.4-0.4c0-1.7,0-3.3,0-4.9c-0.5,0-1.2,0-1.7,0c-0.1,0.5,0,1,0,1.4
		c0,0.2,0,0.3-0.3,0.3c-0.3,0-0.7,0-1,0c-0.2,0-0.3-0.1-0.3-0.3c0-0.4,0-1,0-1.4c-0.5,0-1.2,0-1.7,0c0,0.1,0,0.3,0,0.4
		c0,1.5,0,3.1,0,4.5C-485.5,810.5-485.5,810.7-485.2,810.6z M-479.4,807c0.3,0,0.5,0,0.9,0s0.4,0.1,0.4,0.4c0,1,0,1.9,0,2.9
		c0,0.2,0.1,0.3,0.3,0.3c0.4,0,0.8-0.1,1.2,0c0.2,0,0.3-0.1,0.3-0.3c0-1,0-1.9,0-2.9c0-0.2,0.1-0.4,0.4-0.4c0.3,0,0.6-0.1,0.9,0.1
		c0.3,0,0.4-0.1,0.3-0.3c0-0.4,0-0.9,0-1.4c-1.7,0-3.3,0-4.9,0c0.1,0.5,0,1,0,1.4C-479.7,806.9-479.7,807.1-479.4,807z
		 M-467.4,810.2c0,0.2,0.1,0.4,0.3,0.3c1.2,0,2.4,0,3.6,0c0.3,0,0.4-0.1,0.3-0.3c0-0.4-0.1-0.8,0-1.2c0-0.2-0.1-0.3-0.3-0.3
		c-0.5,0-1.2-0.1-1.8-0.1c-0.2,0-0.3,0-0.3-0.3c0.1-1.1,0-2.2,0-3.2c-0.7,0-1.2,0-1.9,0c0,0.1,0,0.2,0,0.4
		C-467.3,807.2-467.4,808.7-467.4,810.2z"/>
</g>
</svg>
