<?xml version="1.0" encoding="utf-8"?>
<svg version="1.1" id="Слой_1" xmlns="http://www.w3.org/2000/svg" xmlns:xlink="http://www.w3.org/1999/xlink" x="0px" y="0px"
	 viewBox="-517.4 809.8 75.7 31.8" style="enable-background:new -517.4 809.8 75.7 31.8;" xml:space="preserve">
<path fill="currentColor" d="M-456.8,829.5c-0.3-0.2-0.4-0.3-0.6,0.1c-0.4,0.7-1.1,1.3-1.7,1.8c-0.9,0.6-1.9,0.6-2.7,0.1c-0.3-0.2-0.4-0.4,0-0.7
	c0.6-0.5,1.3-1.1,1.8-1.6c0.4-0.3,0.9-0.7,1.2-1.1c1.2-1.1,1.3-1.1,0-2.2c-1.2-1.1-2.3-1.7-3.9-1.2c-2.1,0.7-3.3,3-2.7,5.1
	c0.4,1.4,1.2,2.5,2.3,3.2c1.4,1,2.9,1.1,4.4,0.2c0.9-0.5,1.6-1.2,2.2-2C-455.9,830.4-455.8,830.4-456.8,829.5L-456.8,829.5
	L-456.8,829.5z M-463.5,829.6c-0.5-0.7-0.3-2,0.3-2.7c0.6-0.6,1.7-0.6,2.5,0c0.3,0.2,0.4,0.4,0,0.7c-0.4,0.3-0.7,0.6-1.1,1
	c-0.4,0.3-0.7,0.6-1.2,1C-463.2,829.8-463.3,829.9-463.5,829.6L-463.5,829.6z M-454,822.8c-0.6,0.1-1.2,0.3-1.8,0.5
	c-0.4,0.1-0.7,0.3-1.2,0.3c-0.7,0-1.1-0.6-0.7-1.3c0.3-0.6,0.9-1,1.5-1.3c1-0.5,1.1-0.6,0.3-1.6c-0.1-0.2-0.2-0.3-0.5-0.2
	c-1.3,0.6-2.5,1.4-3.1,2.7c-0.4,0.9-0.4,1.8,0.2,2.7c0.5,0.9,1.4,1.2,2.5,1.1c0.5-0.1,1-0.2,1.4-0.4c0.5-0.2,1.1-0.4,1.6-0.4
	c0.4,0,0.6,0.2,0.9,0.5s0.1,0.6-0.1,0.9c-0.5,0.7-1.2,1.2-1.9,1.6c-1,0.5-1,0.4-0.4,1.5c0.2,0.4,0.4,0.4,0.9,0.3
	c0.7-0.3,1.4-0.7,1.9-1.3c0.5-0.4,1-0.9,1.3-1.4c0.6-1,0.7-1.9,0.1-2.8C-452,823-452.8,822.6-454,822.8L-454,822.8L-454,822.8z
	 M-442.1,820c-0.6-1.1-1.5-1.8-2.2-2.8c-0.5-0.6-0.7-1.3-0.3-2.1c0.3-0.5-0.3-0.7-0.5-1.2c-0.2-0.3-0.4-0.2-0.6-0.1
	c-0.6,0.3-1.2,0.1-1.7-0.4c-0.3-0.4-0.6-0.9-1.1-1.2l0,0c-0.3-0.4-0.6-0.9-1.1-1.2c-1.3-1.4-2.6-1.5-3.9-0.4
	c-0.7,0.6-0.7,0.5-0.1,1.4c0.2,0.3,0.4,0.5,0.9,0.2c0.7-0.5,1.3-0.4,1.8,0.2c0.6,0.7,1.2,1.5,1.8,2.1c0.5,0.6,1.2,1.2,2.1,1.2
	c0.2,0,0.3,0.1,0.3,0.3c-0.2,1,0.3,1.7,0.9,2.5c0.5,0.6,1.1,1.3,1.7,2c0.7,0.9,0.7,1.3,0,2.1c-0.2,0.2-0.2,0.4,0,0.6
	c0.2,0.2,0.3,0.4,0.5,0.6c0.1,0.1,0.2,0.2,0.4,0.1C-441.8,823.3-441.3,821.3-442.1,820L-442.1,820L-442.1,820z M-448.8,818.3
	c-0.5,0.1-1.1,0.3-1.6,0.4c-0.4,0.1-0.7,0.2-1.2,0.3s-0.7-0.1-1-0.4c-0.3-0.3-0.1-0.6,0.1-1c0.4-0.5,0.9-1,1.5-1.3
	c0.9-0.4,0.9-0.5,0.4-1.4c0-0.1-0.1-0.1-0.1-0.2c-0.1-0.3-0.2-0.3-0.5-0.2c-1.1,0.5-2,1.2-2.7,2.1c-0.9,1.1-0.9,2.2-0.2,3.2
	c0.6,1,1.5,1.3,2.7,1c0.7-0.2,1.6-0.5,2.3-0.7c0.5-0.1,1-0.1,1.3,0.4c0.2,0.5,0,0.9-0.3,1.2c-0.5,0.5-1.1,1-1.7,1.3
	c-1.1,0.7-1.1,0.7-0.5,1.7l0.1,0.1c0.1,0.4,0.3,0.3,0.6,0.2c0.7-0.3,1.4-0.7,2-1.3c0.5-0.4,1-0.9,1.3-1.5c0.5-0.9,0.6-1.8,0-2.7
	C-446.7,818.5-447.6,818.1-448.8,818.3L-448.8,818.3L-448.8,818.3z M-479.2,834.3c-1.5-0.7-3.2-1-4.9-0.7c-0.2,0-0.4,0.2-0.5-0.1
	c-0.1-0.7-0.3-1.4-0.2-2.1c0.1-1.1,0.5-1.9,1.2-2.8c0.1-0.2,0.3-0.4,0-0.6c-0.5-0.5-1.3-0.5-2-0.5c-0.5,0-0.6,0.4-0.7,0.7
	c-1,1.8-2.6,3.1-4.1,4.6c-0.1-0.5-0.2-1.1-0.2-1.5c0.1-1.1,0.4-2.1,1.2-3c0.3-0.4,0.2-0.6-0.2-0.9c-0.4-0.2-0.9-0.2-1.3-0.3
	c-0.5-0.1-1,0-1.1,0.5c-0.1,0.2-0.2,0.4-0.3,0.6c-1.9,2.3-3.7,4.8-5.8,7c-0.1,0.1-0.2,0.2-0.4,0.2c0.1-0.4,0.2-0.7,0.3-1.2
	c0.6-1.2,1.3-2.3,2-3.5c0.3-0.6,0-1.2-0.6-1.2h-0.4c0.1-0.2,0.1-0.3,0.2-0.5c0.2-0.6,0.4-1.3-0.1-1.9c-0.5-0.6-1.2-0.5-1.9-0.4
	c-1.1,0.2-2,0.6-2.9,1.3c-0.1,0.1-0.2,0.2-0.4,0.2c-1.4,0.3-2.9,0.6-4.3,1.1c-0.2,0.1-0.3,0-0.4-0.2c-0.3-0.6-0.7-1.2-1.2-1.7
	c-0.7-1.1-1.6-2.1-2.3-3.3c-1.4-2.3-1.2-4.5,0.7-6.3c0.6-0.6,1.4-1.1,2.2-1.5c3.9-1.8,8.2-2.8,12.6-2.5c1.7,0.1,3.4,0.5,4.9,1.5
	c1.4,1,1.7,2.1,1.1,3.6c-0.5,1.1-1.4,1.8-2.3,2.5c-2.5,1.6-5.2,2-8.1,1.8c-1.9-0.2-3.6-0.6-4.7-2.6c-0.1-0.1-0.1-0.2-0.3-0.1
	c-0.1,0-0.2,0.1-0.2,0.3c0,0.3,0.1,0.7,0.2,1.1c0.5,1,1.3,1.7,2.3,2.1c2.1,0.9,4.3,1.2,6.5,1c3.3-0.2,6-1.6,8-4.3
	c1.1-1.4,1.6-2.9,1.1-4.6c-0.4-1.4-1.4-2.3-2.6-3.1c-0.6-0.4-1.5-0.7-2.2-1.2c-0.9-0.2-1.7-0.4-2.5-0.6c-0.9,0-1.8-0.2-2.7-0.2
	c-5.2,0.1-10.2,1.1-14.7,4.1c-1.3,0.9-2.3,1.9-3,3.3l-0.1,0.1c-0.1,0.4-0.2,0.7-0.3,1.2c0,2.9,1.6,4.9,3.3,6.9
	c0.7,1,1.5,1.8,2.2,2.8c0.4,0.5,0.4,0.5-0.2,0.6c-1.5,0.3-3.1,0.7-4.5,1.4c-1.3,0.6-2.6,1.4-3.2,2.8c-0.3,0.7-0.5,1.6-0.3,2.5
	c0.2,0.7,0.5,1.3,1.3,1.6c0.1,0,0.1,0.1,0.2,0.2c0.5,0.1,1.1,0.3,1.5,0.4c1.1,0,2.1,0,3.2-0.4c3-1.1,4.9-4.2,4.7-7.3
	c0-0.2-0.1-0.3,0.2-0.4c0.7-0.2,1.5-0.4,2.3-0.6c-0.5,1-1,1.7-1.3,2.7c-0.4,1.3-0.4,2.5,0,3.7s1.5,1.5,2.5,0.7
	c0.7-0.6,1.3-1.4,1.9-2.1c0.1-0.1,0.2-0.2,0.3-0.3c-0.2,0.6-0.4,1.2-0.4,1.8c0,0.2,0,0.5,0.1,0.7c0.2,0.5,0.6,0.9,1.3,0.6
	c0.6-0.2,1.2-0.6,1.6-1.1c1.8-1.8,3.4-3.7,5-5.8c0.1-0.2,0.3-0.3,0.4-0.5v0.4c-0.1,1,0,2,0.2,3c0.1,0.3,0,0.4-0.2,0.6
	c-1,0.9-2.1,1.5-3.1,2.2c-0.4,0.3-0.9,0.5-0.7,1.2c0.1,0.6,0.7,0.6,1.2,0.7c1.2,0.2,2.2,0.1,3.3-0.4c1.2-0.5,1.8-1.6,1.7-2.9
	c-0.1-1.2,0.2-1.7,0.9-2.2c0.9-0.6,1.6-1.5,2.3-2.3c0.1-0.1,0.1-0.1,0.3-0.3c-0.1,1.2-0.1,2.2,0.2,3.3c0.1,0.2-0.2,0.2-0.3,0.3
	c-1,0.5-1.9,1.1-2.6,2c-0.3,0.4-0.5,0.9-0.6,1.3c-0.1,0.5,0.2,1,0.7,1.2c1.1,0.2,3.5-0.2,4.5-1.6c0.4-0.6,0.5-1.3,0.4-2
	c0-0.3,0-0.4,0.3-0.4c2.2-0.1,4.2,0.5,5.9,1.9c0.6,0.5,1.1,1.3,1.2,2.1c0.2,1.2-0.4,2-1.6,2.5c-0.2,0.1-0.5,0-0.5,0.3
	c0.1,0.3,0.4,0.2,0.6,0.1c1-0.1,1.6-0.7,2.1-1.5c0.1-0.4,0.2-0.7,0.3-1.2c0-0.3,0-0.7-0.1-1.1C-476.3,836.2-477.6,835.1-479.2,834.3
	L-479.2,834.3L-479.2,834.3z M-508.1,831.3c0,0.4,0,0.7-0.2,1.1c-0.6,2.3-2.9,4.1-5.2,3.9c-1.2,0-1.6-0.7-1.2-1.7
	c0.4-1,1.2-1.6,2.1-2.1c1.3-0.6,2.7-1.1,4.1-1.5C-508.1,830.9-508,831-508.1,831.3L-508.1,831.3L-508.1,831.3z M-500.5,832.3
	c-0.6,0.7-1.2,1.6-1.8,2.3c-0.1,0.1-0.2,0.2-0.3,0.3c-0.3,0.2-0.5,0.1-0.5-0.2c-0.1-0.5,0-1,0.1-1.4c0.5-1.8,1.6-3.2,3-4.4
	c0.3-0.2,0.7-0.4,1.2-0.5c0.2,0,0.4-0.1,0.5,0.1s0,0.4,0,0.5C-499,830.2-499.8,831.2-500.5,832.3L-500.5,832.3L-500.5,832.3z
	 M-494.6,837.3c0.9-0.5,1.7-1.1,2.5-1.7C-492.2,836.4-493.6,837.4-494.6,837.3L-494.6,837.3z M-488.1,837.6c-0.3,0-0.3-0.1-0.2-0.3
	c0.5-0.9,1.3-1.6,2.2-2C-485.9,836.3-487.1,837.6-488.1,837.6L-488.1,837.6z M-462.6,834.5c-1,0.3-1.1,0.3-1.7-0.4
	c-1.1-1.3-2-2.5-3.1-3.7s-2.2-2.6-3.3-3.9c-0.2-0.2-0.3-0.4-0.6-0.1c-0.7,0.7-1.6,1.4-2.3,2c-1.2,1.2-1.3,2.2-0.4,3.6
	c0.6,1,1.5,1.8,2.1,2.7c0.4,0.5,0.7,1.2,0.3,1.6c-0.5,0.7,0,1.1,0.3,1.5c0.2,0.2,0.3,0.2,0.5,0.1c0.9-0.3,1.3-0.2,1.9,0.4
	c0.6,0.7,1.3,1.5,1.9,2.2c1.3,1.5,2.6,1.5,4.1,0.4c0.5-0.4,0.5-0.6,0.1-1.2c-0.3-0.4-0.6-0.5-1.1-0.1c-0.5,0.4-1.1,0.3-1.5-0.2
	c-0.6-0.6-1.2-1.4-1.7-2c-0.6-0.7-1.4-1.5-2.6-1.5c-0.2,0-0.2-0.1-0.2-0.3c0.2-1-0.3-1.8-0.9-2.5c-0.5-0.6-1.1-1.2-1.5-1.8
	c-0.1-0.2-0.3-0.4-0.4-0.5c-0.4-0.6-0.2-1.4,0.7-1.9c0.6-0.4,0.7,0.3,1,0.5c1.8,2.1,3.6,4.4,5.4,6.5c1,1.1,1.7,1.3,2.9,0.6
	c1.2-0.5,1.2-1,0.4-1.9C-462.4,834.4-462.5,834.4-462.6,834.5L-462.6,834.5L-462.6,834.5z"/>
</svg>
