<?xml version="1.0" encoding="utf-8"?>
<!-- Generator: Adobe Illustrator 19.0.0, SVG Export Plug-In . SVG Version: 6.00 Build 0)  -->
<svg version="1.1" id="Layer_1" xmlns="http://www.w3.org/2000/svg" xmlns:xlink="http://www.w3.org/1999/xlink" x="0px" y="0px"
	 viewBox="-213.6 401.9 34.1 38" style="enable-background:new -213.6 401.9 34.1 38;" xml:space="preserve">
<style type="text/css">
	.st0{fill:#0C52A4;}
</style>
<g>
	<g>
		<path class="st0" d="M-179.7,420.3c-0.7-4.6-2.9-8.3-6.6-11.1c-2.6-2-5.6-3.1-8.9-3.4c-1.1-0.1-2.1-0.1-3.2,0
			c-0.2,0-0.3,0-0.3-0.2c0-0.1-0.2-0.2,0-0.4c1-1.1,0.3-3-1.5-3.3c-1.1-0.2-2.2,0.5-2.5,1.5c-0.3,0.9,0.2,1.9,1.1,2.4
			c0.2,0.1,0.3,0.1,0.3,0.4c0,0.3-0.2,0.3-0.4,0.3c-8.2,2.6-13.3,11.1-11.6,19.6c1.6,8,8.6,13.9,16.3,13.8c1.7,0,3-0.2,4.2-0.4
			C-184.2,437.5-178.4,429.3-179.7,420.3z M-201.3,405.3c-0.6-0.4-1-1-0.8-1.7c0.1-0.7,0.8-1.2,1.6-1.2c1.3,0,2.1,1.3,1.5,2.3
			c0,0.2-0.1,0.3-0.4,0.2c-0.5-0.2-1-0.1-1.4,0.4C-201,405.5-201.1,405.5-201.3,405.3z M-196.5,437.2c-7.9,0-14.3-6.5-14.3-14.4
			c0-8,6.4-14.4,14.3-14.4c7.9,0,14.3,6.5,14.3,14.4C-182.2,430.8-188.6,437.2-196.5,437.2z M-189.1,412.3c-0.2-0.1-0.3-0.1-0.3,0.1
			c-0.2,0.3-0.3,0.5-0.5,0.8c-0.1,0.1-0.2,0.2-0.3,0.1c-0.2-0.1-0.2-0.2-0.1-0.4c0.1-0.2,0.3-0.4,0.4-0.6c0.2-0.3,0.2-0.4-0.1-0.6
			c-2-1.1-4.1-1.7-6.4-1.7c-0.7,0-1.4,0.1-2.1,0.2c-0.3,0-0.3,0.2-0.3,0.4c0.1,0.2,0.1,0.5,0.2,0.8c0,0.1,0,0.3-0.1,0.3
			c-0.2,0.1-0.3-0.1-0.3-0.3c-0.1-0.3-0.1-0.6-0.2-0.8c0-0.2-0.1-0.3-0.3-0.2c-0.6,0.2-1.3,0.4-1.9,0.6c-2.2,1-4,2.4-5.4,4.4
			c-0.1,0.2-0.1,0.3,0.1,0.4c0.3,0.1,0.5,0.3,0.8,0.5c0.1,0.1,0.2,0.2,0.1,0.3c-0.1,0.1-0.2,0.1-0.3,0c-0.2-0.2-0.5-0.3-0.7-0.5
			c-0.2-0.2-0.4-0.1-0.5,0.1c-0.9,1.5-1.4,3.2-1.7,4.9c-0.2,1.2-0.1,2.5,0.1,3.7c0,0.3,0.1,0.4,0.4,0.3c0.2-0.1,0.4-0.1,0.7-0.2
			c0.2,0,0.4-0.1,0.5,0.1c0.1,0.2-0.2,0.3-0.3,0.3c-0.3,0.1-0.5,0.1-0.8,0.2c-0.2,0-0.3,0.1-0.2,0.4c0.8,3.1,2.5,5.5,5.1,7.3
			c0.2,0.1,0.3,0.1,0.4-0.1c0.2-0.3,0.4-0.6,0.6-0.9c0.1-0.1,0.2-0.3,0.4-0.1c0.2,0.1,0.1,0.3,0,0.4c-0.2,0.3-0.3,0.5-0.5,0.8
			s-0.1,0.4,0.1,0.5c0.5,0.3,1.1,0.6,1.7,0.8c2.3,0.9,4.6,1.1,7,0.7c0.2,0,0.3-0.1,0.2-0.3c-0.1-0.3-0.1-0.5-0.2-0.8
			c0-0.2-0.1-0.4,0.2-0.4c0.2,0,0.3,0.2,0.3,0.3c0.1,0.3,0.1,0.5,0.2,0.8c0,0.2,0.1,0.3,0.3,0.2c3-0.8,5.4-2.6,7.3-5.2
			c0.1-0.2,0.1-0.3-0.1-0.3c-0.2-0.1-0.3-0.2-0.5-0.3s-0.4-0.2-0.3-0.4c0.2-0.3,0.4,0,0.5,0.1c0.2,0.1,0.4,0.2,0.5,0.3
			c0.1,0.1,0.2,0.1,0.3-0.1c1.6-2.7,2-5.7,1.5-8.8c0-0.2-0.1-0.2-0.3-0.2c-0.2,0.1-0.4,0.1-0.6,0.1c-0.2,0-0.4,0.1-0.4-0.1
			c-0.1-0.2,0.1-0.3,0.3-0.3s0.4-0.1,0.6-0.1c0.2,0,0.3-0.1,0.2-0.3C-184.9,416.5-186.6,414.1-189.1,412.3z M-204.6,424.3
			c1.3-0.6,2.5-1.2,3.8-1.8c0.3-0.1,0.5-0.3,0.5-0.6c0-0.1,0-0.3,0.1-0.4c0.3-0.5,0.1-0.8-0.3-1.1c-0.4-0.3-0.7-0.7-1-1.1
			c0.6,0.2,1.2,0.4,1.8,0.6c0.3,0.1,0.5,0.1,0.7-0.1s0.4-0.3,0.6-0.4c0.3-0.1,0.3-0.3,0.3-0.6c0-1.3,0-2.6,0-3.8v-0.4c0,0,0,0,0.1,0
			c0.1,0.2,0.2,0.4,0.3,0.6c0.5,1.1,1,2.1,1.5,3.2c0.1,0.3,0.2,0.5,0.6,0.5c-0.1,0.3-0.4,0.3-0.6,0.3c-2.1-0.1-3.7,1.5-3.7,3.5
			c0,0.3,0,0.6,0.1,0.9c0.1,0.5,0,0.7-0.5,0.7C-201.8,424.4-203.2,424.4-204.6,424.3L-204.6,424.3z M-203.8,431.8
			c0,0.1-0.1,0.1-0.2,0.2c0-0.2,0.1-0.3,0.2-0.4c1.9-3.2,3.9-6.5,5.8-9.7c0.1-0.2,0.2-0.3,0.3-0.4c2.8-2.6,5.6-5.2,8.3-7.9
			c0,0,0.1-0.1,0.2-0.1c0,0.2-0.1,0.3-0.1,0.4c-1.9,3.2-3.9,6.5-5.8,9.7c-0.1,0.2-0.2,0.3-0.3,0.4
			C-198.3,426.6-201,429.2-203.8,431.8z M-188.7,421.2c-1.2,0.5-2.3,1.1-3.5,1.6c-0.2,0.1-0.4,0.2-0.4,0.5c0,0.2,0,0.4-0.1,0.5
			c-0.2,0.5-0.1,0.7,0.3,1.1c0.4,0.4,0.8,0.8,1.1,1.3c-0.6-0.2-1.2-0.5-1.8-0.7c-0.2-0.1-0.4-0.1-0.5,0.1c-0.1,0.1-0.2,0.3-0.4,0.3
			c-0.4,0.2-0.5,0.6-0.5,1c0,1.2,0,2.4,0,3.7c0,0.1,0,0.2,0,0.4c0,0,0,0-0.1,0c-0.2-0.5-0.5-1.1-0.7-1.6c-0.3-0.7-0.6-1.4-0.9-2.1
			c-0.1-0.3-0.3-0.5-0.6-0.5c-0.2,0-0.3,0-0.5-0.1c0.1-0.2,0.2-0.3,0.5-0.3c2.6,0.3,4.6-2.2,3.7-4.7c-0.2-0.5-0.1-0.7,0.5-0.7
			c1.3,0,2.6,0,3.9,0.1c0.1,0,0.2,0,0.3,0C-188.5,421.1-188.6,421.1-188.7,421.2z M-196.5,421.7c-0.6,0-1.1,0.5-1.1,1.1
			s0.5,1.1,1.1,1.1c0.6,0,1.1-0.5,1.1-1.1S-195.9,421.7-196.5,421.7z"/>
	</g>
</g>
</svg>
