<svg xmlns="http://www.w3.org/2000/svg" xmlns:xlink="http://www.w3.org/1999/xlink" preserveAspectRatio="xMidYMid" width="30" height="30" viewBox="0 0 30 30">
	<path d="M30.000,13.817 C30.001,14.113 29.931,14.192 29.631,14.190 C27.043,14.177 24.455,14.183 21.867,14.183 C19.290,14.183 16.713,14.178 14.136,14.189 C13.846,14.191 13.756,14.126 13.757,13.820 C13.768,10.111 13.768,6.401 13.757,2.691 C13.756,2.396 13.849,2.315 14.125,2.276 C16.997,1.870 19.867,1.451 22.737,1.035 C25.085,0.694 27.432,0.353 29.778,0.007 C29.941,-0.017 30.013,0.013 29.994,0.185 C29.988,0.241 29.993,0.298 29.993,0.354 C29.993,4.842 29.990,9.329 30.000,13.817 ZM11.749,27.388 C9.526,27.058 7.300,26.738 5.076,26.414 C3.474,26.181 1.874,25.939 0.270,25.717 C0.046,25.686 0.003,25.605 0.003,25.401 C0.009,22.312 0.011,19.222 0.001,16.133 C-0.000,15.866 0.090,15.822 0.328,15.823 C2.241,15.832 4.154,15.828 6.067,15.828 C7.968,15.828 9.869,15.833 11.771,15.822 C12.037,15.821 12.108,15.893 12.108,16.160 C12.099,19.801 12.097,23.443 12.109,27.084 C12.111,27.393 12.016,27.428 11.749,27.388 ZM11.762,14.188 C9.860,14.179 7.959,14.183 6.057,14.183 C4.155,14.183 2.254,14.176 0.352,14.190 C0.069,14.191 -0.000,14.112 0.001,13.834 C0.011,10.778 0.009,7.723 0.003,4.667 C0.003,4.435 0.031,4.322 0.311,4.283 C3.217,3.875 6.119,3.447 9.023,3.025 C9.946,2.891 10.871,2.765 11.792,2.616 C12.055,2.573 12.108,2.645 12.107,2.901 C12.099,6.554 12.098,10.207 12.109,13.861 C12.109,14.144 12.012,14.189 11.762,14.188 ZM14.096,15.824 C16.695,15.831 19.294,15.828 21.893,15.828 C24.481,15.828 27.069,15.832 29.657,15.823 C29.911,15.822 30.000,15.874 30.000,16.153 C29.991,20.674 29.992,25.195 29.998,29.717 C29.998,29.966 29.963,30.029 29.687,29.989 C25.249,29.336 20.810,28.698 16.371,28.056 C15.592,27.944 14.814,27.825 14.034,27.721 C13.825,27.693 13.760,27.606 13.760,27.394 C13.766,23.640 13.767,19.885 13.758,16.131 C13.758,15.857 13.864,15.823 14.096,15.824 Z" fill="currentColor" fill-rule="evenodd"/>
</svg>