<svg xmlns="http://www.w3.org/2000/svg" xmlns:xlink="http://www.w3.org/1999/xlink" preserveAspectRatio="xMidYMid" width="32" height="32" viewBox="0 0 32 32">
	<path d="M16.002,-0.001 C24.827,0.000 32.002,7.178 32.001,16.001 C31.999,24.824 24.819,32.002 15.997,32.000 C7.172,31.997 -0.003,24.820 -0.000,15.996 C0.002,7.169 7.177,-0.003 16.002,-0.001 ZM7.867,15.521 C7.881,16.513 8.025,17.485 8.321,18.432 C8.842,20.102 9.601,21.649 10.745,22.985 C11.299,23.633 11.942,24.170 12.839,24.269 C13.486,24.341 14.077,24.118 14.653,23.873 C15.688,23.434 16.718,23.413 17.762,23.830 C18.008,23.929 18.268,23.995 18.516,24.090 C19.634,24.512 20.588,24.222 21.399,23.401 C22.532,22.254 23.317,20.890 23.860,19.377 C23.923,19.200 23.890,19.133 23.725,19.046 C21.131,17.681 20.574,14.268 22.596,12.152 C22.808,11.931 23.029,11.718 23.257,11.513 C23.384,11.399 23.388,11.314 23.275,11.183 C22.247,9.986 20.983,9.348 19.372,9.491 C18.634,9.556 17.938,9.786 17.245,10.018 C16.524,10.260 15.816,10.283 15.090,10.053 C14.672,9.920 14.244,9.815 13.817,9.715 C11.368,9.143 9.519,10.065 8.485,12.367 C8.035,13.370 7.882,14.432 7.867,15.521 ZM19.603,5.985 C19.622,5.075 19.624,5.083 18.986,5.266 C16.732,5.911 15.942,7.610 15.779,9.538 C15.760,9.755 15.864,9.780 16.038,9.767 C16.575,9.731 17.097,9.633 17.553,9.332 C18.843,8.479 19.486,7.254 19.603,5.985 Z" fill="currentColor" fill-rule="evenodd"/>
</svg>