<?xml version="1.0" encoding="utf-8"?>
<svg version="1.1" id="Layer_1" xmlns="http://www.w3.org/2000/svg" xmlns:xlink="http://www.w3.org/1999/xlink" x="0px" y="0px"
	 viewBox="-532.2 810.6 35.5 35.5" style="enable-background:new -532.2 810.6 35.5 35.5;" xml:space="preserve">
<path fill="currentColor" d="M-523.6,825.5c0.1-0.4,0.3-0.8,0.6-1.1c0.4-0.4,0.9-0.6,1.4-0.6c3.1,0,6.2,0,9.3,0c1.7,0,3.4,0,5.1,0c0.9,0,1.6,0.5,1.9,1.3
	c0,0.1,0.1,0.2,0.1,0.3c0,2.4,0,4.8,0,7.3c-0.1,0.4-0.2,0.7-0.5,1c-0.4,0.4-0.9,0.6-1.5,0.6c-4.8,0-9.7,0-14.5,0
	c-0.9,0-1.7-0.6-1.9-1.5v-0.1C-523.6,830.3-523.6,827.9-523.6,825.5z M-522.2,833.4c0.2,0.1,0.4,0.1,0.6,0.1c4.8,0,9.7,0,14.5,0
	c0.2,0,0.3,0,0.5-0.1c0.1,0,0.2-0.1,0.1-0.2c-1.3-1.5-2.5-3.1-3.8-4.6c-0.1-0.1-0.2-0.1-0.3,0c-0.9,0.7-1.7,1.4-2.6,2.1
	c-0.7,0.5-1.6,0.5-2.3,0c-0.9-0.7-1.7-1.3-2.6-2c-0.1-0.1-0.2-0.1-0.3,0c-1,1.2-1.9,2.4-2.9,3.6
	C-521.6,832.7-521.9,833.1-522.2,833.4z M-506.7,824.6c-0.2-0.1-0.4-0.1-0.6-0.1c-2.7,0-5.4,0-8.1,0c-2.1,0-4.1,0-6.2,0
	c-0.2,0-0.3,0-0.5,0.1c0.1,0,0.1,0.1,0.1,0.1c2.3,1.8,4.5,3.6,6.8,5.4c0.5,0.4,0.9,0.4,1.4,0c1.9-1.5,3.9-3,5.8-4.5
	C-507.5,825.3-507.1,824.9-506.7,824.6z M-522.8,832.9C-522.8,832.8-522.7,832.8-522.8,832.9c0.8-1,1.5-1.8,2.2-2.7
	c0.5-0.6,1-1.3,1.6-1.9c0.1-0.1,0.1-0.1,0-0.2c-0.1-0.1-0.3-0.2-0.4-0.3c-1-0.8-2.1-1.6-3.1-2.5c-0.1-0.1-0.2-0.1-0.2,0.1
	s-0.1,0.3-0.1,0.5c0,2.2,0,4.4,0,6.6C-522.8,832.5-522.8,832.7-522.8,832.9z M-506,832.8L-506,832.8c0.1-0.1,0.1-0.2,0.1-0.3
	c0-2.2,0-4.5,0-6.7c0-0.2,0-0.4-0.1-0.6c0,0-0.1,0-0.1,0.1c-1.2,0.9-2.4,1.9-3.6,2.8c-0.1,0.1-0.1,0.1,0,0.2c0.8,1,1.6,1.9,2.4,2.9
	C-507,831.7-506.5,832.2-506,832.8z"/>
<path style="fill:none;stroke:currentColor;stroke-width:1.3154;stroke-miterlimit:10;" d="M-514.4,811.3c9.4,0,17.1,7.7,17.1,17.1c0,9.4-7.7,17.1-17.1,17.1c-9.4,0-17.1-7.7-17.1-17.1
	C-531.5,819-523.8,811.3-514.4,811.3z"/>
</svg>
