<?xml version="1.0" encoding="utf-8"?>
<!-- Generator: Adobe Illustrator 19.0.0, SVG Export Plug-In . SVG Version: 6.00 Build 0)  -->
<svg version="1.1" id="Layer_1" xmlns="http://www.w3.org/2000/svg" xmlns:xlink="http://www.w3.org/1999/xlink" x="0px" y="0px"
	 viewBox="-211.5 405.8 30 30" style="enable-background:new -211.5 405.8 30 30;" xml:space="preserve">
<style type="text/css">
	.st0{fill:#F9A562;}
</style>
<g>
	<g>
		<path class="st0" d="M-197.4,420.1c2.6,0,5.2,0,7.7,0c2.6,0,5.2,0,7.8,0c0.3,0,0.4-0.1,0.4-0.4c0-4.5,0-9,0-13.5
			c0-0.1,0-0.1,0-0.2c0-0.2-0.1-0.2-0.2-0.2c-2.3,0.3-4.7,0.7-7,1c-2.9,0.4-5.7,0.8-8.6,1.2c-0.3,0-0.4,0.1-0.4,0.4
			c0,3.7,0,7.4,0,11.1C-197.7,420-197.7,420.1-197.4,420.1z M-181.8,421.7c-2.6,0-5.2,0-7.8,0c-2.6,0-5.2,0-7.8,0
			c-0.2,0-0.3,0-0.3,0.3c0,3.8,0,7.5,0,11.3c0,0.2,0.1,0.3,0.3,0.3c0.8,0.1,1.6,0.2,2.3,0.3c4.4,0.6,8.9,1.3,13.3,1.9
			c0.3,0,0.3,0,0.3-0.3c0-4.5,0-9,0-13.6C-181.5,421.8-181.6,421.7-181.8,421.7z M-211.1,420.1c1.9,0,3.8,0,5.7,0c1.9,0,3.8,0,5.7,0
			c0.2,0,0.3,0,0.3-0.3c0-3.7,0-7.3,0-11c0-0.3-0.1-0.3-0.3-0.3c-0.9,0.1-1.8,0.3-2.8,0.4c-2.9,0.4-5.8,0.9-8.7,1.3
			c-0.3,0-0.3,0.2-0.3,0.4c0,3.1,0,6.1,0,9.2C-211.5,420-211.4,420.1-211.1,420.1z M-199.7,421.7c-1.9,0-3.8,0-5.7,0
			c-1.9,0-3.8,0-5.7,0c-0.2,0-0.3,0-0.3,0.3c0,3.1,0,6.2,0,9.3c0,0.2,0,0.3,0.3,0.3c1.6,0.2,3.2,0.5,4.8,0.7c2.2,0.3,4.4,0.6,6.7,1
			c0.3,0,0.4,0,0.4-0.3c0-3.6,0-7.3,0-10.9C-199.4,421.8-199.5,421.7-199.7,421.7z"/>
	</g>
</g>
</svg>
