<?xml version="1.0" encoding="utf-8"?>
<!-- Generator: Adobe Illustrator 19.0.0, SVG Export Plug-In . SVG Version: 6.00 Build 0)  -->
<svg version="1.1" id="Layer_1" xmlns="http://www.w3.org/2000/svg" xmlns:xlink="http://www.w3.org/1999/xlink" x="0px" y="0px"
	 viewBox="-212.5 404.9 32 32" style="enable-background:new -212.5 404.9 32 32;" xml:space="preserve">
<style type="text/css">
	.st0{fill:#F47722;}
</style>
<path class="st0" d="M-196.5,404.9c8.8,0,16,7.2,16,16s-7.2,16-16,16s-16-7.2-16-16S-205.3,404.9-196.5,404.9z M-204.6,420.4
	c0,1,0.2,2,0.5,2.9c0.5,1.7,1.3,3.2,2.4,4.6c0.6,0.6,1.2,1.2,2.1,1.3c0.6,0.1,1.2-0.2,1.8-0.4c1-0.4,2.1-0.5,3.1,0
	c0.2,0.1,0.5,0.2,0.8,0.3c1.1,0.4,2.1,0.1,2.9-0.7c1.1-1.1,1.9-2.5,2.5-4c0.1-0.2,0-0.2-0.1-0.3c-2.6-1.4-3.2-4.8-1.1-6.9
	c0.2-0.2,0.4-0.4,0.7-0.6c0.1-0.1,0.1-0.2,0-0.3c-1-1.2-2.3-1.8-3.9-1.7c-0.7,0.1-1.4,0.3-2.1,0.5c-0.7,0.2-1.4,0.3-2.2,0
	c-0.4-0.1-0.8-0.2-1.3-0.3c-2.4-0.6-4.3,0.4-5.3,2.7C-204.5,418.3-204.6,419.3-204.6,420.4z M-192.9,410.9c0-0.9,0-0.9-0.6-0.7
	c-2.3,0.6-3,2.3-3.2,4.3c0,0.2,0.1,0.2,0.3,0.2c0.5,0,1.1-0.1,1.5-0.4C-193.7,413.4-193,412.2-192.9,410.9z"/>
</svg>
