<?xml version="1.0" encoding="utf-8"?>
<!-- Generator: Adobe Illustrator 19.0.0, SVG Export Plug-In . SVG Version: 6.00 Build 0)  -->
<svg version="1.1" id="Layer_1" xmlns="http://www.w3.org/2000/svg" xmlns:xlink="http://www.w3.org/1999/xlink" x="0px" y="0px"
	 viewBox="-211.5 404.9 28 31.1" style="enable-background:new -211.5 404.9 28 31.1;" xml:space="preserve">
<style type="text/css">
	.st0{fill:#EE2C24;}
</style>
<path class="st0" d="M-197.7,404.9c6.2,0,11,3.4,13.1,9.1c1.9,5.4,1.4,10.6-1.6,15.5c-1.7,2.8-4.2,4.9-7.4,5.8
	c-4.9,1.5-9.4,0.4-13.1-3.1c-2.4-2.3-3.8-5.2-4.4-8.5c-0.7-3.4-0.5-6.9,0.9-10.1c1.7-4.2,4.7-7,9.2-8.2
	C-199.9,405-198.7,404.9-197.7,404.9z M-191.6,419.5c0-0.9-0.1-1.9-0.1-2.8c-0.2-2-0.6-3.9-1.3-5.7c-0.5-1.3-1.2-2.5-2.3-3.3
	c-1.4-1.1-3.1-1.1-4.4,0c-0.7,0.6-1.2,1.3-1.7,2.1c-1.3,2.4-1.8,5.1-2,7.8c-0.2,2.1-0.1,4.2,0.2,6.3c0.3,2,0.8,4,1.7,5.9
	c0.5,1,1.1,1.8,2,2.5c1.2,0.9,2.5,0.9,3.7,0.1c0.5-0.3,0.8-0.7,1.2-1.1c0.8-1,1.3-2.1,1.7-3.3C-191.9,425.2-191.6,422.4-191.6,419.5
	z"/>
</svg>
