<?xml version="1.0" encoding="utf-8"?>
<svg version="1.1" xmlns="http://www.w3.org/2000/svg" xmlns:xlink="http://www.w3.org/1999/xlink" x="0px" y="0px"
	 viewBox="-563.8 810.4 30.6 30.5" style="enable-background:new -563.8 810.4 30.6 30.5;" xml:space="preserve">
<path fill="currentColor" d="M-552.2,826.7v5.5h5.5c0.9,0,1.7-0.2,2.2-0.7s0.8-1.2,0.7-2.1c0-0.9-0.3-1.6-0.7-2c-0.5-0.5-1.3-0.7-2.2-0.7L-552.2,826.7
	L-552.2,826.7z M-552.3,819.6v4.9h5.1c0.7,0,1.4-0.2,1.9-0.7c0.5-0.4,0.7-1,0.8-1.8c0-0.9-0.2-1.5-0.7-1.9c-0.4-0.3-1.1-0.6-1.9-0.5
	H-552.3L-552.3,819.6z M-538.3,810.4h-20.3c-2.8,0-5.1,2.3-5.1,5.1l-0.1,20.3c0,2.8,2.3,5.1,5.1,5.1h20.3c2.8,0,5.1-2.3,5.1-5.1
	l0.1-20.3C-533.2,812.7-535.5,810.5-538.3,810.4L-538.3,810.4L-538.3,810.4z M-541.5,821.4c0,0.9-0.2,1.7-0.7,2.3
	c-0.4,0.7-1.1,1.1-1.9,1.5l0,0c1.1,0.3,2,0.7,2.4,1.5c0.6,0.8,0.8,1.8,0.9,3c0,0.7-0.1,1.3-0.4,2c-0.3,0.6-0.6,1.1-1.1,1.5
	s-1.2,0.8-2,1c-0.8,0.2-1.8,0.4-3,0.4h-8.2v-17.7h8.6c1.6,0,2.9,0.4,3.8,1.1C-541.9,818.8-541.4,819.9-541.5,821.4L-541.5,821.4
	L-541.5,821.4L-541.5,821.4z"/>
</svg>
