<?xml version="1.0" encoding="utf-8"?>
<!-- Generator: Adobe Illustrator 19.0.0, SVG Export Plug-In . SVG Version: 6.00 Build 0)  -->
<svg version="1.1" id="Layer_1" xmlns="http://www.w3.org/2000/svg" xmlns:xlink="http://www.w3.org/1999/xlink" x="0px" y="0px"
	 viewBox="-136.1 417.9 59.4 41.1" style="enable-background:new -136.1 417.9 59.4 41.1;" xml:space="preserve">
<g>
	<g>
		<path d="M-78.4,433c-2.6,0-5.2-0.1-7.8,0c-0.6,0-0.7-0.2-0.7-0.7c0-3.9,0.1-7.9,0.1-11.8c0-1.6-0.9-2.5-2.6-2.6
			c-6.9,0-13.8,0-20.7,0c-7,0-13.9,0-20.8,0c-0.7,0-1.3,0.2-1.7,0.7c-0.5,0.6-0.7,1.2-0.7,2c0,7.6-0.1,15.2-0.1,22.9
			c0,1.2,0,1.2-1.2,1.2c-1,0-1.4,0.3-1.3,1.3c0,3.8,0,7.6-0.1,11.4c0,0.9,0.4,1.3,1.3,1.3c2,0,3.9,0,6,0c1,0,1.4-0.3,1.3-1.3
			c0.1-1.6,0-3.3,0-4.9c0-0.4,0.1-0.6,0.6-0.6c8.9,0,17.8,0,26.7,0.1c0.5,0,0.6,0.1,0.6,0.6c-0.1,1.6,0,3.2,0,4.9
			c0,1.1,0.3,1.5,1.5,1.5c6.6,0.1,13.1,0,19.7,0.1c1.1,0,1.5-0.3,1.5-1.4c0-7.6,0.1-15.2,0.1-22.8C-76.9,433.3-77.3,433-78.4,433z
			 M-133.6,445.8c1.1,0,2.3,0,3.4,0c0,0.1,0,0.1,0,0.2c-1.1,0-2.3,0-3.4,0C-133.6,445.9-133.6,445.9-133.6,445.8z M-131.9,457.8
			c-0.4,0.1-0.5-0.2-0.5-0.5c0.1-0.3,0.2-0.5,0.5-0.6s0.5,0.1,0.6,0.4C-131.3,457.5-131.5,457.7-131.9,457.8z M-128.2,447.5
			c0,1.3,0,2.6,0,4c0,1.3,0,2.6,0,3.9c0,0.4,0,0.6-0.5,0.6c-2,0-4,0-6.2,0c-0.4,0-0.5-0.1-0.5-0.5c0-2.6,0-5.4,0.1-8
			c0-0.4,0.1-0.5,0.5-0.5c2,0,4,0,6.2,0C-128.3,447-128.3,447.2-128.2,447.5z M-100.4,448.9c-8.8,0-17.6-0.1-26.4,0
			c-0.6,0-0.7-0.2-0.7-0.7c0.1-0.8,0.1-1.5,0.1-2.3c0-0.8-0.4-1.2-1.2-1.1c-0.6,0-1.4,0.3-1.7-0.2c-0.3-0.4-0.1-1.1,0-1.7
			c0.1-7,0.1-14.1,0.1-21c0-0.7,0.2-0.8,0.9-0.8c6.5,0.1,13,0,19.5,0.1c6.5,0,13,0,19.5,0c0.6,0,0.8,0.2,0.8,0.8
			c-0.1,3.5-0.1,7.1-0.1,10.6c0,0.6-0.1,0.7-0.7,0.7c-2.5,0-4.9,0-7.5,0c-1.1,0-1.5,0.3-1.5,1.4c0,4.6-0.1,9.1,0,13.6
			C-99.7,448.7-99.8,448.9-100.4,448.9z M-79.9,436.7c0,6.1-0.1,12.1-0.1,18.3c0,0.6-0.1,0.8-0.8,0.8c-5.1-0.1-10.1,0-15.2,0
			c-0.7,0-0.7-0.2-0.7-0.8c0.1-3,0-6.1,0.1-9.1c0.1-3,0-6.1,0.1-9.1c0-0.6,0.1-0.8,0.8-0.8c5.1,0.1,10.1,0,15.2,0
			C-80,435.9-79.9,436.1-79.9,436.7z M-105.4,453.2c-0.1-0.5-0.3-0.7-0.8-0.6c-2.7,0-5.6,0-8.3,0c-0.4,0-0.7,0.1-0.8,0.5
			c-0.5,1.5-0.9,2.9-1.4,4.3c-0.3,0.8,0,1.1,0.8,1.1c1.7,0.1,3.4,0,5.2,0.1c0,0,0,0,0,0.1c1.6,0,3.2,0,4.9,0c0.4,0,0.8,0.1,1.2-0.1
			c0.5-0.2,0.8-0.5,0.6-1.1c-0.1-0.5-0.4-0.9-0.6-1.4C-104.8,455-105.1,454.1-105.4,453.2z"/>
	</g>
</g>
</svg>
