<?xml version="1.0" encoding="utf-8"?>
<!-- Generator: Adobe Illustrator 19.0.0, SVG Export Plug-In . SVG Version: 6.00 Build 0)  -->
<svg version="1.1" id="Layer_1" xmlns="http://www.w3.org/2000/svg" xmlns:xlink="http://www.w3.org/1999/xlink" x="0px" y="0px"
	 viewBox="-265.8 401.4 50.1 39" style="enable-background:new -265.8 401.4 50.1 39;" xml:space="preserve">
<g>
	<path d="M-256.5,407.4c0.1,0.2,0.2,0.2,0.3,0.1c0.2-0.1,0.5-0.2,0.7-0.3c0.2-0.1,0.2-0.1,0.2-0.3c-0.2-0.4-0.4-0.8-0.6-1.2
		c0-0.1-0.1-0.2-0.1-0.3c0.4,0.3,0.8,0.5,1.3,0.8c0.1-0.5,0.2-1.1,0.2-1.6c0.3,0.5,0.5,1,0.7,1.5c0.1,0.2,0.1,0.2,0.3,0.1
		c0.3-0.1,0.6-0.2,0.9-0.3c0.1-0.1,0.2-0.1,0.1-0.3c-0.5-1.1-1-2.3-1.6-3.4c-0.4,0.2-0.8,0.4-1.2,0.6c-0.1,0.5-0.1,1-0.2,1.6
		c-0.4-0.3-0.9-0.6-1.3-0.9c-0.4,0.2-0.8,0.4-1.3,0.6c0.1,0.1,0.1,0.2,0.1,0.3C-257.4,405.3-257,406.4-256.5,407.4z M-263.9,411.1
		c0.2-0.1,0.4-0.2,0.7-0.3c0.3-0.1,0.3-0.2,0.2-0.5c-0.1-0.3-0.4-0.6-0.3-0.9c0.1-0.2,0.5-0.3,0.8-0.4l0,0c0.1-0.1,0.2,0,0.2,0.1
		c0.1,0.3,0.3,0.6,0.4,0.9c0.1,0.1,0.1,0.2,0.3,0.1c0.2-0.1,0.5-0.3,0.8-0.4c0.2-0.1,0.2-0.2,0.1-0.4c-0.5-1.1-1-2.2-1.5-3.4
		c-0.4,0.2-0.8,0.4-1.2,0.5c0.1,0.4,0.3,0.7,0.4,1c0.1,0.2,0.1,0.2-0.1,0.3c-0.2,0.1-0.5,0.2-0.7,0.3s-0.2,0-0.3-0.1
		c-0.2-0.3-0.3-0.7-0.5-1c-0.4,0.2-0.8,0.4-1.2,0.5c0,0.1,0.1,0.2,0.1,0.3c0.5,1,0.9,2.1,1.4,3.1
		C-264.1,411.2-264,411.2-263.9,411.1z M-261,406.9c0.2-0.1,0.4-0.2,0.6-0.3c0.2-0.1,0.3-0.1,0.4,0.2c0.3,0.7,0.6,1.3,0.9,2
		c0.1,0.1,0.1,0.2,0.3,0.1c0.3-0.1,0.5-0.3,0.8-0.4c0.2-0.1,0.2-0.2,0.1-0.3c-0.3-0.6-0.6-1.3-0.9-1.9c-0.1-0.2-0.1-0.3,0.1-0.4
		s0.4-0.2,0.6-0.3c0.2-0.1,0.2-0.2,0.1-0.4c-0.1-0.3-0.3-0.6-0.4-1c-1.1,0.5-2.2,1-3.3,1.5c0.2,0.3,0.3,0.6,0.5,1
		C-261.3,406.9-261.2,407-261,406.9z M-252,405.3c0.1,0.2,0.1,0.2,0.3,0.1c0.8-0.4,1.6-0.8,2.4-1.1c0.2-0.1,0.2-0.1,0.1-0.3
		c-0.1-0.3-0.3-0.6-0.4-0.8c-0.1-0.2-0.1-0.2-0.3-0.1c-0.4,0.2-0.8,0.4-1.3,0.6c-0.2,0.1-0.2,0-0.3-0.1c-0.3-0.7-0.7-1.5-1-2.2
		c-0.4,0.2-0.8,0.4-1.2,0.6c0.1,0.1,0.1,0.2,0.1,0.3C-252.9,403.2-252.5,404.3-252,405.3z M-216.5,424.8
		c-5.2-4.6-10.4-9.3-15.6-13.9c-0.1-0.1-0.2-0.1-0.3-0.2c-0.1,0.1-0.2,0.3-0.3,0.4c-0.2,0.4-0.5,0.8-0.8,1.1
		c-1.3,1.8-2.5,3.5-3.8,5.3c-1.1,1.5-2.2,3.1-3.3,4.6c-0.1,0.1-0.1,0.2-0.2,0.3c-0.3-0.9-0.6-1.7-0.9-2.6c-0.6-1.7-1.2-3.5-1.8-5.2
		c-0.5-1.5-1.1-3.1-1.6-4.6s-1.1-3.1-1.6-4.6c0.1-0.3,0-0.3-0.2-0.2c-6,2.8-11.9,5.6-17.9,8.3c-0.2,0.1-0.2,0.2-0.1,0.4
		c0.5,0.9,1,1.7,1.4,2.6c1,1.8,2,3.5,3,5.3c0.9,1.6,1.8,3.2,2.6,4.8c1,1.8,2,3.6,3,5.4c0.1,0.2,0.2,0.2,0.4,0.2
		c2.1-0.3,4.1-0.7,6.2-1c0.6-0.1,1.3-0.2,1.9-0.3c0.1,0,0.2-0.1,0.3-0.1c0.4-0.4,0.8-0.7,1.2-1.1c0.1-0.1,0.2-0.1,0.3-0.2
		c1.4,2.2,2.9,4.5,4.3,6.7c0.1,0.1,0.2,0.2,0.3,0.3c2.6,1.3,5.2,2.5,7.8,3.8c0.2,0.1,0.3,0.1,0.4-0.1c1.5-1.5,3.1-3,4.6-4.5
		c1.4-1.3,2.7-2.6,4.1-3.9c1.5-1.5,3-2.9,4.5-4.4c0.8-0.8,1.6-1.5,2.3-2.3c0.1-0.1,0.1-0.2,0-0.2
		C-216.4,424.8-216.4,424.8-216.5,424.8z M-244.1,423.3c-1.3,1.1-2.6,2.2-3.9,3.3c-0.1,0.1-0.2,0.1-0.3,0.1
		c-1.6,0.3-3.3,0.5-4.9,0.8c-0.2,0-0.3,0-0.4-0.2c-0.6-1.1-1.2-2.1-1.8-3.2c-0.1-0.2-0.1-0.2,0.1-0.3c0.6-0.3,1.3-0.6,1.9-0.9
		c0.2-0.1,0.2-0.1,0.3,0.1c0.3,0.5,0.5,0.9,0.8,1.4c0.1,0.2,0.2,0.2,0.3,0.2c0.8-0.1,1.7-0.3,2.5-0.4c0.1,0,0.2,0,0.3-0.1
		c0.7-0.6,1.3-1.1,2-1.7c0.1-0.1,0.1-0.2,0.1-0.3c-0.3-0.9-0.6-1.8-0.9-2.6c-0.1-0.3-0.2-0.3-0.4-0.2c-2.5,1.2-4.9,2.3-7.4,3.4
		c-0.2,0.1-0.3,0.1-0.5-0.2c-1.2-2.1-2.4-4.3-3.6-6.4c-0.1-0.2,0-0.2,0.1-0.3c1.9-0.9,3.7-1.7,5.5-2.6l0,0c1.8-0.9,3.7-1.7,5.5-2.6
		c0.2-0.1,0.2,0,0.3,0.1c0.2,0.7,0.4,1.3,0.7,2c0.1,0.2,0,0.3-0.2,0.4c-2.8,1.3-5.5,2.6-8.3,3.8c-0.3,0.1-0.3,0.1-0.1,0.5
		c0.3,0.6,0.7,1.2,1,1.8c0.1,0.2,0.2,0.2,0.4,0.1c2.6-1.2,5.3-2.4,7.9-3.7c0.2-0.1,0.3-0.1,0.4,0.2c0.7,2,1.4,3.9,2,5.9
		c0.1,0.4,0.3,0.8,0.4,1.2C-243.9,423.2-244,423.2-244.1,423.3z M-222.1,426.2c-0.5,0.5-1,1-1.5,1.5c-0.2,0.2-0.3,0.2-0.5,0.1
		c-1.7-0.5-3.4-1.1-5-1.6c-0.3-0.1-0.5-0.2-0.8-0.3c1.4,1.2,2.7,2.4,4,3.6c0.2,0.2,0.2,0.3,0,0.5c-1.1,1.1-2.3,2.2-3.4,3.3
		c-0.7,0.7-1.4,1.4-2.1,2.1c-0.2,0.2-0.3,0.3-0.6,0.1c-1.6-0.8-3.2-1.7-4.9-2.5c-0.2-0.1-0.4-0.3-0.5-0.5c-1-1.5-2-3-3-4.5
		c-0.1-0.2-0.1-0.3,0-0.5c0.7-1,1.3-2,2.1-2.9c0.1-0.2,0.2-0.2,0.4,0c0.5,0.5,1,0.9,1.5,1.4c0.2,0.2,0.2,0.3,0,0.5
		c-0.3,0.4-0.6,0.9-1,1.3c-0.1,0.2-0.1,0.3,0,0.4c0.6,0.8,1.3,1.7,1.9,2.5c0.1,0.1,0.3,0.1,0.4,0.2c0.9,0.4,1.7,0.8,2.6,1.2
		c0.1,0.1,0.2,0.1,0.4,0c0.7-0.7,1.4-1.5,2.2-2.2c0.1-0.1,0.1-0.2,0-0.3c-1.8-1.6-3.6-3.3-5.4-4.8c-0.7-0.7-1.3-1.2-1.9-1.7
		c-0.1-0.1-0.1-0.2,0-0.3c0.5-0.6,0.9-1.3,1.4-1.9c0.1-0.2,0.3-0.1,0.4-0.1c2,0.7,4.1,1.3,6.1,2c0.1,0,0.2,0.1,0.3,0.1
		c0,0,0,0,0.1-0.1c-0.2-0.2-0.4-0.4-0.6-0.5c-1.4-1.3-2.8-2.6-4.2-3.8c-0.2-0.1-0.2-0.2-0.1-0.4c0.4-0.6,0.7-1.1,1.1-1.7
		c0.1-0.2,0.2-0.1,0.3,0c0.2,0.2,0.4,0.3,0.5,0.5c3.3,2.9,6.5,5.8,9.8,8.7C-221.8,425.9-221.8,425.9-222.1,426.2z M-223.4,414.1
		c0.6,0.5,1.1,1,1.7,1.5c0.1,0.1,0.2,0.2,0,0.3c-0.1,0.1-0.2,0.4-0.5,0.1c-0.4-0.4-0.9-0.8-1.3-1.2c-0.5-0.5-0.5-0.5-1,0.1
		c-0.1,0.1-0.1,0.2,0,0.3c0.4,0.4,0.9,0.8,1.3,1.2l0,0c0.4,0.4,0.9,0.8,1.3,1.2c0.1,0.1,0.2,0.1,0.3,0c0.4-0.5,0.8-1,1.3-1.5
		c0.1-0.2,0.1-0.2,0-0.4c-0.6-0.5-1.2-1.1-1.8-1.6c-0.1,0-0.1,0,0-0.2c0.1-0.2,0.2-0.2,0.4,0c0.6,0.5,1.2,1.1,1.8,1.6
		c0.2,0.1,0.2,0.1,0.4,0c0.1-0.2,0.3-0.4,0.5-0.5c0.1-0.1,0.1-0.2,0-0.3c-0.9-0.8-1.8-1.6-2.7-2.4c-0.1-0.1-0.2-0.1-0.3,0
		c-0.4,0.5-0.9,1-1.3,1.5C-223.6,413.9-223.6,414-223.4,414.1z M-215.8,417.6c-0.9-0.8-1.8-1.6-2.7-2.4c-0.1-0.1-0.2-0.1-0.3,0
		c-0.4,0.5-0.9,1.1-1.4,1.6c-0.1,0.1-0.1,0.2,0,0.3c0.6,0.5,1.1,1,1.7,1.5c0.1,0.1,0.3,0.2,0.1,0.4c-0.2,0.1-0.2,0.3-0.5,0.1
		c-0.4-0.4-0.9-0.8-1.3-1.2c-0.5-0.5-0.5-0.5-1,0.1c-0.1,0.1-0.1,0.2,0,0.3c0.4,0.4,0.9,0.8,1.3,1.2l0,0c0.5,0.4,0.9,0.8,1.4,1.2
		c0.1,0.1,0.2,0.1,0.3,0c0.4-0.5,0.8-1,1.3-1.5c0.1-0.2,0.1-0.2,0-0.4c-0.6-0.5-1.2-1.1-1.8-1.6c-0.1-0.1-0.1-0.2,0-0.3
		c0.1-0.1,0.2-0.1,0.3,0c0.6,0.6,1.2,1.1,1.8,1.7c0.1,0.1,0.2,0.1,0.3,0c0.1-0.2,0.3-0.4,0.5-0.6
		C-215.7,417.8-215.7,417.7-215.8,417.6z M-225.6,414.3c0.2,0.2,0.4,0.5,0.6,0.5s0.3-0.4,0.5-0.5c0.1-0.1,0.1-0.2,0-0.3
		c-0.6-0.5-1.1-1-1.7-1.5c-0.1-0.1-0.2-0.2,0-0.4c0.3-0.3,0.6-0.7,0.9-1c0.1-0.1,0.2-0.2,0.3,0c0.6,0.5,1.1,1,1.7,1.5
		c0.1,0.1,0.2,0.1,0.3,0c0.2-0.2,0.4-0.4,0.5-0.6c0.1-0.1,0.1-0.2,0-0.3c-0.9-0.8-1.8-1.6-2.6-2.4c-0.1-0.1-0.2-0.1-0.3,0
		c-0.4,0.5-0.8,0.9-1.2,1.4c-0.4,0.4-0.8,0.9-1.2,1.3c-0.1,0.2-0.2,0.2,0,0.4C-227,413-226.3,413.7-225.6,414.3z"/>
</g>
</svg>
