<?xml version="1.0" encoding="utf-8"?>
<!-- Generator: Adobe Illustrator 19.0.0, SVG Export Plug-In . SVG Version: 6.00 Build 0)  -->
<svg version="1.1" id="Layer_1" xmlns="http://www.w3.org/2000/svg" xmlns:xlink="http://www.w3.org/1999/xlink" x="0px" y="0px"
	 viewBox="-209.5 405.9 25.1 30" style="enable-background:new -209.5 405.9 25.1 30;" xml:space="preserve">
<style type="text/css">
	.st0{fill:#423A97;}
</style>
<g>
	<g>
		<path class="st0" d="M-189.4,415.4c-2.5,0-5,0-7.6,0c-2.5,0-5.1,0-7.6,0c-0.3,0-0.4,0.1-0.4,0.4c0,3.1,0,6.3,0,9.4
			c0,1,0,1.9,0,2.9s0.6,1.7,1.5,1.9c0.3,0.1,0.7,0,1,0c0.5,0,0.5,0,0.5,0.5c0,1.2,0,2.4,0,3.6c0,1,0.7,1.8,1.7,1.8
			c0.9,0,1.7-0.7,1.7-1.7c0-1.3,0.1-2.7,0-4c0-0.2,0-0.2,0.2-0.2c0.9,0,1.8,0,2.8,0c0.1,0,0.2,0,0.2,0.2c-0.1,1.3,0,2.7,0,4
			c0,1,0.8,1.7,1.7,1.7s1.7-0.8,1.7-1.8c0-0.2,0-0.4,0-0.5c0-1.1,0.1-2.3,0-3.4c0-0.2,0.1-0.1,0.2-0.1c0.3,0,0.6,0,0.9,0
			c1.2,0,2-0.8,2-2c0-4.1,0-8.2,0-12.2C-189,415.4-189.1,415.4-189.4,415.4z M-204.6,414.2c2.5,0,5.1,0,7.6,0s5.1,0,7.6,0
			c0.3,0,0.4,0,0.3-0.3c-0.1-0.5-0.1-1.1-0.3-1.6c-0.6-1.7-1.9-2.9-3.4-3.8c-0.2-0.1-0.3-0.2-0.1-0.4c0.4-0.5,0.7-1.1,1.1-1.7
			c0.1-0.2,0.2-0.4,0-0.5c-0.2-0.1-0.4,0-0.5,0.2c-0.4,0.6-0.8,1.2-1.2,1.8c-0.1,0.2-0.2,0.2-0.4,0.1c-2.1-0.7-4.2-0.7-6.3,0
			c-0.2,0.1-0.3,0-0.4-0.1c-0.4-0.6-0.8-1.2-1.2-1.8c-0.1-0.2-0.3-0.3-0.5-0.2c-0.2,0.1-0.1,0.3,0,0.5c0.4,0.6,0.8,1.2,1.1,1.7
			c0.1,0.2,0.1,0.2-0.1,0.3c-0.5,0.2-0.9,0.5-1.3,0.8c-1.4,1.2-2.3,2.6-2.5,4.5C-205,414.2-204.9,414.2-204.6,414.2z M-193.6,410.2
			c0.5,0,0.8,0.4,0.8,0.9s-0.4,0.9-0.9,0.9s-0.8-0.4-0.8-0.9C-194.4,410.5-194.1,410.2-193.6,410.2z M-200.4,410.2
			c0.5,0,0.8,0.4,0.8,0.9s-0.4,0.9-0.9,0.9s-0.8-0.4-0.9-0.9C-201.3,410.6-200.9,410.2-200.4,410.2z M-184.5,417.2
			c0-0.2,0-0.4-0.1-0.6c-0.2-0.8-1-1.3-1.9-1.2c-0.8,0.1-1.4,0.8-1.4,1.7c0,1.2,0,2.5,0,3.7c0,1.2,0,2.5,0,3.7
			c0,0.4,0.1,0.8,0.4,1.1c0.4,0.6,1.2,0.8,1.9,0.6c0.7-0.2,1.2-0.9,1.2-1.7C-184.5,422.1-184.5,419.6-184.5,417.2z M-207.2,415.5
			c-1.1-0.4-2.2,0.4-2.3,1.8c0,2.4,0,4.8,0,7.3c0,0.2,0,0.4,0.1,0.6c0.2,0.8,1,1.3,1.9,1.2c0.8-0.1,1.4-0.8,1.5-1.7
			c0-1.2,0-2.5,0-3.7c0-1.2,0-2.5,0-3.7C-206.1,416.4-206.5,415.7-207.2,415.5z"/>
	</g>
</g>
</svg>
