<?xml version="1.0" encoding="utf-8"?>
<!-- Generator: Adobe Illustrator 19.0.0, SVG Export Plug-In . SVG Version: 6.00 Build 0)  -->
<svg version="1.1" id="Слой_1" xmlns="http://www.w3.org/2000/svg" xmlns:xlink="http://www.w3.org/1999/xlink" x="0px" y="0px"
	 viewBox="-280.1 404.9 31.2 31.2" style="enable-background:new -280.1 404.9 31.2 31.2;" xml:space="preserve">
<path d="M-255.2,423.3c-0.5-0.7-3-1.7-3.8-0.9C-260.1,423.5-254.2,424.6-255.2,423.3L-255.2,423.3L-255.2,423.3z M-251.5,432.1
	l0-23.3c0-0.8-0.6-1.4-1.4-1.4l-23.2,0c-0.8,0-1.4,0.6-1.4,1.4l-0.1,23.3c0,0.8,0.6,1.4,1.4,1.4l23.3,0
	C-252.1,433.6-251.5,432.9-251.5,432.1L-251.5,432.1L-251.5,432.1z M-260.5,431.5c-1.2-0.1-2.5,0.1-3.6-0.3
	c-5.3-1.8-2.6-0.2-2.6-0.2c-1.5,0.2-3,0.7-4.5,0.6c-1.2-0.1-1.3-0.1-1.7-1.4c-0.4-1.3-1-2.6-1.5-3.8c-0.2-0.5-0.9-2.2-0.4-2.7
	c0.6-0.6,0.3,0.5,0.8,0.6c-0.1,0,0.6-2.3,0.8-2.6c0.4-1,1-2.1,1.9-2.8c1.9-1.5,4.1-1.8,6.3-1.5c0.9,0.1,1.7,0.2,2.3,0.6
	c0.8,0.6,1.5,1.3,2.6,0.9c1.1-0.5,0.4-1.1-0.2-1.9c-0.8-1.1-1.3-2.3-1.9-3.5c-0.2-0.5-2.1-3.5-1.5-3.9c0.3-0.2,1.8,0.2,2.1,0.4
	c0.6,0.4,1.6,2.4,1.8,3.1c0.7,1.7,1.4,4.1,3,5.1c1,0.6,0.7-0.3,0.4-1c-0.2-1.1-0.4-2.3-0.6-3.5c-0.2-0.8-0.5-1.6,0.5-1.4
	c0.7,0.1,0.8,0.8,1,1.4c0.5,1.4,0.7,3,0.9,4.6c0.1,0.4,0.6,1.4,0.5,1.8c-0.2,1.3-0.4,2.9-0.1,4.5c0.4,1.8-0.3,3.6-2.5,3.2
	c-0.3,0-1-0.5-1.3-0.3c-0.3,0.1-1.1,1.4-1.3,1.7C-259.6,429.7-259.6,431.3-260.5,431.5L-260.5,431.5L-260.5,431.5L-260.5,431.5z
	 M-248.9,433l0-25c0-1.7-1.4-3.1-3.1-3.1l-25,0c-1.7,0-3.1,1.4-3.1,3.1l0,25c0,1.7,1.4,3.1,3.1,3.1l25,0
	C-250.3,436.1-248.9,434.8-248.9,433L-248.9,433L-248.9,433z M-252.9,434.5l-23.3,0c-1.3,0-2.3-1.1-2.3-2.3l0-23.3
	c0-1.3,1.1-2.3,2.3-2.3l23.2-0.1c1.3,0,2.3,1.1,2.3,2.3l0,23.3C-250.5,433.5-251.6,434.5-252.9,434.5L-252.9,434.5L-252.9,434.5
	L-252.9,434.5z"/>
</svg>
