<?xml version="1.0" encoding="utf-8"?>
<svg version="1.1" id="Layer_1" xmlns="http://www.w3.org/2000/svg" xmlns:xlink="http://www.w3.org/1999/xlink" x="0px" y="0px"
	 viewBox="-536.1 809.6 32.6 32.6" style="enable-background:new -536.1 809.6 32.6 32.6;" xml:space="preserve">
<path fill="currentColor" d="M-525.4,831.6c0-0.2,0.1-0.5,0.3-0.7c2.3-2.6,4.6-5.1,6.9-7.7c0.2-0.2,0.3-0.2,0.6,0c0.4,0.4,0.8,0.7,1.2,1
	c0.3,0.2,0.3,0.3,0.1,0.6c-0.7,0.9-1.4,1.7-2.1,2.6c-1.4,1.8-2.8,3.6-4.2,5.4c-0.4,0.6-1.2,0.6-1.7,0.2c-0.2-0.2-0.5-0.4-0.7-0.6
	C-525.3,832.3-525.4,832-525.4,831.6z M-523.5,832.8c0.2,0,0.3-0.1,0.4-0.3c0.6-0.8,1.2-1.5,1.8-2.3c1.5-1.8,2.9-3.7,4.4-5.5
	c0.1-0.1,0.1-0.2,0-0.3c-0.3-0.2-0.5-0.4-0.8-0.6c-0.1-0.1-0.2-0.1-0.3,0c-1.9,2.1-3.8,4.2-5.7,6.3c-0.3,0.4-0.7,0.8-1,1.1
	c-0.2,0.2-0.2,0.4,0,0.6c0.3,0.3,0.6,0.5,0.9,0.8C-523.7,832.8-523.6,832.8-523.5,832.8z"/>
<path fill="currentColor" d="M-517.2,819.4c0.5,0,0.9,0.2,1.3,0.4c0.2,0.2,0.5,0.3,0.8,0.3c0,0,0,0,0.1,0c0.6,0.3,1.2,0.6,1.4,1.3c0,0.1,0,0.1,0.1,0.2
	c0.1,0.2,0.2,0.2,0.4,0.1c0.2-0.1,0.3-0.1,0.4,0c0.3,0.3,0.7,0.6,1,0.9c0.3,0.3,0.4,0.7,0.1,1c-0.4,0.4-0.8,0.8-1.2,1.3
	c-0.4,0.4-0.7,0.4-1.2,0.1c-0.3-0.2-0.6-0.5-0.8-0.7c-0.2-0.2-0.2-0.3-0.1-0.5c0.1-0.1,0.1-0.2,0-0.3c-0.1-0.1-0.2-0.1-0.3,0
	c-0.1,0.1-0.1,0.1-0.2,0.2c-0.2,0.2-0.3,0.2-0.5,0c-0.4-0.4-0.9-0.7-1.3-1.1c-0.2-0.1-0.2-0.3-0.1-0.4c0.2-0.2,0.1-0.4,0-0.6
	c-0.5-0.6-1.1-0.9-1.8-0.8c-0.1,0-0.3,0-0.4-0.1c-0.1-0.1,0-0.3,0.1-0.4c0.3-0.4,0.8-0.7,1.3-0.8
	C-517.8,819.4-517.5,819.4-517.2,819.4z M-518.6,820.3c0.1,0,0.1,0,0.2,0c0.9,0.2,1.4,0.7,1.8,1.5c0.1,0.2,0.1,0.3,0,0.4
	c-0.1,0.1-0.1,0.2,0,0.2c0.2,0.2,0.5,0.4,0.7,0.6c0.1,0.1,0.2,0.1,0.3,0c0.4-0.3,0.8-0.2,1.1,0.2c0.1,0.2,0.2,0.4,0.1,0.6
	c0,0.1,0,0.1,0.1,0.2c0.2,0.2,0.5,0.4,0.7,0.6c0.1,0.1,0.2,0.1,0.3,0c0.4-0.5,0.8-0.9,1.3-1.4c0.1-0.1,0-0.1,0-0.2
	c-0.3-0.2-0.5-0.5-0.8-0.7c-0.1-0.1-0.1-0.1-0.2,0c-0.3,0.1-0.7,0-0.9-0.3c-0.1-0.1-0.1-0.3-0.2-0.4c-0.2-0.5-0.5-0.7-1-0.9h-0.1
	c-0.2,0-0.4-0.1-0.6-0.2c-0.1-0.1-0.3-0.2-0.4-0.3c-0.4-0.3-0.9-0.4-1.5-0.2C-518.1,820-518.3,820.1-518.6,820.3z"/>
<path fill="currentColor" d="M-525.1,820.5c0.1,0.1,0.2,0.1,0.3,0.2c0.3,0.1,0.5,0.3,0.7,0.5s0.3,0.5,0.2,0.8c-0.1,0.2-0.1,0.4-0.3,0.6
	c-0.1,0.2-0.2,0.3-0.3,0.4c-0.4,0.4-0.7,0.4-1.2,0.1c-0.2-0.1-0.4-0.2-0.6-0.4c-0.1,0.1,0,0.1,0,0.1c0.2,0.3,0.4,0.6,0.7,0.9
	c0.2,0.2,0.5,0.4,0.9,0.3c0.7-0.1,1.4,0.1,2,0.6c0.4,0.4,0.9,0.7,1.3,1c0.2,0.1,0.2,0.3,0.1,0.4c-0.1,0.1-0.3,0.1-0.4,0l0,0
	c-0.5-0.4-1-0.8-1.5-1.2c-0.2-0.2-0.5-0.3-0.8-0.3c-0.2,0-0.4,0-0.6,0c-0.6,0.1-1-0.2-1.4-0.5c-0.3-0.3-0.6-0.7-0.8-1
	c-0.1-0.1-0.1-0.3-0.1-0.4c0-0.3,0.3-0.6,0.6-0.5c0.2,0,0.4,0.2,0.6,0.3c0.2,0.1,0.3,0.2,0.5,0.3c0.1,0,0.1,0,0.2,0
	c0.4-0.3,0.5-0.7,0.6-1.1c0-0.1-0.1-0.2-0.2-0.2c-0.3-0.2-0.6-0.3-0.8-0.4c-0.1-0.1-0.3-0.1-0.4-0.3c-0.2-0.2-0.1-0.4,0.1-0.6
	c0.2-0.2,0.5-0.2,0.7-0.2c0.3,0,0.6,0,0.9,0c0.7,0.1,1.2,0.4,1.5,0.9c0.2,0.2,0.3,0.5,0.3,0.8s0,0.7,0.2,1c0.1,0.2,0.3,0.4,0.4,0.6
	c0.5,0.4,1,0.8,1.5,1.2c0.1,0.1,0.2,0.1,0.2,0.3c0,0.1-0.1,0.2-0.2,0.2c-0.1,0.1-0.2,0-0.3,0c-0.6-0.5-1.2-0.9-1.7-1.4
	c-0.5-0.4-0.6-1-0.6-1.6c0-0.4,0-0.7-0.3-1c-0.3-0.2-0.6-0.4-1-0.4C-524.5,820.4-524.8,820.4-525.1,820.5z"/>
<path fill="currentColor" d="M-513.6,833c-0.1-0.1-0.2-0.1-0.3-0.2c-0.3-0.1-0.5-0.3-0.7-0.5s-0.3-0.5-0.2-0.8c0.1-0.2,0.1-0.4,0.3-0.6
	c0.1-0.2,0.2-0.3,0.3-0.4c0.4-0.4,0.7-0.4,1.2-0.1c0.2,0.1,0.4,0.2,0.6,0.4c0.1-0.1,0-0.1,0-0.1c-0.2-0.3-0.4-0.6-0.7-0.9
	c-0.2-0.2-0.5-0.4-0.9-0.3c-0.7,0.1-1.4-0.1-2-0.6c-0.4-0.4-0.9-0.7-1.3-1c-0.2-0.1-0.2-0.3-0.1-0.4c0.1-0.1,0.3-0.1,0.4,0l0,0
	c0.5,0.4,1,0.8,1.5,1.2c0.2,0.2,0.5,0.3,0.8,0.3c0.2,0,0.4,0,0.6,0c0.6-0.1,1,0.2,1.4,0.5c0.3,0.3,0.6,0.7,0.8,1
	c0.1,0.1,0.1,0.3,0.1,0.4c0,0.3-0.3,0.6-0.6,0.5c-0.2,0-0.4-0.2-0.6-0.3s-0.3-0.2-0.5-0.3c-0.1,0-0.1,0-0.2,0
	c-0.4,0.3-0.5,0.7-0.6,1.1c0,0.1,0.1,0.2,0.2,0.2c0.3,0.2,0.6,0.3,0.8,0.4c0.1,0.1,0.3,0.1,0.4,0.3c0.2,0.2,0.1,0.4-0.1,0.6
	s-0.5,0.2-0.7,0.2c-0.3,0-0.6,0-0.9,0c-0.7-0.1-1.2-0.4-1.5-0.9c-0.2-0.2-0.3-0.5-0.3-0.8s0-0.7-0.2-1c-0.1-0.2-0.3-0.4-0.4-0.6
	c-0.5-0.4-1-0.8-1.5-1.2c-0.1-0.1-0.2-0.1-0.2-0.3c0-0.1,0.1-0.2,0.2-0.2c0.1-0.1,0.2,0,0.3,0c0.6,0.5,1.2,0.9,1.7,1.4
	c0.5,0.4,0.6,1,0.6,1.6c0,0.4,0,0.7,0.3,1c0.3,0.2,0.6,0.4,1,0.4C-514.2,833.1-513.9,833.1-513.6,833z"/>
<path style="fill:none;stroke:currentColor;stroke-width:1.3154;stroke-miterlimit:10;" d="M-519.8,810.2c8.7,0,15.7,7,15.7,15.7s-7,15.7-15.7,15.7s-15.7-7-15.7-15.7S-528.5,810.2-519.8,810.2z"/>
</svg>
