<?xml version="1.0" encoding="utf-8"?>
<svg version="1.1" id="Layer_1" xmlns="http://www.w3.org/2000/svg" xmlns:xlink="http://www.w3.org/1999/xlink" x="0px" y="0px"
	 viewBox="-502.4 802.5 24.1 34.2" style="enable-background:new -502.4 802.5 24.1 34.2;" xml:space="preserve">
<g>
	<path fill="currentColor" d="M-480.4,833.5c0.3-2.4,0.4-4.8,0.6-7.2c0.2-2.1,0.3-4.3,0.6-6.4c0.2-2.3,0.5-4.8,0.6-7.1c0.1-1.2,0.3-2.4,0.3-3.6
		c0-0.1,0-0.2-0.1-0.2c-0.1,0-0.1,0-0.2,0c-7.8,0-15.6,0.1-23.4,0c-0.1,0-0.2,0-0.4,0.1c0,0.2,0,0.4,0.1,0.6
		c0.2,0.5,0.2,1.1,0.2,1.5c0.2,2.4,0.4,4.8,0.7,7.3c0.2,2.1,0.4,4.2,0.6,6.3c0.2,2.1,0.4,4.3,0.6,6.3c0.1,0.8,0.1,1.6,0.2,2.4
		c0,0.2,0.1,0.3,0.3,0.4c3.1,0.9,6.3,1.7,9.5,2.7c0.2,0.1,0.3,0,0.4,0c3.2-0.8,6.3-1.8,9.4-2.6
		C-480.6,833.8-480.4,833.7-480.4,833.5z M-484,829.6c-2,0.5-3.9,1-6,1.6c-0.3,0.1-0.6,0.1-0.8,0c-2-0.5-4-1-5.9-1.5
		c-0.2-0.1-0.4-0.2-0.4-0.4c-0.2-1.3-0.3-2.7-0.4-4.1c0-0.2,0-0.3,0.3-0.3c0.8,0,1.5,0.1,2.3,0c0.2,0,0.4,0.1,0.4,0.4
		c0.1,0.6,0.1,1.3,0.1,1.8c0,0.2,0.1,0.4,0.3,0.4c1.2,0.2,2.3,0.4,3.6,0.7c0.2,0.1,0.3-0.1,0.4-0.1c1-0.3,2-0.6,3.1-0.9
		c0.1,0,0.3-0.1,0.3-0.3c0.1-1.2,0.1-2.4,0.2-3.4c0-0.2,0-0.2-0.2-0.2c-2.7,0.1-5.4,0-8.2,0c-0.9,0-1.8,0-2.7,0.1
		c-0.1,0-0.2,0-0.2-0.2c0-0.9-0.2-1.7-0.3-2.7c0-0.2,0.1-0.3,0.3-0.4c2.2-0.9,4.5-2,6.7-2.9c0.1,0,0.2-0.1,0.3-0.2v-0.1
		c-0.3,0-0.6,0.1-0.9,0c-2.1,0-4.3,0-6.4,0c-0.2,0-0.3,0-0.4-0.3c-0.1-0.7-0.2-1.5-0.3-2.2c0-0.2,0-0.2,0.2-0.2c0.3,0,0.5,0,0.9,0
		c4.9,0,9.8,0,14.7,0c0.4,0,0.4,0,0.4,0.5c-0.1,0.9-0.2,1.6-0.2,2.3c0,0.3-0.2,0.4-0.3,0.5c-1.8,0.8-3.6,1.6-5.4,2.4
		c-0.3,0.1-0.6,0.3-1,0.4c2.1,0,4.1,0,6.1,0c0.3,0,0.4,0.1,0.4,0.4c-0.2,1.8-0.3,3.5-0.4,5.3c-0.1,1.1-0.2,2.2-0.2,3.3
		C-483.7,829.3-483.8,829.5-484,829.6z M-492.7,805.1c0,0.2,0.1,0.3,0.3,0.3c0.9,0,1.7,0,2.5,0c0.2,0,0.3,0,0.3,0.3
		c-0.1,0.2,0.1,0.5-0.3,0.4c-0.7,0-1.3,0-2,0c-0.8,0.1-0.8,0.1-0.8,0.8c0,0.2,0.1,0.3,0.3,0.3c0.7,0,1.3,0,2,0l0,0c0.7,0,1.3,0,2,0
		c0.2,0,0.3-0.1,0.2-0.2c0-0.7,0-1.4,0-2.2c0-0.2-0.1-0.3-0.3-0.3c-0.9,0-1.8,0-2.8,0c-0.2,0-0.3,0-0.3-0.3s0-0.3,0.3-0.3
		c0.9,0,1.8,0,2.8,0c0.2,0,0.3-0.1,0.3-0.3c0-0.2,0-0.5,0-0.8s-0.1-0.3-0.2-0.2c-1.3,0-2.7,0.1-4.1,0c-0.2,0-0.3,0.1-0.2,0.2
		C-492.6,803.5-492.7,804.3-492.7,805.1z M-487.6,805.1c0,0.2,0.1,0.3,0.2,0.2c0.9,0,1.7,0,2.5,0c0.2,0,0.4-0.1,0.4,0.3
		c0,0.2,0,0.4-0.3,0.5c-0.6-0.1-1.3,0-2,0c-0.8,0.1-0.8,0-0.8,0.8c0,0.2,0.1,0.3,0.2,0.2c0.7,0,1.3,0,2,0l0,0c0.7,0,1.3,0,2.1,0
		c0.2,0,0.2,0,0.2-0.2c0-0.7,0-1.4,0-2.2c0-0.2-0.1-0.3-0.3-0.3c-0.9,0-1.9,0-2.8,0c-0.3,0-0.4-0.1-0.4-0.3s0-0.3,0.3-0.3
		c0.9,0,1.9,0,2.8,0c0.2,0,0.3-0.1,0.2-0.2c0-0.2-0.1-0.6,0-0.9c0-0.2-0.1-0.3-0.2-0.2c-1.3,0-2.6,0-4,0c-0.2,0-0.2,0-0.2,0.2
		C-487.7,803.6-487.7,804.3-487.6,805.1z M-497.7,804.8c0,0.7,0,1.3,0,2c0,0.2,0.1,0.4,0.3,0.4c1.1,0,2.2,0,3.3,0
		c0.3,0,0.7,0.1,0.8-0.1c0.2-0.1,0-0.5,0.1-0.9c0-0.2-0.1-0.3-0.2-0.2c-0.9,0-1.7,0-2.5,0c-0.2,0-0.3,0-0.3-0.3c0-0.5,0-1,0.1-1.5
		c0-0.2,0-0.3,0.3-0.3c0.9,0,1.7,0,2.5,0c0.2,0,0.3-0.1,0.2-0.2c0-0.3,0-0.7,0-0.9s-0.1-0.3-0.2-0.2c-1.3,0-2.6,0-4,0
		c-0.2,0-0.3,0.1-0.2,0.2C-497.7,803.5-497.7,804.2-497.7,804.8z"/>
</g>
</svg>
