<svg xmlns="http://www.w3.org/2000/svg" xmlns:xlink="http://www.w3.org/1999/xlink" preserveAspectRatio="xMidYMid" width="43" height="31" viewBox="0 0 43 31">
	<path d="M41.984,29.510 C37.216,29.615 32.449,29.718 27.681,29.822 C26.853,29.839 26.598,29.596 26.582,28.778 C26.559,27.600 26.525,26.423 26.523,25.245 C26.522,24.905 26.411,24.822 26.077,24.829 C19.617,24.979 13.156,25.120 6.696,25.251 C6.353,25.258 6.262,25.362 6.273,25.693 C6.314,26.904 6.328,28.116 6.348,29.328 C6.359,30.035 6.115,30.289 5.404,30.306 C3.970,30.342 2.537,30.373 1.103,30.400 C0.427,30.413 0.164,30.161 0.151,29.487 C0.095,26.705 0.043,23.923 -0.007,21.141 C-0.019,20.447 0.234,20.199 0.955,20.178 C1.840,20.151 1.840,20.151 1.824,19.269 C1.719,13.721 1.616,8.174 1.506,2.627 C1.495,2.077 1.594,1.575 1.976,1.155 C2.312,0.787 2.738,0.664 3.231,0.654 C8.275,0.551 13.319,0.438 18.363,0.328 C23.372,0.219 28.382,0.109 33.391,0.001 C34.590,-0.025 35.256,0.599 35.281,1.793 C35.340,4.660 35.400,7.528 35.434,10.395 C35.439,10.821 35.552,10.934 35.985,10.919 C37.867,10.854 39.750,10.825 41.633,10.786 C42.461,10.769 42.716,11.011 42.731,11.830 C42.836,17.360 42.940,22.890 43.044,28.420 C43.059,29.238 42.814,29.491 41.984,29.510 ZM3.267,29.755 C3.534,29.742 3.657,29.581 3.677,29.313 C3.647,29.086 3.511,28.956 3.268,28.978 C3.033,28.999 2.890,29.140 2.891,29.381 C2.891,29.619 3.010,29.768 3.267,29.755 ZM0.890,21.998 C0.608,22.002 0.500,22.072 0.507,22.374 C0.556,24.318 0.592,26.263 0.618,28.208 C0.622,28.486 0.691,28.595 0.997,28.586 C2.481,28.539 3.966,28.504 5.451,28.490 C5.795,28.487 5.841,28.350 5.832,28.061 C5.800,27.106 5.790,26.150 5.772,25.195 C5.754,24.222 5.727,23.250 5.723,22.278 C5.721,21.999 5.650,21.891 5.344,21.900 C3.860,21.947 2.375,21.977 0.890,21.998 ZM1.806,21.105 C1.807,21.143 1.808,21.180 1.809,21.217 C2.644,21.199 3.478,21.181 4.312,21.163 C4.310,21.125 4.309,21.088 4.307,21.051 C3.473,21.069 2.639,21.087 1.806,21.105 ZM33.147,2.703 C33.142,2.258 33.032,2.134 32.568,2.145 C27.854,2.266 23.139,2.362 18.425,2.465 C13.710,2.568 8.996,2.679 4.281,2.761 C3.768,2.770 3.665,2.918 3.676,3.401 C3.791,8.520 3.880,13.639 3.978,18.757 C3.987,19.182 3.860,19.724 4.075,19.998 C4.308,20.296 4.880,20.066 5.304,20.079 C5.889,20.098 6.166,20.338 6.187,20.909 C6.208,21.472 6.238,22.037 6.213,22.598 C6.194,23.019 6.320,23.140 6.759,23.129 C13.148,22.975 19.538,22.836 25.928,22.710 C26.349,22.702 26.478,22.604 26.468,22.169 C26.386,18.842 26.331,15.515 26.269,12.187 C26.254,11.370 26.500,11.117 27.328,11.098 C29.142,11.057 30.955,11.003 32.768,10.990 C33.213,10.986 33.303,10.847 33.292,10.433 C33.224,7.856 33.174,5.280 33.147,2.703 ZM40.608,13.515 C40.602,13.084 40.516,12.935 40.038,12.948 C36.359,13.050 32.680,13.130 29.001,13.188 C28.520,13.196 28.442,13.353 28.454,13.782 C28.516,15.999 28.547,18.218 28.589,20.437 C28.631,22.656 28.684,24.874 28.705,27.093 C28.709,27.524 28.797,27.673 29.276,27.660 C32.954,27.558 36.633,27.477 40.312,27.419 C40.793,27.411 40.869,27.254 40.859,26.826 C40.761,22.389 40.677,17.952 40.608,13.515 ZM15.215,26.101 C15.306,25.787 15.485,25.692 15.812,25.687 C17.812,25.659 19.813,25.616 21.812,25.556 C22.176,25.545 22.341,25.672 22.433,26.004 C22.614,26.660 22.841,27.304 23.016,27.962 C23.117,28.342 23.383,28.636 23.478,29.025 C23.590,29.485 23.400,29.692 23.023,29.844 C22.741,29.956 22.446,29.934 22.154,29.940 C20.982,29.967 19.809,29.992 18.637,30.017 C18.637,30.005 18.636,29.992 18.636,29.979 C17.377,30.007 16.119,30.037 14.860,30.061 C14.252,30.073 14.103,29.871 14.274,29.292 C14.589,28.229 14.910,27.167 15.215,26.101 Z" fill="currentColor" fill-rule="evenodd"/>
</svg>