<svg id="Layer_1" xmlns="http://www.w3.org/2000/svg" viewBox="-252 410.5 87.8 20.7"><style>.st0{fill:#FFF}</style><path class="st0" d="M-217.2,420.4c-0.3,0-0.7,0.1-1,0.3c-0.3,0.2-0.6,0.4-0.7,0.5c-0.1,0.2-0.3,0.3-0.4,0.4 c-0.5-0.8-1.2-1.2-2.1-1.2c-0.6,0-1.2,0.3-1.6,1c0-0.3-0.1-0.6-0.2-0.7c-0.2-0.2-0.5-0.3-1-0.3s-0.9,0.1-1,0.4 c-0.1,0.1-0.1,0.3-0.1,0.4c0,0.1,0,0.3,0,0.5v5c0,0.2,0,0.4,0,0.5c0,0.1,0.1,0.2,0.1,0.4c0.1,0.3,0.5,0.4,1.1,0.4 c0.6,0,1-0.1,1.1-0.4c0.1-0.1,0.1-0.3,0.1-0.4c0-0.1,0-0.3,0-0.5v-2.5c0-0.8,0.3-1.2,0.8-1.2c0.6,0,0.9,0.4,0.9,1.2v2.5 c0,0.2,0,0.4,0,0.5c0,0.1,0.1,0.2,0.1,0.4c0.1,0.3,0.5,0.4,1.1,0.4c0.6,0,1-0.1,1.1-0.4c0.1-0.1,0.1-0.3,0.1-0.4c0-0.1,0-0.3,0-0.5 v-2.5c0-0.4,0.1-0.7,0.2-0.9c0.1-0.2,0.3-0.3,0.7-0.3c0.6,0,0.9,0.4,0.9,1.2v2.5c0,0.2,0,0.4,0,0.5c0,0.1,0.1,0.2,0.1,0.4 c0.1,0.3,0.5,0.4,1.1,0.4c0.6,0,1-0.1,1.1-0.4c0.1-0.1,0.1-0.3,0.1-0.4c0-0.1,0-0.3,0-0.5v-2.5c0-1.3-0.3-2.3-0.8-2.9 C-215.9,420.6-216.5,420.4-217.2,420.4z M-207.3,420.5c-0.2-0.1-0.5-0.1-0.8-0.1c-0.7,0-1.1,0.3-1.1,0.8c-0.1-0.1-0.2-0.2-0.3-0.3 c-0.1-0.1-0.3-0.2-0.6-0.3c-0.3-0.1-0.6-0.2-0.9-0.2c-0.8,0-1.6,0.4-2.3,1.1c-0.7,0.7-1.1,1.6-1.1,2.6s0.3,1.9,1,2.6 c0.7,0.7,1.5,1.1,2.3,1.1c0.8,0,1.4-0.3,1.7-0.8c0,0.2,0.1,0.4,0.3,0.6c0.2,0.1,0.5,0.2,1,0.2s0.8-0.1,1-0.4 c0.1-0.1,0.1-0.3,0.1-0.4s0-0.3,0-0.5v-5C-206.7,420.6-207.1,420.5-207.3,420.5z M-209.6,425c-0.2,0.3-0.5,0.4-0.9,0.4 c-0.3,0-0.6-0.1-0.9-0.4c-0.2-0.3-0.4-0.5-0.4-0.8c0-0.3,0.1-0.6,0.3-0.9c0.2-0.3,0.5-0.4,0.9-0.4c0.4,0,0.7,0.1,0.9,0.4 c0.2,0.3,0.3,0.6,0.3,0.9C-209.3,424.4-209.4,424.7-209.6,425z M-201.1,420.5c-0.2-0.1-0.3-0.1-0.5-0.1c-0.2,0-0.3,0-0.6,0 c-0.2,0-0.5,0.1-0.8,0.2c-0.3,0.2-0.5,0.3-0.6,0.4c-0.1,0.1-0.2,0.2-0.2,0.2c0-0.2-0.1-0.3-0.2-0.5c-0.1-0.2-0.5-0.3-1.1-0.3 c-0.6,0-1,0.1-1.1,0.4c-0.1,0.1-0.1,0.3-0.1,0.4c0,0.1,0,0.3,0,0.5v5c0,0.2,0,0.3,0,0.4c0,0.3,0.1,0.5,0.3,0.6 c0.2,0.2,0.5,0.2,1,0.2c0.6,0,1-0.1,1.1-0.4c0.1-0.1,0.1-0.3,0.1-0.4s0-0.3,0-0.5v-3c0-0.3,0.1-0.5,0.3-0.7c0.2-0.2,0.5-0.3,0.7-0.3 c0.3,0,0.5,0,0.6,0.1c0.2,0.1,0.3,0.1,0.5,0.1c0.3,0,0.6-0.2,0.8-0.5c0.2-0.4,0.3-0.7,0.3-1c0-0.3-0.1-0.5-0.2-0.7 C-200.8,420.6-200.9,420.5-201.1,420.5z M-195.9,424.1l1.4-1.2c0.3-0.3,0.5-0.5,0.5-0.8c0-0.2-0.2-0.5-0.5-0.9 c-0.3-0.4-0.6-0.6-0.8-0.6c-0.2,0-0.5,0.1-0.8,0.4l-0.2,0.1c-0.2,0.1-0.4,0.4-0.8,0.7c-0.3,0.3-0.6,0.6-0.8,0.7V418 c0-0.2,0-0.3,0-0.4c0-0.3-0.1-0.5-0.3-0.6c-0.2-0.2-0.5-0.2-1-0.2c-0.6,0-1,0.1-1.1,0.4c-0.1,0.1-0.1,0.3-0.1,0.4s0,0.3,0,0.5v8.5 c0,0.2,0,0.4,0,0.5s0.1,0.2,0.1,0.4c0.1,0.3,0.5,0.4,1.1,0.4c0.6,0,1-0.1,1.1-0.4c0.1-0.1,0.1-0.3,0.1-0.4s0-0.3,0-0.5v-1.1 c0.2,0.2,0.6,0.5,1,1c0.5,0.4,0.8,0.8,1,0.9l0.1,0.1c0.4,0.3,0.7,0.4,0.9,0.4s0.5-0.2,0.8-0.6c0.3-0.4,0.5-0.6,0.5-0.9 c-0.1-0.4-0.3-0.6-0.6-0.8L-195.9,424.1z M-186.4,420.7c-0.1-0.3-0.5-0.4-1.1-0.4c-0.6,0-1,0.1-1.1,0.4c-0.1,0.1-0.1,0.3-0.1,0.4 s0,0.3,0,0.5v2.5c0,0.4-0.1,0.7-0.3,0.9c-0.2,0.2-0.5,0.3-0.9,0.3c-0.4,0-0.7-0.1-0.9-0.3c-0.2-0.2-0.3-0.5-0.3-0.9v-2.5 c0-0.3,0-0.6-0.1-0.7c-0.1-0.4-0.5-0.5-1.2-0.5c-0.6,0-1,0.1-1.1,0.4c-0.1,0.1-0.1,0.3-0.1,0.4c0,0.1,0,0.3,0,0.5v2.5 c0,1,0.3,1.9,0.9,2.6c0.6,0.7,1.4,1.1,2.4,1.1c0.4,0,0.7-0.1,1-0.3c0.1-0.1,0.2-0.2,0.4-0.3c0.1-0.1,0.2-0.2,0.3-0.3 c0,0.2,0,0.4,0.1,0.6c0.1,0.2,0.5,0.3,1.1,0.3c0.6,0,0.9-0.1,1.1-0.4c0.1-0.1,0.1-0.3,0.1-0.4s0-0.3,0-0.5v-5c0-0.2,0-0.4,0-0.5 C-186.3,421-186.3,420.9-186.4,420.7z M-181.6,420.4c-0.8,0-1.3,0.2-1.7,0.7c0-0.2-0.1-0.4-0.3-0.6c-0.2-0.1-0.5-0.2-1-0.2 s-0.8,0.1-0.9,0.4c-0.1,0.1-0.1,0.3-0.1,0.4s0,0.3,0,0.5v8.3c0,0.2,0,0.4,0,0.5s0.1,0.2,0.1,0.4c0.1,0.1,0.2,0.2,0.4,0.3 c0.2,0.1,0.4,0.1,0.7,0.1s0.5,0,0.7-0.1s0.3-0.2,0.4-0.3c0.1-0.1,0.1-0.3,0.1-0.4s0-0.3,0-0.5V427c0.3,0.4,0.9,0.7,1.7,0.7 c0.8,0,1.5-0.4,2.2-1.1c0.7-0.7,1-1.6,1-2.5c0-1-0.3-1.8-1-2.5C-180.1,420.8-180.9,420.4-181.6,420.4z M-181.2,424.9 c-0.2,0.2-0.5,0.4-0.9,0.4c-0.3,0-0.6-0.1-0.8-0.4c-0.2-0.3-0.3-0.5-0.3-0.8c0-0.3,0.1-0.6,0.3-0.8c0.2-0.3,0.5-0.4,0.9-0.4 c0.4,0,0.7,0.1,0.9,0.4c0.2,0.3,0.3,0.5,0.3,0.8C-180.8,424.4-180.9,424.6-181.2,424.9z M-170.8,420.7c-0.1-0.3-0.5-0.4-1.1-0.4 c-0.6,0-1,0.1-1.1,0.4c-0.1,0.1-0.1,0.3-0.1,0.4s0,0.3,0,0.5v2.5c0,0.4-0.1,0.7-0.3,0.9s-0.5,0.3-0.9,0.3c-0.4,0-0.7-0.1-0.9-0.3 s-0.3-0.5-0.3-0.9v-2.5c0-0.3,0-0.6-0.1-0.7c-0.1-0.4-0.5-0.5-1.2-0.5c-0.6,0-1,0.1-1.1,0.4c-0.1,0.1-0.1,0.3-0.1,0.4 c0,0.1,0,0.3,0,0.5v2.5c0,1,0.3,1.9,0.9,2.6c0.6,0.7,1.4,1.1,2.4,1.1c0.4,0,0.7-0.1,1-0.3c0.1-0.1,0.2-0.2,0.4-0.3 c0.1-0.1,0.2-0.2,0.3-0.3c0,0.2,0,0.4,0.1,0.6c0.1,0.2,0.5,0.3,1.1,0.3c0.6,0,0.9-0.1,1.1-0.4c0.1-0.1,0.1-0.3,0.1-0.4s0-0.3,0-0.5 v-5c0-0.2,0-0.4,0-0.5C-170.7,421-170.7,420.9-170.8,420.7z M-164.4,424.3c-0.2-0.3-0.4-0.6-0.7-0.7c-0.6-0.3-1.2-0.5-1.8-0.5 c-0.6-0.1-1-0.3-1-0.6c0-0.2,0.3-0.3,0.8-0.3c0.4,0,0.7,0.1,1,0.2s0.5,0.2,0.6,0.2c0.2,0,0.4-0.2,0.6-0.5c0.2-0.3,0.3-0.6,0.3-0.8 c0-0.2-0.2-0.4-0.5-0.6c-0.7-0.3-1.4-0.5-2.1-0.5c-2,0-3.1,0.7-3.1,2.2c0,0.5,0.1,0.9,0.3,1.3c0.2,0.4,0.4,0.6,0.7,0.8 c0.6,0.4,1.2,0.6,1.8,0.7c0.6,0.1,0.9,0.2,0.9,0.4c0,0.2-0.3,0.3-0.9,0.3c-0.3,0-0.7-0.1-1.1-0.3c-0.4-0.2-0.7-0.3-0.9-0.3 s-0.4,0.1-0.5,0.2c-0.4,0.5-0.5,0.9-0.5,1.1s0.1,0.4,0.3,0.5c0.8,0.5,1.7,0.8,2.6,0.8c0.9,0,1.7-0.1,2.3-0.4 c0.3-0.2,0.6-0.4,0.8-0.8c0.2-0.3,0.3-0.8,0.3-1.3C-164.1,425-164.2,424.6-164.4,424.3z M-230.9,419.3c-0.9,0-1.7,0.8-1.7,1.7 s0.8,1.7,1.7,1.7c0.9,0,1.7-0.8,1.7-1.7S-230,419.3-230.9,419.3z M-230.9,424.9c-0.9,0-1.7,0.8-1.7,1.7s0.8,1.7,1.7,1.7 c0.9,0,1.7-0.8,1.7-1.7C-229.2,425.6-230,424.9-230.9,424.9z M-236,410.5c-0.4,0-0.8,0.2-1.1,0.4l-9.8,11.7c-0.6,0.6-0.6,1.6,0,2.2 c0.3,0.3,0.7,0.4,1.1,0.4c0.4,0,0.8-0.2,1.1-0.4l9.8-11.7c0.6-0.6,0.6-1.6,0-2.2C-235.2,410.6-235.6,410.5-236,410.5z M-236,417.6 c-0.4,0-0.8,0.2-1.1,0.4c-0.3,0.3-0.4,0.7-0.4,1.1v7.2c0,0.8,0.7,1.5,1.5,1.5c0.4,0,0.8-0.2,1.1-0.4c0.3-0.3,0.4-0.7,0.4-1.1v-7.2 C-234.5,418.2-235.2,417.6-236,417.6z M-246,418.1c0.4,0,0.8-0.2,1.1-0.4c0.3-0.3,0.4-0.7,0.4-1.1s-0.2-0.8-0.4-1.1l-4.3-4.3 c-0.2-0.5-0.7-0.7-1.3-0.7l0,0c-0.4,0-0.8,0.2-1.1,0.4c-0.3,0.3-0.4,0.7-0.4,1.1l0,0v14.2c0,0.9,0.7,1.6,1.6,1.6 c0.9,0,1.6-0.7,1.6-1.6v-10.4l1.9,1.9C-246.7,417.9-246.4,418.1-246,418.1z"/></svg>